SplineFontDB: 3.2
FontName: Nunito-ExtraLight
FullName: Nunito ExtraLight
FamilyName: Nunito ExtraLight
Weight: Light
Copyright: Copyright 2014 The Nunito Project Authors (https://github.com/googlefonts/nunito)
Version: 3.602-ef
ItalicAngle: 0
UnderlinePosition: -94
UnderlineWidth: 28
Ascent: 800
Descent: 200
InvalidEm: 0
sfntRevision: 0x00039a1d
LayerCount: 2
Layer: 0 1 "Back" 1
Layer: 1 1 "Fore" 0
XUID: [1021 965 1680887925 15236199]
StyleMap: 0x0040
FSType: 0
OS2Version: 4
OS2_WeightWidthSlopeOnly: 0
OS2_UseTypoMetrics: 1
CreationTime: 1592915285
ModificationTime: 1719074587
PfmFamily: 81
TTFWeight: 250
TTFWidth: 5
LineGap: 0
VLineGap: 0
Panose: 0 0 0 0 0 0 0 0 0 0
OS2TypoAscent: 1011
OS2TypoAOffset: 0
OS2TypoDescent: -353
OS2TypoDOffset: 0
OS2TypoLinegap: 0
OS2WinAscent: 1077
OS2WinAOffset: 0
OS2WinDescent: 300
OS2WinDOffset: 0
HheadAscent: 1011
HheadAOffset: 0
HheadDescent: -353
HheadDOffset: 0
OS2SubXSize: 650
OS2SubYSize: 600
OS2SubXOff: 0
OS2SubYOff: 75
OS2SupXSize: 650
OS2SupYSize: 600
OS2SupXOff: 0
OS2SupYOff: 350
OS2StrikeYSize: 28
OS2StrikeYPos: 290
OS2CapHeight: 705
OS2XHeight: 484
OS2Vendor: 'NONE'
OS2CodePages: 20000197.00000000
OS2UnicodeRanges: a00002ff.5000204b.00000000.00000000
Lookup: 1 0 0 "'aalt' Access All Alternates lookup 0" { "'aalt' Access All Alternates lookup 0 subtable"  } ['aalt' ('DFLT' <'dflt' > 'cyrl' <'BSH ' 'CHU ' 'dflt' > 'latn' <'AZE ' 'CAT ' 'CRT ' 'KAZ ' 'MOL ' 'NLD ' 'ROM ' 'TAT ' 'TRK ' 'dflt' > ) ]
Lookup: 3 0 0 "'aalt' Access All Alternates lookup 1" { "'aalt' Access All Alternates lookup 1 subtable"  } ['aalt' ('DFLT' <'dflt' > 'cyrl' <'BSH ' 'CHU ' 'dflt' > 'latn' <'AZE ' 'CAT ' 'CRT ' 'KAZ ' 'MOL ' 'NLD ' 'ROM ' 'TAT ' 'TRK ' 'dflt' > ) ]

StartChar: .notdef
Encoding: 65536 -1 0
Width: 500
GlyphClass: 1
Flags: W
LayerCount: 2
Fore
SplineSet
50 -180 m 1,0,-1
 50 705 l 1,1,-1
 450 705 l 1,2,-1
 450 -180 l 1,3,-1
 50 -180 l 1,0,-1
100 -130 m 1,4,-1
 400 -130 l 1,5,-1
 400 655 l 1,6,-1
 100 655 l 1,7,-1
 100 -130 l 1,4,-1
EndSplineSet
EndChar

StartChar: A
Encoding: 65 65 1
Width: 716
GlyphClass: 2
Flags: W
AnchorPoint: "Anchor-3" 682 0 basechar 0
AnchorPoint: "Anchor-2" 359 0 basechar 0
AnchorPoint: "Anchor-0" 359 705 basechar 0
LayerCount: 2
Fore
SplineSet
62 -6 m 0,0,1
 52 -6 52 -6 47 -2 c 128,-1,2
 42 2 42 2 42 9.5 c 128,-1,3
 42 17 42 17 46 26 c 2,4,-1
 332 690 l 2,5,6
 337 701 337 701 344 706 c 128,-1,7
 351 711 351 711 358 711 c 0,8,9
 366 711 366 711 373 706 c 128,-1,10
 380 701 380 701 384 690 c 2,11,-1
 670 26 l 2,12,13
 674 17 674 17 674 9.5 c 128,-1,14
 674 2 674 2 670 -2 c 128,-1,15
 666 -6 666 -6 656 -6 c 256,16,17
 646 -6 646 -6 639.5 0 c 128,-1,18
 633 6 633 6 629 15 c 2,19,-1
 548 204 l 1,20,-1
 575 195 l 1,21,-1
 139 195 l 1,22,-1
 167 204 l 1,23,-1
 86 15 l 2,24,25
 82 4 82 4 75 -1 c 128,-1,26
 68 -6 68 -6 62 -6 c 0,0,1
357 648 m 1,27,-1
 178 228 l 1,28,-1
 156 234 l 1,29,-1
 558 234 l 1,30,-1
 538 228 l 1,31,-1
 359 648 l 1,32,-1
 357 648 l 1,27,-1
EndSplineSet
Substitution2: "Single Substitution lookup 29 subtable" ordfeminine
Substitution2: "'aalt' Access All Alternates lookup 0 subtable" ordfeminine
EndChar

StartChar: Aogonek
Encoding: 260 260 24
Width: 716
GlyphClass: 1
Flags: W
LayerCount: 2
Fore
SplineSet
665 -190 m 0,0,1
 624 -190 624 -190 597.5 -165 c 128,-1,2
 571 -140 571 -140 571 -98 c 0,3,4
 571 -66 571 -66 588 -35.5 c 128,-1,5
 605 -5 605 -5 634 17 c 1,6,-1
 636 4 l 1,7,8
 634 6 634 6 632.5 9 c 128,-1,9
 631 12 631 12 629 15 c 2,10,-1
 548 204 l 1,11,-1
 575 195 l 1,12,-1
 139 195 l 1,13,-1
 167 204 l 1,14,-1
 86 15 l 2,15,16
 82 4 82 4 75 -1 c 128,-1,17
 68 -6 68 -6 62 -6 c 0,18,19
 52 -6 52 -6 47 -2 c 128,-1,20
 42 2 42 2 42 9.5 c 128,-1,21
 42 17 42 17 46 26 c 2,22,-1
 332 690 l 2,23,24
 337 701 337 701 344 706 c 128,-1,25
 351 711 351 711 358 711 c 0,26,27
 366 711 366 711 373 706 c 128,-1,28
 380 701 380 701 384 690 c 2,29,-1
 670 26 l 2,30,31
 675 16 675 16 674.5 8.5 c 128,-1,32
 674 1 674 1 666 -4 c 256,33,34
 658 -9 658 -9 644.5 -21.5 c 128,-1,35
 631 -34 631 -34 620.5 -52 c 128,-1,36
 610 -70 610 -70 610 -94 c 0,37,38
 610 -125 610 -125 627.5 -139.5 c 128,-1,39
 645 -154 645 -154 670 -154 c 0,40,41
 681 -154 681 -154 690.5 -152 c 128,-1,42
 700 -150 700 -150 709 -147 c 0,43,44
 719 -144 719 -144 724.5 -147.5 c 128,-1,45
 730 -151 730 -151 731.5 -158 c 128,-1,46
 733 -165 733 -165 730 -171.5 c 128,-1,47
 727 -178 727 -178 720 -181 c 0,48,49
 706 -186 706 -186 692.5 -188 c 128,-1,50
 679 -190 679 -190 665 -190 c 0,0,1
357 648 m 1,51,-1
 178 228 l 1,52,-1
 156 234 l 1,53,-1
 558 234 l 1,54,-1
 538 228 l 1,55,-1
 359 648 l 1,56,-1
 357 648 l 1,51,-1
EndSplineSet
EndChar

StartChar: AE
Encoding: 198 198 28
Width: 971
GlyphClass: 2
Flags: W
AnchorPoint: "Anchor-2" 487 0 basechar 0
AnchorPoint: "Anchor-0" 486 705 basechar 0
LayerCount: 2
Fore
SplineSet
31 -6 m 0,0,1
 22 -6 22 -6 16.5 -2 c 128,-1,2
 11 2 11 2 11 8.5 c 128,-1,3
 11 15 11 15 15 22 c 2,4,-1
 413 689 l 2,5,6
 418 697 418 697 424.5 701 c 128,-1,7
 431 705 431 705 440 705 c 2,8,-1
 904 705 l 2,9,10
 915 705 915 705 921 700 c 128,-1,11
 927 695 927 695 927 686 c 0,12,13
 927 676 927 676 921 671 c 128,-1,14
 915 666 915 666 904 666 c 2,15,-1
 459 666 l 1,16,-1
 466 690 l 1,17,-1
 534 366 l 1,18,-1
 517 377 l 1,19,-1
 884 377 l 2,20,21
 895 377 895 377 901 372 c 128,-1,22
 907 367 907 367 907 358 c 0,23,24
 907 348 907 348 901 343 c 128,-1,25
 895 338 895 338 884 338 c 2,26,-1
 525 338 l 1,27,-1
 538 348 l 1,28,-1
 607 20 l 1,29,-1
 586 39 l 1,30,-1
 904 39 l 2,31,32
 915 39 915 39 921 34 c 128,-1,33
 927 29 927 29 927 20 c 0,34,35
 927 10 927 10 921 5 c 128,-1,36
 915 0 915 0 904 0 c 2,37,-1
 592 0 l 2,38,39
 572 0 572 0 567 20 c 2,40,-1
 528 207 l 1,41,-1
 548 195 l 1,42,-1
 153 195 l 1,43,-1
 172 207 l 1,44,-1
 55 10 l 2,45,46
 51 2 51 2 45 -2 c 128,-1,47
 39 -6 39 -6 31 -6 c 0,0,1
433 648 m 1,48,-1
 182 224 l 1,49,-1
 173 234 l 1,50,-1
 530 234 l 1,51,-1
 524 225 l 1,52,-1
 435 648 l 1,53,-1
 433 648 l 1,48,-1
EndSplineSet
EndChar

StartChar: B
Encoding: 66 66 30
Width: 666
GlyphClass: 2
Flags: W
AnchorPoint: "Anchor-2" 337 0 basechar 0
AnchorPoint: "Anchor-0" 336 705 basechar 0
LayerCount: 2
Fore
SplineSet
121 0 m 2,0,1
 109 0 109 0 102.5 6.5 c 128,-1,2
 96 13 96 13 96 25 c 2,3,-1
 96 680 l 2,4,5
 96 692 96 692 102.5 698.5 c 128,-1,6
 109 705 109 705 121 705 c 2,7,-1
 354 705 l 2,8,9
 426 705 426 705 476 683.5 c 128,-1,10
 526 662 526 662 552.5 621 c 128,-1,11
 579 580 579 580 579 520 c 0,12,13
 579 453 579 453 539 409 c 128,-1,14
 499 365 499 365 431 351 c 1,15,-1
 431 365 l 1,16,17
 506 358 506 358 550.5 312.5 c 128,-1,18
 595 267 595 267 595 191 c 0,19,20
 595 97 595 97 536 48.5 c 128,-1,21
 477 0 477 0 367 0 c 2,22,-1
 121 0 l 2,0,1
138 39 m 1,23,-1
 366 39 l 2,24,25
 458 39 458 39 504.5 75.5 c 128,-1,26
 551 112 551 112 551 188 c 0,27,28
 551 265 551 265 504.5 301 c 128,-1,29
 458 337 458 337 366 337 c 2,30,-1
 138 337 l 1,31,-1
 138 39 l 1,23,-1
138 376 m 1,32,-1
 351 376 l 2,33,34
 441 376 441 376 488 413.5 c 128,-1,35
 535 451 535 451 535 521 c 0,36,37
 535 592 535 592 488 629 c 128,-1,38
 441 666 441 666 351 666 c 2,39,-1
 138 666 l 1,40,-1
 138 376 l 1,32,-1
EndSplineSet
EndChar

StartChar: uni0181
Encoding: 385 385 31
Width: 767
GlyphClass: 1
Flags: W
LayerCount: 2
Fore
SplineSet
222 0 m 2,0,1
 210 0 210 0 203.5 6.5 c 128,-1,2
 197 13 197 13 197 25 c 2,3,-1
 197 666 l 1,4,-1
 159 666 l 2,5,6
 98 666 98 666 68.5 637.5 c 128,-1,7
 39 609 39 609 39 548 c 2,8,-1
 39 525 l 2,9,10
 39 517 39 517 37 511.5 c 128,-1,11
 35 506 35 506 30.5 503 c 128,-1,12
 26 500 26 500 20 500 c 256,13,14
 14 500 14 500 9.5 503 c 128,-1,15
 5 506 5 506 2.5 511.5 c 128,-1,16
 0 517 0 517 0 525 c 2,17,-1
 0 551 l 2,18,19
 0 628 0 628 41 666.5 c 128,-1,20
 82 705 82 705 170 705 c 2,21,-1
 455 705 l 2,22,23
 527 705 527 705 577 683.5 c 128,-1,24
 627 662 627 662 653.5 621 c 128,-1,25
 680 580 680 580 680 520 c 0,26,27
 680 453 680 453 640 409 c 128,-1,28
 600 365 600 365 532 351 c 1,29,-1
 532 365 l 1,30,31
 607 358 607 358 651.5 312.5 c 128,-1,32
 696 267 696 267 696 191 c 0,33,34
 696 97 696 97 637 48.5 c 128,-1,35
 578 0 578 0 468 0 c 2,36,-1
 222 0 l 2,0,1
239 39 m 1,37,-1
 467 39 l 2,38,39
 559 39 559 39 605.5 75.5 c 128,-1,40
 652 112 652 112 652 188 c 0,41,42
 652 265 652 265 605.5 301 c 128,-1,43
 559 337 559 337 467 337 c 2,44,-1
 239 337 l 1,45,-1
 239 39 l 1,37,-1
239 376 m 1,46,-1
 452 376 l 2,47,48
 542 376 542 376 589 413.5 c 128,-1,49
 636 451 636 451 636 521 c 0,50,51
 636 592 636 592 589 629 c 128,-1,52
 542 666 542 666 452 666 c 2,53,-1
 239 666 l 1,54,-1
 239 376 l 1,46,-1
EndSplineSet
EndChar

StartChar: C
Encoding: 67 67 32
Width: 667
GlyphClass: 2
Flags: W
AnchorPoint: "Anchor-2" 380 0 basechar 0
AnchorPoint: "Anchor-0" 382 705 basechar 0
LayerCount: 2
Fore
SplineSet
381 -8 m 0,0,1
 282 -8 282 -8 212 35.5 c 128,-1,2
 142 79 142 79 104.5 160 c 128,-1,3
 67 241 67 241 67 353 c 0,4,5
 67 437 67 437 88 503.5 c 128,-1,6
 109 570 109 570 149.5 616.5 c 128,-1,7
 190 663 190 663 248.5 688 c 128,-1,8
 307 713 307 713 381 713 c 0,9,10
 449 713 449 713 507.5 692 c 128,-1,11
 566 671 566 671 607 631 c 0,12,13
 614 624 614 624 616 616.5 c 128,-1,14
 618 609 618 609 615.5 603 c 128,-1,15
 613 597 613 597 608 593.5 c 128,-1,16
 603 590 603 590 596 591 c 128,-1,17
 589 592 589 592 581 599 c 0,18,19
 541 636 541 636 491.5 654 c 128,-1,20
 442 672 442 672 380 672 c 0,21,22
 294 672 294 672 234 634.5 c 128,-1,23
 174 597 174 597 143 525.5 c 128,-1,24
 112 454 112 454 112 353 c 0,25,26
 112 251 112 251 143 179.5 c 128,-1,27
 174 108 174 108 234 70.5 c 128,-1,28
 294 33 294 33 380 33 c 0,29,30
 440 33 440 33 490 51.5 c 128,-1,31
 540 70 540 70 581 107 c 0,32,33
 589 114 589 114 596 114.5 c 128,-1,34
 603 115 603 115 608 111.5 c 128,-1,35
 613 108 613 108 615.5 102 c 128,-1,36
 618 96 618 96 617 89 c 128,-1,37
 616 82 616 82 609 76 c 0,38,39
 565 34 565 34 508 13 c 128,-1,40
 451 -8 451 -8 381 -8 c 0,0,1
EndSplineSet
EndChar

StartChar: D
Encoding: 68 68 39
Width: 725
GlyphClass: 2
Flags: W
AnchorPoint: "Anchor-5" 173 358 basechar 0
AnchorPoint: "Anchor-2" 363 0 basechar 0
AnchorPoint: "Anchor-0" 362 705 basechar 0
LayerCount: 2
Fore
SplineSet
121 0 m 2,0,1
 109 0 109 0 102.5 6.5 c 128,-1,2
 96 13 96 13 96 25 c 2,3,-1
 96 680 l 2,4,5
 96 692 96 692 102.5 698.5 c 128,-1,6
 109 705 109 705 121 705 c 2,7,-1
 313 705 l 2,8,9
 479 705 479 705 568.5 615.5 c 128,-1,10
 658 526 658 526 658 353 c 0,11,12
 658 267 658 267 635 201 c 128,-1,13
 612 135 612 135 568 90.5 c 128,-1,14
 524 46 524 46 460 23 c 128,-1,15
 396 0 396 0 313 0 c 2,16,-1
 121 0 l 2,0,1
138 39 m 1,17,-1
 309 39 l 2,18,19
 385 39 385 39 442 59 c 128,-1,20
 499 79 499 79 537 118 c 128,-1,21
 575 157 575 157 594 216 c 128,-1,22
 613 275 613 275 613 353 c 0,23,24
 613 509 613 509 537 587.5 c 128,-1,25
 461 666 461 666 309 666 c 2,26,-1
 138 666 l 1,27,-1
 138 39 l 1,17,-1
EndSplineSet
EndChar

StartChar: uni018A
Encoding: 394 394 45
Width: 826
GlyphClass: 1
Flags: W
LayerCount: 2
Fore
SplineSet
222 0 m 2,0,1
 210 0 210 0 203.5 6.5 c 128,-1,2
 197 13 197 13 197 25 c 2,3,-1
 197 666 l 1,4,-1
 159 666 l 2,5,6
 98 666 98 666 68.5 637.5 c 128,-1,7
 39 609 39 609 39 548 c 2,8,-1
 39 525 l 2,9,10
 39 517 39 517 37 511.5 c 128,-1,11
 35 506 35 506 30.5 503 c 128,-1,12
 26 500 26 500 20 500 c 256,13,14
 14 500 14 500 9.5 503 c 128,-1,15
 5 506 5 506 2.5 511.5 c 128,-1,16
 0 517 0 517 0 525 c 2,17,-1
 0 551 l 2,18,19
 0 628 0 628 40 666.5 c 128,-1,20
 80 705 80 705 160 705 c 2,21,-1
 414 705 l 2,22,23
 580 705 580 705 669.5 615.5 c 128,-1,24
 759 526 759 526 759 353 c 0,25,26
 759 267 759 267 736 201 c 128,-1,27
 713 135 713 135 669 90.5 c 128,-1,28
 625 46 625 46 561 23 c 128,-1,29
 497 0 497 0 414 0 c 2,30,-1
 222 0 l 2,0,1
239 39 m 1,31,-1
 410 39 l 2,32,33
 486 39 486 39 543 59 c 128,-1,34
 600 79 600 79 638 118 c 128,-1,35
 676 157 676 157 695 216 c 128,-1,36
 714 275 714 275 714 353 c 0,37,38
 714 509 714 509 638 587.5 c 128,-1,39
 562 666 562 666 410 666 c 2,40,-1
 239 666 l 1,41,-1
 239 39 l 1,31,-1
EndSplineSet
EndChar

StartChar: E
Encoding: 69 69 48
Width: 570
GlyphClass: 2
Flags: W
AnchorPoint: "Anchor-3" 490 0 basechar 0
AnchorPoint: "Anchor-2" 320 0 basechar 0
AnchorPoint: "Anchor-0" 320 705 basechar 0
LayerCount: 2
Fore
SplineSet
121 0 m 2,0,1
 109 0 109 0 102.5 6.5 c 128,-1,2
 96 13 96 13 96 25 c 2,3,-1
 96 680 l 2,4,5
 96 692 96 692 102.5 698.5 c 128,-1,6
 109 705 109 705 121 705 c 2,7,-1
 505 705 l 2,8,9
 515 705 515 705 520.5 700 c 128,-1,10
 526 695 526 695 526 686 c 0,11,12
 526 676 526 676 520.5 671 c 128,-1,13
 515 666 515 666 505 666 c 2,14,-1
 138 666 l 1,15,-1
 138 377 l 1,16,-1
 485 377 l 2,17,18
 495 377 495 377 500.5 372 c 128,-1,19
 506 367 506 367 506 358 c 0,20,21
 506 348 506 348 500.5 343 c 128,-1,22
 495 338 495 338 485 338 c 2,23,-1
 138 338 l 1,24,-1
 138 39 l 1,25,-1
 505 39 l 2,26,27
 515 39 515 39 520.5 34 c 128,-1,28
 526 29 526 29 526 20 c 0,29,30
 526 10 526 10 520.5 5 c 128,-1,31
 515 0 515 0 505 0 c 2,32,-1
 121 0 l 2,0,1
EndSplineSet
EndChar

StartChar: uni018F
Encoding: 399 399 72
Width: 751
GlyphClass: 2
Flags: W
AnchorPoint: "Anchor-2" 371 0 basechar 0
AnchorPoint: "Anchor-0" 371 705 basechar 0
LayerCount: 2
Fore
SplineSet
380 -8 m 0,0,1
 301 -8 301 -8 242.5 17 c 128,-1,2
 184 42 184 42 145 89 c 128,-1,3
 106 136 106 136 86.5 201.5 c 128,-1,4
 67 267 67 267 67 348 c 0,5,6
 67 363 67 363 72 369.5 c 128,-1,7
 77 376 77 376 89 376 c 2,8,-1
 654 376 l 1,9,-1
 654 337 l 1,10,-1
 99 337 l 1,11,-1
 111 353 l 1,12,13
 111 250 111 250 140.5 178.5 c 128,-1,14
 170 107 170 107 229.5 70 c 128,-1,15
 289 33 289 33 379 33 c 0,16,17
 460 33 460 33 518.5 71 c 128,-1,18
 577 109 577 109 608 180.5 c 128,-1,19
 639 252 639 252 639 353 c 0,20,21
 639 455 639 455 605.5 526 c 128,-1,22
 572 597 572 597 508.5 634.5 c 128,-1,23
 445 672 445 672 354 672 c 0,24,25
 281 672 281 672 227 653.5 c 128,-1,26
 173 635 173 635 126 594 c 0,27,28
 119 588 119 588 113 588 c 128,-1,29
 107 588 107 588 102 591.5 c 128,-1,30
 97 595 97 595 94.5 601 c 128,-1,31
 92 607 92 607 93.5 614 c 128,-1,32
 95 621 95 621 102 627 c 0,33,34
 149 670 149 670 213.5 691.5 c 128,-1,35
 278 713 278 713 355 713 c 0,36,37
 457 713 457 713 530.5 669.5 c 128,-1,38
 604 626 604 626 644 545.5 c 128,-1,39
 684 465 684 465 684 353 c 0,40,41
 684 269 684 269 663 202 c 128,-1,42
 642 135 642 135 602 88.5 c 128,-1,43
 562 42 562 42 506 17 c 128,-1,44
 450 -8 450 -8 380 -8 c 0,0,1
EndSplineSet
EndChar

StartChar: F
Encoding: 70 70 73
Width: 536
GlyphClass: 2
Flags: W
AnchorPoint: "Anchor-2" 293 0 basechar 0
AnchorPoint: "Anchor-0" 293 705 basechar 0
LayerCount: 2
Fore
SplineSet
121 -6 m 0,0,1
 109 -6 109 -6 102.5 0.5 c 128,-1,2
 96 7 96 7 96 19 c 2,3,-1
 96 680 l 2,4,5
 96 692 96 692 102.5 698.5 c 128,-1,6
 109 705 109 705 121 705 c 2,7,-1
 495 705 l 2,8,9
 505 705 505 705 510.5 700 c 128,-1,10
 516 695 516 695 516 686 c 0,11,12
 516 676 516 676 510.5 671 c 128,-1,13
 505 666 505 666 495 666 c 2,14,-1
 138 666 l 1,15,-1
 138 377 l 1,16,-1
 475 377 l 2,17,18
 485 377 485 377 490.5 372 c 128,-1,19
 496 367 496 367 496 358 c 0,20,21
 496 348 496 348 490.5 343 c 128,-1,22
 485 338 485 338 475 338 c 2,23,-1
 138 338 l 1,24,-1
 138 19 l 2,25,26
 138 -6 138 -6 121 -6 c 0,0,1
EndSplineSet
EndChar

StartChar: G
Encoding: 71 71 74
Width: 718
GlyphClass: 2
Flags: W
AnchorPoint: "Anchor-2" 390 0 basechar 0
AnchorPoint: "Anchor-0" 383 705 basechar 0
LayerCount: 2
Fore
SplineSet
402 -8 m 0,0,1
 293 -8 293 -8 218 34.5 c 128,-1,2
 143 77 143 77 105 158 c 128,-1,3
 67 239 67 239 67 353 c 0,4,5
 67 437 67 437 88 503.5 c 128,-1,6
 109 570 109 570 149.5 616.5 c 128,-1,7
 190 663 190 663 248.5 688 c 128,-1,8
 307 713 307 713 381 713 c 0,9,10
 451 713 451 713 512 692 c 128,-1,11
 573 671 573 671 616 627 c 0,12,13
 622 621 622 621 623 614.5 c 128,-1,14
 624 608 624 608 621.5 602 c 128,-1,15
 619 596 619 596 614 592 c 128,-1,16
 609 588 609 588 602.5 588.5 c 128,-1,17
 596 589 596 589 590 595 c 0,18,19
 547 636 547 636 494.5 654 c 128,-1,20
 442 672 442 672 380 672 c 0,21,22
 294 672 294 672 234 634.5 c 128,-1,23
 174 597 174 597 143 525.5 c 128,-1,24
 112 454 112 454 112 353 c 0,25,26
 112 197 112 197 184 115 c 128,-1,27
 256 33 256 33 401 33 c 0,28,29
 457 33 457 33 507 43.5 c 128,-1,30
 557 54 557 54 600 73 c 1,31,-1
 588 35 l 1,32,-1
 588 316 l 1,33,-1
 415 316 l 2,34,35
 405 316 405 316 399.5 321.5 c 128,-1,36
 394 327 394 327 394 336 c 256,37,38
 394 345 394 345 399.5 350 c 128,-1,39
 405 355 405 355 415 355 c 2,40,-1
 607 355 l 2,41,42
 617 355 617 355 622.5 349.5 c 128,-1,43
 628 344 628 344 628 334 c 2,44,-1
 628 57 l 2,45,46
 628 49 628 49 625.5 43 c 128,-1,47
 623 37 623 37 617 34 c 0,48,49
 578 16 578 16 518 4 c 128,-1,50
 458 -8 458 -8 402 -8 c 0,0,1
EndSplineSet
EndChar

StartChar: H
Encoding: 72 72 81
Width: 751
GlyphClass: 2
Flags: W
AnchorPoint: "Anchor-5" 376 546 basechar 0
AnchorPoint: "Anchor-2" 376 0 basechar 0
AnchorPoint: "Anchor-0" 375 705 basechar 0
LayerCount: 2
Fore
SplineSet
117 -6 m 0,0,1
 107 -6 107 -6 101.5 0 c 128,-1,2
 96 6 96 6 96 16 c 2,3,-1
 96 689 l 2,4,5
 96 700 96 700 101.5 705.5 c 128,-1,6
 107 711 107 711 117 711 c 256,7,8
 127 711 127 711 132.5 705.5 c 128,-1,9
 138 700 138 700 138 689 c 2,10,-1
 138 377 l 1,11,-1
 613 377 l 1,12,-1
 613 689 l 2,13,14
 613 700 613 700 618.5 705.5 c 128,-1,15
 624 711 624 711 634 711 c 256,16,17
 644 711 644 711 649.5 705.5 c 128,-1,18
 655 700 655 700 655 689 c 2,19,-1
 655 16 l 2,20,21
 655 6 655 6 649.5 0 c 128,-1,22
 644 -6 644 -6 634 -6 c 256,23,24
 624 -6 624 -6 618.5 0 c 128,-1,25
 613 6 613 6 613 16 c 2,26,-1
 613 338 l 1,27,-1
 138 338 l 1,28,-1
 138 16 l 2,29,30
 138 6 138 6 133 0 c 128,-1,31
 128 -6 128 -6 117 -6 c 0,0,1
EndSplineSet
EndChar

StartChar: Hbar
Encoding: 294 294 82
Width: 781
GlyphClass: 1
Flags: W
LayerCount: 2
Fore
SplineSet
132 -6 m 0,0,1
 122 -6 122 -6 116.5 0 c 128,-1,2
 111 6 111 6 111 16 c 2,3,-1
 111 536 l 1,4,-1
 120 527 l 1,5,-1
 31 527 l 2,6,7
 9 527 9 527 9 546 c 0,8,9
 9 555 9 555 15 560 c 128,-1,10
 21 565 21 565 31 565 c 2,11,-1
 120 565 l 1,12,-1
 111 556 l 1,13,-1
 111 689 l 2,14,15
 111 700 111 700 116.5 705.5 c 128,-1,16
 122 711 122 711 132 711 c 256,17,18
 142 711 142 711 147.5 705.5 c 128,-1,19
 153 700 153 700 153 689 c 2,20,-1
 153 556 l 1,21,-1
 144 565 l 1,22,-1
 637 565 l 1,23,-1
 628 556 l 1,24,-1
 628 689 l 2,25,26
 628 700 628 700 633.5 705.5 c 128,-1,27
 639 711 639 711 649 711 c 256,28,29
 659 711 659 711 664.5 705.5 c 128,-1,30
 670 700 670 700 670 689 c 2,31,-1
 670 556 l 1,32,-1
 661 565 l 1,33,-1
 750 565 l 2,34,35
 772 565 772 565 772 546 c 0,36,37
 772 537 772 537 766.5 532 c 128,-1,38
 761 527 761 527 750 527 c 2,39,-1
 661 527 l 1,40,-1
 670 536 l 1,41,-1
 670 16 l 2,42,43
 670 6 670 6 664.5 0 c 128,-1,44
 659 -6 659 -6 649 -6 c 256,45,46
 639 -6 639 -6 633.5 0 c 128,-1,47
 628 6 628 6 628 16 c 2,48,-1
 628 338 l 1,49,-1
 153 338 l 1,50,-1
 153 16 l 2,51,52
 153 6 153 6 148 0 c 128,-1,53
 143 -6 143 -6 132 -6 c 0,0,1
153 377 m 1,54,-1
 628 377 l 1,55,-1
 628 527 l 1,56,-1
 153 527 l 1,57,-1
 153 377 l 1,54,-1
EndSplineSet
EndChar

StartChar: I
Encoding: 73 73 86
Width: 234
GlyphClass: 2
Flags: W
AnchorPoint: "Anchor-3" 138 0 basechar 0
AnchorPoint: "Anchor-2" 117 0 basechar 0
AnchorPoint: "Anchor-0" 117 705 basechar 0
LayerCount: 2
Fore
SplineSet
117 -6 m 0,0,1
 107 -6 107 -6 101.5 0 c 128,-1,2
 96 6 96 6 96 16 c 2,3,-1
 96 689 l 2,4,5
 96 700 96 700 101.5 705.5 c 128,-1,6
 107 711 107 711 117 711 c 256,7,8
 127 711 127 711 132.5 705.5 c 128,-1,9
 138 700 138 700 138 689 c 2,10,-1
 138 16 l 2,11,12
 138 6 138 6 133 0 c 128,-1,13
 128 -6 128 -6 117 -6 c 0,0,1
EndSplineSet
EndChar

StartChar: Iogonek
Encoding: 302 302 100
Width: 234
GlyphClass: 1
Flags: W
LayerCount: 2
Fore
SplineSet
121 -190 m 0,0,1
 80 -190 80 -190 53.5 -165 c 128,-1,2
 27 -140 27 -140 27 -98 c 0,3,4
 27 -64 27 -64 46.5 -32 c 128,-1,5
 66 0 66 0 102 22 c 1,6,-1
 97 8 l 1,7,8
 96 10 96 10 96 13 c 128,-1,9
 96 16 96 16 96 17 c 2,10,-1
 96 689 l 2,11,12
 96 700 96 700 101.5 705.5 c 128,-1,13
 107 711 107 711 117 711 c 256,14,15
 127 711 127 711 132.5 705.5 c 128,-1,16
 138 700 138 700 138 689 c 2,17,-1
 138 16 l 2,18,19
 138 9 138 9 135 3.5 c 128,-1,20
 132 -2 132 -2 127 -5 c 0,21,22
 105 -18 105 -18 85.5 -40 c 128,-1,23
 66 -62 66 -62 66 -94 c 0,24,25
 66 -125 66 -125 83.5 -139.5 c 128,-1,26
 101 -154 101 -154 126 -154 c 0,27,28
 137 -154 137 -154 146.5 -152 c 128,-1,29
 156 -150 156 -150 165 -147 c 0,30,31
 175 -144 175 -144 180.5 -147.5 c 128,-1,32
 186 -151 186 -151 187.5 -158 c 128,-1,33
 189 -165 189 -165 186 -171.5 c 128,-1,34
 183 -178 183 -178 176 -181 c 0,35,36
 162 -186 162 -186 148.5 -188 c 128,-1,37
 135 -190 135 -190 121 -190 c 0,0,1
EndSplineSet
EndChar

StartChar: J
Encoding: 74 74 102
Width: 297
GlyphClass: 2
Flags: W
AnchorPoint: "Anchor-2" 181 0 basechar 0
AnchorPoint: "Anchor-0" 180 705 basechar 0
LayerCount: 2
Fore
SplineSet
12 -5 m 2,0,1
 1 -6 1 -6 -5 0.5 c 128,-1,2
 -11 7 -11 7 -11 15 c 0,3,4
 -11 21 -11 21 -6.5 26.5 c 128,-1,5
 -2 32 -2 32 8 33 c 2,6,-1
 41 36 l 2,7,8
 97 41 97 41 128 79 c 128,-1,9
 159 117 159 117 159 179 c 2,10,-1
 159 689 l 2,11,12
 159 700 159 700 164.5 705.5 c 128,-1,13
 170 711 170 711 180 711 c 256,14,15
 190 711 190 711 195.5 705.5 c 128,-1,16
 201 700 201 700 201 689 c 2,17,-1
 201 177 l 2,18,19
 201 124 201 124 183 85.5 c 128,-1,20
 165 47 165 47 130 25 c 128,-1,21
 95 3 95 3 44 -2 c 2,22,-1
 12 -5 l 2,0,1
EndSplineSet
EndChar

StartChar: K
Encoding: 75 75 104
Width: 590
GlyphClass: 2
Flags: W
AnchorPoint: "Anchor-2" 302 0 basechar 0
AnchorPoint: "Anchor-0" 301 705 basechar 0
LayerCount: 2
Fore
SplineSet
117 -6 m 0,0,1
 107 -6 107 -6 101.5 0 c 128,-1,2
 96 6 96 6 96 16 c 2,3,-1
 96 689 l 2,4,5
 96 700 96 700 101.5 705.5 c 128,-1,6
 107 711 107 711 117 711 c 256,7,8
 127 711 127 711 132.5 705.5 c 128,-1,9
 138 700 138 700 138 689 c 2,10,-1
 138 377 l 1,11,-1
 140 377 l 1,12,-1
 499 696 l 2,13,14
 509 704 509 704 517 707.5 c 128,-1,15
 525 711 525 711 533 711 c 0,16,17
 543 711 543 711 548 707 c 128,-1,18
 553 703 553 703 552 696.5 c 128,-1,19
 551 690 551 690 543 683 c 2,20,-1
 158 342 l 1,21,-1
 160 374 l 1,22,-1
 561 28 l 2,23,24
 571 20 571 20 572 12 c 128,-1,25
 573 4 573 4 567.5 -1 c 128,-1,26
 562 -6 562 -6 552 -6 c 0,27,28
 544 -6 544 -6 537 -2.5 c 128,-1,29
 530 1 530 1 522 8 c 2,30,-1
 140 338 l 1,31,-1
 138 338 l 1,32,-1
 138 16 l 2,33,34
 138 6 138 6 133 0 c 128,-1,35
 128 -6 128 -6 117 -6 c 0,0,1
EndSplineSet
EndChar

StartChar: L
Encoding: 76 76 106
Width: 527
GlyphClass: 2
Flags: W
AnchorPoint: "Anchor-5" 161 387 basechar 0
AnchorPoint: "Anchor-2" 305 0 basechar 0
AnchorPoint: "Anchor-1" 260 705 basechar 0
AnchorPoint: "Anchor-0" 117 705 basechar 0
LayerCount: 2
Fore
SplineSet
118 0 m 2,0,1
 108 0 108 0 102 6 c 128,-1,2
 96 12 96 12 96 22 c 2,3,-1
 96 689 l 2,4,5
 96 700 96 700 101.5 705.5 c 128,-1,6
 107 711 107 711 117 711 c 256,7,8
 127 711 127 711 132.5 705.5 c 128,-1,9
 138 700 138 700 138 689 c 2,10,-1
 138 39 l 1,11,-1
 498 39 l 2,12,13
 509 39 509 39 514.5 34 c 128,-1,14
 520 29 520 29 520 20 c 0,15,16
 520 10 520 10 514.5 5 c 128,-1,17
 509 0 509 0 498 0 c 2,18,-1
 118 0 l 2,0,1
EndSplineSet
EndChar

StartChar: M
Encoding: 77 77 116
Width: 844
GlyphClass: 2
Flags: W
AnchorPoint: "Anchor-2" 422 0 basechar 0
AnchorPoint: "Anchor-0" 422 705 basechar 0
LayerCount: 2
Fore
SplineSet
118 -6 m 256,0,1
 109 -6 109 -6 103.5 0 c 128,-1,2
 98 6 98 6 98 16 c 2,3,-1
 98 689 l 2,4,5
 98 700 98 700 103 705.5 c 128,-1,6
 108 711 108 711 116 711 c 0,7,8
 125 711 125 711 130 707 c 128,-1,9
 135 703 135 703 139 695 c 2,10,-1
 437 127 l 1,11,-1
 409 127 l 1,12,-1
 705 695 l 2,13,14
 710 703 710 703 714.5 707 c 128,-1,15
 719 711 719 711 728 711 c 0,16,17
 736 711 736 711 741 705.5 c 128,-1,18
 746 700 746 700 746 689 c 2,19,-1
 746 16 l 2,20,21
 746 6 746 6 741 0 c 128,-1,22
 736 -6 736 -6 727 -6 c 0,23,24
 717 -6 717 -6 712 0 c 128,-1,25
 707 6 707 6 707 16 c 2,26,-1
 707 665 l 1,27,-1
 731 665 l 1,28,-1
 446 120 l 2,29,30
 442 112 442 112 437.5 108 c 128,-1,31
 433 104 433 104 424 104 c 256,32,33
 415 104 415 104 410 108.5 c 128,-1,34
 405 113 405 113 401 120 c 2,35,-1
 112 666 l 1,36,-1
 137 666 l 1,37,-1
 137 16 l 2,38,39
 137 6 137 6 132 0 c 128,-1,40
 127 -6 127 -6 118 -6 c 256,0,1
EndSplineSet
EndChar

StartChar: N
Encoding: 78 78 118
Width: 732
GlyphClass: 2
Flags: W
AnchorPoint: "Anchor-2" 366 0 basechar 0
AnchorPoint: "Anchor-0" 366 705 basechar 0
LayerCount: 2
Fore
SplineSet
116 -6 m 256,0,1
 107 -6 107 -6 101.5 0 c 128,-1,2
 96 6 96 6 96 16 c 2,3,-1
 96 688 l 2,4,5
 96 699 96 699 101 705 c 128,-1,6
 106 711 106 711 114 711 c 0,7,8
 123 711 123 711 127.5 708 c 128,-1,9
 132 705 132 705 137 697 c 2,10,-1
 619 42 l 1,11,-1
 597 42 l 1,12,-1
 597 689 l 2,13,14
 597 700 597 700 602.5 705.5 c 128,-1,15
 608 711 608 711 617 711 c 256,16,17
 626 711 626 711 631 705.5 c 128,-1,18
 636 700 636 700 636 689 c 2,19,-1
 636 17 l 2,20,21
 636 6 636 6 631.5 0 c 128,-1,22
 627 -6 627 -6 619 -6 c 0,23,24
 612 -6 612 -6 606.5 -2.5 c 128,-1,25
 601 1 601 1 596 8 c 2,26,-1
 114 663 l 1,27,-1
 135 663 l 1,28,-1
 135 16 l 2,29,30
 135 6 135 6 130 0 c 128,-1,31
 125 -6 125 -6 116 -6 c 256,0,1
EndSplineSet
EndChar

StartChar: Eng
Encoding: 330 330 128
Width: 732
GlyphClass: 2
Flags: W
AnchorPoint: "Anchor-2" 366 0 basechar 0
AnchorPoint: "Anchor-0" 366 705 basechar 0
LayerCount: 2
Fore
SplineSet
470 -192 m 0,0,1
 461 -192 461 -192 455.5 -188.5 c 128,-1,2
 450 -185 450 -185 448 -179 c 128,-1,3
 446 -173 446 -173 447 -167.5 c 128,-1,4
 448 -162 448 -162 453 -158 c 128,-1,5
 458 -154 458 -154 467 -154 c 0,6,7
 531 -152 531 -152 564 -121.5 c 128,-1,8
 597 -91 597 -91 597 -22 c 2,9,-1
 597 25 l 1,10,-1
 602 0 l 1,11,-1
 114 663 l 1,12,-1
 135 663 l 1,13,-1
 135 16 l 2,14,15
 135 6 135 6 130 0 c 128,-1,16
 125 -6 125 -6 116 -6 c 256,17,18
 107 -6 107 -6 101.5 0 c 128,-1,19
 96 6 96 6 96 16 c 2,20,-1
 96 688 l 2,21,22
 96 699 96 699 101 705 c 128,-1,23
 106 711 106 711 114 711 c 0,24,25
 123 711 123 711 127.5 708 c 128,-1,26
 132 705 132 705 137 697 c 2,27,-1
 619 42 l 1,28,-1
 597 42 l 1,29,-1
 597 689 l 2,30,31
 597 700 597 700 602.5 705.5 c 128,-1,32
 608 711 608 711 617 711 c 256,33,34
 626 711 626 711 631 705.5 c 128,-1,35
 636 700 636 700 636 689 c 2,36,-1
 636 -21 l 2,37,38
 636 -109 636 -109 591 -150.5 c 128,-1,39
 546 -192 546 -192 470 -192 c 0,0,1
EndSplineSet
EndChar

StartChar: O
Encoding: 79 79 129
Width: 751
GlyphClass: 2
Flags: W
AnchorPoint: "Anchor-5" 376 353 basechar 0
AnchorPoint: "Anchor-3" 430 0 basechar 0
AnchorPoint: "Anchor-2" 375 0 basechar 0
AnchorPoint: "Anchor-1" 448 705 basechar 0
AnchorPoint: "Anchor-0" 375 705 basechar 0
LayerCount: 2
Fore
SplineSet
375 -8 m 0,0,1
 280 -8 280 -8 211 36 c 128,-1,2
 142 80 142 80 104.5 161 c 128,-1,3
 67 242 67 242 67 353 c 0,4,5
 67 437 67 437 88 503.5 c 128,-1,6
 109 570 109 570 149 616.5 c 128,-1,7
 189 663 189 663 246 688 c 128,-1,8
 303 713 303 713 375 713 c 0,9,10
 471 713 471 713 540.5 669.5 c 128,-1,11
 610 626 610 626 647 545.5 c 128,-1,12
 684 465 684 465 684 354 c 0,13,14
 684 270 684 270 662.5 203 c 128,-1,15
 641 136 641 136 601 89 c 128,-1,16
 561 42 561 42 504 17 c 128,-1,17
 447 -8 447 -8 375 -8 c 0,0,1
375 33 m 0,18,19
 459 33 459 33 518 70.5 c 128,-1,20
 577 108 577 108 608 179.5 c 128,-1,21
 639 251 639 251 639 353 c 0,22,23
 639 505 639 505 570.5 588.5 c 128,-1,24
 502 672 502 672 375 672 c 0,25,26
 292 672 292 672 233 634.5 c 128,-1,27
 174 597 174 597 143 525.5 c 128,-1,28
 112 454 112 454 112 353 c 0,29,30
 112 202 112 202 181 117.5 c 128,-1,31
 250 33 250 33 375 33 c 0,18,19
EndSplineSet
Substitution2: "Single Substitution lookup 29 subtable" ordmasculine
Substitution2: "'aalt' Access All Alternates lookup 0 subtable" ordmasculine
EndChar

StartChar: OE
Encoding: 338 338 163
Width: 1038
GlyphClass: 2
Flags: W
AnchorPoint: "Anchor-2" 585 0 basechar 0
AnchorPoint: "Anchor-0" 585 705 basechar 0
LayerCount: 2
Fore
SplineSet
412 0 m 2,0,1
 246 0 246 0 156.5 90.5 c 128,-1,2
 67 181 67 181 67 353 c 0,3,4
 67 439 67 439 90 505 c 128,-1,5
 113 571 113 571 157 615.5 c 128,-1,6
 201 660 201 660 265 682.5 c 128,-1,7
 329 705 329 705 412 705 c 2,8,-1
 973 705 l 2,9,10
 983 705 983 705 988.5 700 c 128,-1,11
 994 695 994 695 994 686 c 0,12,13
 994 676 994 676 988.5 671 c 128,-1,14
 983 666 983 666 973 666 c 2,15,-1
 606 666 l 1,16,-1
 606 377 l 1,17,-1
 953 377 l 2,18,19
 963 377 963 377 968.5 372 c 128,-1,20
 974 367 974 367 974 358 c 0,21,22
 974 348 974 348 968.5 343 c 128,-1,23
 963 338 963 338 953 338 c 2,24,-1
 606 338 l 1,25,-1
 606 39 l 1,26,-1
 973 39 l 2,27,28
 983 39 983 39 988.5 34 c 128,-1,29
 994 29 994 29 994 20 c 0,30,31
 994 10 994 10 988.5 5 c 128,-1,32
 983 0 983 0 973 0 c 2,33,-1
 412 0 l 2,0,1
416 39 m 2,34,-1
 564 39 l 1,35,-1
 564 666 l 1,36,-1
 416 666 l 2,37,38
 340 666 340 666 283 646.5 c 128,-1,39
 226 627 226 627 188 587.5 c 128,-1,40
 150 548 150 548 131 489.5 c 128,-1,41
 112 431 112 431 112 353 c 0,42,43
 112 197 112 197 188 118 c 128,-1,44
 264 39 264 39 416 39 c 2,34,-1
EndSplineSet
EndChar

StartChar: P
Encoding: 80 80 164
Width: 616
GlyphClass: 2
Flags: W
AnchorPoint: "Anchor-2" 316 0 basechar 0
AnchorPoint: "Anchor-0" 316 705 basechar 0
LayerCount: 2
Fore
SplineSet
117 -6 m 0,0,1
 107 -6 107 -6 101.5 0 c 128,-1,2
 96 6 96 6 96 16 c 2,3,-1
 96 683 l 2,4,5
 96 694 96 694 102 699.5 c 128,-1,6
 108 705 108 705 118 705 c 2,7,-1
 351 705 l 2,8,9
 462 705 462 705 521 652 c 128,-1,10
 580 599 580 599 580 501 c 256,11,12
 580 403 580 403 521 350 c 128,-1,13
 462 297 462 297 351 297 c 2,14,-1
 138 297 l 1,15,-1
 138 16 l 2,16,17
 138 6 138 6 133 0 c 128,-1,18
 128 -6 128 -6 117 -6 c 0,0,1
138 336 m 1,19,-1
 350 336 l 2,20,21
 443 336 443 336 489.5 378 c 128,-1,22
 536 420 536 420 536 501 c 256,23,24
 536 582 536 582 489.5 624 c 128,-1,25
 443 666 443 666 350 666 c 2,26,-1
 138 666 l 1,27,-1
 138 336 l 1,19,-1
EndSplineSet
EndChar

StartChar: Thorn
Encoding: 222 222 165
Width: 616
GlyphClass: 2
Flags: W
AnchorPoint: "Anchor-2" 316 0 basechar 0
AnchorPoint: "Anchor-0" 316 705 basechar 0
LayerCount: 2
Fore
SplineSet
117 -6 m 0,0,1
 107 -6 107 -6 101.5 0 c 128,-1,2
 96 6 96 6 96 16 c 2,3,-1
 96 689 l 2,4,5
 96 700 96 700 101.5 705.5 c 128,-1,6
 107 711 107 711 117 711 c 256,7,8
 127 711 127 711 132.5 705.5 c 128,-1,9
 138 700 138 700 138 689 c 2,10,-1
 138 569 l 1,11,-1
 351 569 l 2,12,13
 462 569 462 569 521 516 c 128,-1,14
 580 463 580 463 580 365 c 256,15,16
 580 267 580 267 521 214 c 128,-1,17
 462 161 462 161 351 161 c 2,18,-1
 138 161 l 1,19,-1
 138 16 l 2,20,21
 138 6 138 6 133 0 c 128,-1,22
 128 -6 128 -6 117 -6 c 0,0,1
138 200 m 1,23,-1
 350 200 l 2,24,25
 443 200 443 200 489.5 242 c 128,-1,26
 536 284 536 284 536 365 c 256,27,28
 536 446 536 446 489.5 488 c 128,-1,29
 443 530 443 530 350 530 c 2,30,-1
 138 530 l 1,31,-1
 138 200 l 1,23,-1
EndSplineSet
EndChar

StartChar: Q
Encoding: 81 81 166
Width: 751
GlyphClass: 2
Flags: W
AnchorPoint: "Anchor-5" 376 353 basechar 0
AnchorPoint: "Anchor-3" 430 0 basechar 0
AnchorPoint: "Anchor-2" 377 0 basechar 0
AnchorPoint: "Anchor-1" 448 705 basechar 0
AnchorPoint: "Anchor-0" 377 705 basechar 0
LayerCount: 2
Fore
SplineSet
595 -150 m 2,0,1
 601 -159 601 -159 601 -166.5 c 128,-1,2
 601 -174 601 -174 597 -179 c 128,-1,3
 593 -184 593 -184 586.5 -185.5 c 128,-1,4
 580 -187 580 -187 573.5 -183.5 c 128,-1,5
 567 -180 567 -180 561 -171 c 2,6,-1
 501 -74 l 2,7,8
 482 -42 482 -42 450 -25 c 128,-1,9
 418 -8 418 -8 375 -8 c 1,10,-1
 415 12 l 1,11,12
 463 12 463 12 489.5 -4.5 c 128,-1,13
 516 -21 516 -21 544 -68 c 2,14,-1
 595 -150 l 2,0,1
375 -8 m 0,15,16
 280 -8 280 -8 211 36 c 128,-1,17
 142 80 142 80 104.5 161 c 128,-1,18
 67 242 67 242 67 353 c 0,19,20
 67 437 67 437 88 503.5 c 128,-1,21
 109 570 109 570 149 616.5 c 128,-1,22
 189 663 189 663 246 688 c 128,-1,23
 303 713 303 713 375 713 c 0,24,25
 471 713 471 713 540.5 669.5 c 128,-1,26
 610 626 610 626 647 545.5 c 128,-1,27
 684 465 684 465 684 354 c 0,28,29
 684 270 684 270 662.5 203 c 128,-1,30
 641 136 641 136 601 89 c 128,-1,31
 561 42 561 42 504 17 c 128,-1,32
 447 -8 447 -8 375 -8 c 0,15,16
375 33 m 0,33,34
 459 33 459 33 518 70.5 c 128,-1,35
 577 108 577 108 608 179.5 c 128,-1,36
 639 251 639 251 639 353 c 0,37,38
 639 505 639 505 570.5 588.5 c 128,-1,39
 502 672 502 672 375 672 c 0,40,41
 292 672 292 672 233 634.5 c 128,-1,42
 174 597 174 597 143 525.5 c 128,-1,43
 112 454 112 454 112 353 c 0,44,45
 112 202 112 202 181 117.5 c 128,-1,46
 250 33 250 33 375 33 c 0,33,34
EndSplineSet
EndChar

StartChar: R
Encoding: 82 82 167
Width: 654
GlyphClass: 2
Flags: W
AnchorPoint: "Anchor-2" 334 0 basechar 0
AnchorPoint: "Anchor-0" 334 705 basechar 0
LayerCount: 2
Fore
SplineSet
117 -6 m 0,0,1
 107 -6 107 -6 101.5 0 c 128,-1,2
 96 6 96 6 96 16 c 2,3,-1
 96 683 l 2,4,5
 96 694 96 694 102 699.5 c 128,-1,6
 108 705 108 705 118 705 c 2,7,-1
 351 705 l 2,8,9
 462 705 462 705 521 654 c 128,-1,10
 580 603 580 603 580 508 c 0,11,12
 580 447 580 447 553 403.5 c 128,-1,13
 526 360 526 360 474.5 337.5 c 128,-1,14
 423 315 423 315 351 315 c 1,15,-1
 362 327 l 1,16,-1
 370 327 l 2,17,18
 408 327 408 327 435.5 307 c 128,-1,19
 463 287 463 287 487 242 c 2,20,-1
 602 28 l 2,21,22
 607 20 607 20 606.5 12 c 128,-1,23
 606 4 606 4 601.5 -1 c 128,-1,24
 597 -6 597 -6 590 -6 c 0,25,26
 581 -6 581 -6 575.5 -1.5 c 128,-1,27
 570 3 570 3 566 10 c 2,28,-1
 450 226 l 2,29,30
 422 278 422 278 388 295 c 128,-1,31
 354 312 354 312 295 312 c 2,32,-1
 138 312 l 1,33,-1
 138 16 l 2,34,35
 138 6 138 6 133 0 c 128,-1,36
 128 -6 128 -6 117 -6 c 0,0,1
138 351 m 1,37,-1
 347 351 l 2,38,39
 442 351 442 351 489 391 c 128,-1,40
 536 431 536 431 536 509 c 0,41,42
 536 586 536 586 489 626 c 128,-1,43
 442 666 442 666 347 666 c 2,44,-1
 138 666 l 1,45,-1
 138 351 l 1,37,-1
EndSplineSet
EndChar

StartChar: S
Encoding: 83 83 175
Width: 600
GlyphClass: 2
Flags: W
AnchorPoint: "Anchor-2" 310 0 basechar 0
AnchorPoint: "Anchor-0" 304 705 basechar 0
LayerCount: 2
Fore
SplineSet
310 -8 m 0,0,1
 260 -8 260 -8 215 1 c 128,-1,2
 170 10 170 10 131.5 27 c 128,-1,3
 93 44 93 44 62 69 c 0,4,5
 55 75 55 75 52.5 82 c 128,-1,6
 50 89 50 89 52.5 95.5 c 128,-1,7
 55 102 55 102 60 106 c 128,-1,8
 65 110 65 110 72 110 c 128,-1,9
 79 110 79 110 86 104 c 0,10,11
 133 67 133 67 185.5 50 c 128,-1,12
 238 33 238 33 310 33 c 0,13,14
 410 33 410 33 460.5 73 c 128,-1,15
 511 113 511 113 511 179 c 0,16,17
 511 233 511 233 474 263.5 c 128,-1,18
 437 294 437 294 353 311 c 2,19,-1
 254 331 l 2,20,21
 160 350 160 350 114 394 c 128,-1,22
 68 438 68 438 68 513 c 0,23,24
 68 558 68 558 85.5 594.5 c 128,-1,25
 103 631 103 631 135 657.5 c 128,-1,26
 167 684 167 684 211 698.5 c 128,-1,27
 255 713 255 713 308 713 c 0,28,29
 374 713 374 713 429 693.5 c 128,-1,30
 484 674 484 674 529 633 c 0,31,32
 536 627 536 627 538 619.5 c 128,-1,33
 540 612 540 612 537.5 605.5 c 128,-1,34
 535 599 535 599 530.5 595.5 c 128,-1,35
 526 592 526 592 519 592 c 128,-1,36
 512 592 512 592 505 599 c 0,37,38
 462 637 462 637 414 654.5 c 128,-1,39
 366 672 366 672 308 672 c 0,40,41
 249 672 249 672 205 652.5 c 128,-1,42
 161 633 161 633 136.5 597 c 128,-1,43
 112 561 112 561 112 513 c 0,44,45
 112 455 112 455 146 421.5 c 128,-1,46
 180 388 180 388 256 373 c 2,47,-1
 355 353 l 2,48,49
 457 332 457 332 506 291.5 c 128,-1,50
 555 251 555 251 555 180 c 0,51,52
 555 138 555 138 538 103.5 c 128,-1,53
 521 69 521 69 489.5 44 c 128,-1,54
 458 19 458 19 412.5 5.5 c 128,-1,55
 367 -8 367 -8 310 -8 c 0,0,1
EndSplineSet
EndChar

StartChar: uni1E9E
Encoding: 7838 7838 186
Width: 697
GlyphClass: 1
Flags: W
LayerCount: 2
Fore
SplineSet
413 -8 m 0,0,1
 358 -8 358 -8 309.5 7 c 128,-1,2
 261 22 261 22 226 51 c 0,3,4
 220 56 220 56 218 62.5 c 128,-1,5
 216 69 216 69 218.5 75.5 c 128,-1,6
 221 82 221 82 225.5 86 c 128,-1,7
 230 90 230 90 237 90 c 128,-1,8
 244 90 244 90 251 84 c 0,9,10
 286 56 286 56 326.5 44 c 128,-1,11
 367 32 367 32 413 32 c 0,12,13
 496 32 496 32 539 73 c 128,-1,14
 582 114 582 114 582 186 c 0,15,16
 582 257 582 257 537.5 296 c 128,-1,17
 493 335 493 335 402 335 c 2,18,-1
 271 335 l 2,19,20
 261 335 261 335 255 340.5 c 128,-1,21
 249 346 249 346 249 355 c 256,22,23
 249 364 249 364 255 369 c 128,-1,24
 261 374 261 374 271 374 c 2,25,-1
 375 374 l 2,26,27
 452 374 452 374 498 412.5 c 128,-1,28
 544 451 544 451 544 524 c 256,29,30
 544 597 544 597 496 635 c 128,-1,31
 448 673 448 673 359 673 c 0,32,33
 251 673 251 673 194.5 621.5 c 128,-1,34
 138 570 138 570 138 467 c 2,35,-1
 138 16 l 2,36,37
 138 6 138 6 132.5 0 c 128,-1,38
 127 -6 127 -6 117 -6 c 256,39,40
 107 -6 107 -6 101.5 0 c 128,-1,41
 96 6 96 6 96 16 c 2,42,-1
 96 470 l 2,43,44
 96 550 96 550 127.5 604 c 128,-1,45
 159 658 159 658 218 685.5 c 128,-1,46
 277 713 277 713 358 713 c 0,47,48
 428 713 428 713 479.5 690.5 c 128,-1,49
 531 668 531 668 559.5 627 c 128,-1,50
 588 586 588 586 588 529 c 0,51,52
 588 462 588 462 552.5 414 c 128,-1,53
 517 366 517 366 456 353 c 1,54,-1
 456 367 l 1,55,56
 508 361 508 361 546 337.5 c 128,-1,57
 584 314 584 314 605 276 c 128,-1,58
 626 238 626 238 626 186 c 0,59,60
 626 124 626 124 600.5 80.5 c 128,-1,61
 575 37 575 37 527.5 14.5 c 128,-1,62
 480 -8 480 -8 413 -8 c 0,0,1
EndSplineSet
EndChar

StartChar: T
Encoding: 84 84 187
Width: 586
GlyphClass: 2
Flags: W
AnchorPoint: "Anchor-5" 293 358 basechar 0
AnchorPoint: "Anchor-2" 293 0 basechar 0
AnchorPoint: "Anchor-0" 293 705 basechar 0
LayerCount: 2
Fore
SplineSet
293 -6 m 0,0,1
 283 -6 283 -6 277.5 0 c 128,-1,2
 272 6 272 6 272 16 c 2,3,-1
 272 666 l 1,4,-1
 19 666 l 2,5,6
 9 666 9 666 3 671.5 c 128,-1,7
 -3 677 -3 677 -3 686 c 256,8,9
 -3 695 -3 695 3 700 c 128,-1,10
 9 705 9 705 19 705 c 2,11,-1
 567 705 l 2,12,13
 578 705 578 705 583.5 700 c 128,-1,14
 589 695 589 695 589 686 c 0,15,16
 589 676 589 676 583.5 671 c 128,-1,17
 578 666 578 666 567 666 c 2,18,-1
 314 666 l 1,19,-1
 314 16 l 2,20,21
 314 6 314 6 309 0 c 128,-1,22
 304 -6 304 -6 293 -6 c 0,0,1
EndSplineSet
EndChar

StartChar: U
Encoding: 85 85 194
Width: 720
GlyphClass: 2
Flags: W
AnchorPoint: "Anchor-3" 417 0 basechar 0
AnchorPoint: "Anchor-2" 360 0 basechar 0
AnchorPoint: "Anchor-1" 588 705 basechar 0
AnchorPoint: "Anchor-0" 360 705 basechar 0
LayerCount: 2
Fore
SplineSet
360 -8 m 0,0,1
 294 -8 294 -8 243.5 10 c 128,-1,2
 193 28 193 28 159.5 63.5 c 128,-1,3
 126 99 126 99 108.5 151 c 128,-1,4
 91 203 91 203 91 271 c 2,5,-1
 91 689 l 2,6,7
 91 700 91 700 96.5 705.5 c 128,-1,8
 102 711 102 711 112 711 c 256,9,10
 122 711 122 711 127.5 705.5 c 128,-1,11
 133 700 133 700 133 689 c 2,12,-1
 133 277 l 2,13,14
 133 154 133 154 190.5 93.5 c 128,-1,15
 248 33 248 33 360 33 c 0,16,17
 473 33 473 33 530 93.5 c 128,-1,18
 587 154 587 154 587 277 c 2,19,-1
 587 689 l 2,20,21
 587 700 587 700 592.5 705.5 c 128,-1,22
 598 711 598 711 608 711 c 256,23,24
 618 711 618 711 623.5 705.5 c 128,-1,25
 629 700 629 700 629 689 c 2,26,-1
 629 271 l 2,27,28
 629 181 629 181 598.5 118.5 c 128,-1,29
 568 56 568 56 508 24 c 128,-1,30
 448 -8 448 -8 360 -8 c 0,0,1
EndSplineSet
EndChar

StartChar: V
Encoding: 86 86 217
Width: 667
GlyphClass: 2
Flags: W
AnchorPoint: "Anchor-2" 334 0 basechar 0
AnchorPoint: "Anchor-0" 333 705 basechar 0
LayerCount: 2
Fore
SplineSet
334 -6 m 256,0,1
 323 -6 323 -6 316 0 c 128,-1,2
 309 6 309 6 304 17 c 2,3,-1
 17 685 l 2,4,5
 14 694 14 694 15.5 699.5 c 128,-1,6
 17 705 17 705 22.5 708 c 128,-1,7
 28 711 28 711 35 711 c 0,8,9
 44 711 44 711 49 706.5 c 128,-1,10
 54 702 54 702 58 694 c 2,11,-1
 346 24 l 1,12,-1
 323 24 l 1,13,-1
 610 694 l 2,14,15
 614 702 614 702 619.5 706.5 c 128,-1,16
 625 711 625 711 634 711 c 0,17,18
 642 711 642 711 646.5 707.5 c 128,-1,19
 651 704 651 704 652 698.5 c 128,-1,20
 653 693 653 693 650 685 c 2,21,-1
 363 17 l 2,22,23
 359 6 359 6 352 0 c 128,-1,24
 345 -6 345 -6 334 -6 c 256,0,1
EndSplineSet
EndChar

StartChar: W
Encoding: 87 87 218
Width: 1091
GlyphClass: 2
Flags: W
AnchorPoint: "Anchor-2" 546 0 basechar 0
AnchorPoint: "Anchor-0" 545 705 basechar 0
LayerCount: 2
Fore
SplineSet
303 -6 m 0,0,1
 293 -6 293 -6 287 0 c 128,-1,2
 281 6 281 6 276 18 c 2,3,-1
 45 685 l 2,4,5
 41 696 41 696 46.5 703.5 c 128,-1,6
 52 711 52 711 63 711 c 0,7,8
 72 711 72 711 77.5 706.5 c 128,-1,9
 83 702 83 702 87 691 c 2,10,-1
 318 19 l 1,11,-1
 288 19 l 1,12,-1
 519 687 l 2,13,14
 524 699 524 699 529.5 705 c 128,-1,15
 535 711 535 711 545 711 c 256,16,17
 555 711 555 711 560.5 705 c 128,-1,18
 566 699 566 699 570 687 c 2,19,-1
 801 19 l 1,20,-1
 773 19 l 1,21,-1
 1005 691 l 2,22,23
 1008 701 1008 701 1014 706 c 128,-1,24
 1020 711 1020 711 1030 711 c 0,25,26
 1041 711 1041 711 1046 704 c 128,-1,27
 1051 697 1051 697 1046 685 c 2,28,-1
 815 18 l 2,29,30
 811 6 811 6 805 0 c 128,-1,31
 799 -6 799 -6 788 -6 c 256,32,33
 777 -6 777 -6 771 0 c 128,-1,34
 765 6 765 6 760 18 c 2,35,-1
 535 671 l 1,36,-1
 555 671 l 1,37,-1
 329 18 l 2,38,39
 325 6 325 6 319.5 0 c 128,-1,40
 314 -6 314 -6 303 -6 c 0,0,1
EndSplineSet
EndChar

StartChar: X
Encoding: 88 88 223
Width: 631
GlyphClass: 2
Flags: W
AnchorPoint: "Anchor-2" 316 0 basechar 0
AnchorPoint: "Anchor-0" 316 705 basechar 0
LayerCount: 2
Fore
SplineSet
57 -6 m 0,0,1
 48 -6 48 -6 42.5 -1.5 c 128,-1,2
 37 3 37 3 36.5 9.5 c 128,-1,3
 36 16 36 16 41 23 c 2,4,-1
 295 367 l 1,5,-1
 295 357 l 1,6,-1
 58 679 l 2,7,8
 52 688 52 688 52.5 695 c 128,-1,9
 53 702 53 702 58.5 706.5 c 128,-1,10
 64 711 64 711 71 711 c 0,11,12
 79 711 79 711 84.5 708 c 128,-1,13
 90 705 90 705 95 697 c 2,14,-1
 323 387 l 1,15,-1
 311 387 l 1,16,-1
 536 697 l 2,17,18
 541 705 541 705 546.5 708 c 128,-1,19
 552 711 552 711 560 711 c 256,20,21
 568 711 568 711 573 706.5 c 128,-1,22
 578 702 578 702 578.5 695 c 128,-1,23
 579 688 579 688 573 679 c 2,24,-1
 336 357 l 1,25,-1
 336 367 l 1,26,-1
 590 23 l 2,27,28
 595 16 595 16 594.5 9.5 c 128,-1,29
 594 3 594 3 588.5 -1.5 c 128,-1,30
 583 -6 583 -6 574 -6 c 0,31,32
 568 -6 568 -6 561.5 -2.5 c 128,-1,33
 555 1 555 1 550 8 c 2,34,-1
 305 342 l 1,35,-1
 326 342 l 1,36,-1
 81 8 l 2,37,38
 76 1 76 1 69.5 -2.5 c 128,-1,39
 63 -6 63 -6 57 -6 c 0,0,1
EndSplineSet
EndChar

StartChar: Y
Encoding: 89 89 224
Width: 577
GlyphClass: 2
Flags: W
AnchorPoint: "Anchor-2" 288 0 basechar 0
AnchorPoint: "Anchor-0" 288 705 basechar 0
LayerCount: 2
Fore
SplineSet
288 -6 m 0,0,1
 278 -6 278 -6 272.5 0 c 128,-1,2
 267 6 267 6 267 17 c 2,3,-1
 267 367 l 1,4,-1
 278 328 l 1,5,-1
 18 679 l 2,6,7
 12 688 12 688 12 695.5 c 128,-1,8
 12 703 12 703 17 707 c 128,-1,9
 22 711 22 711 29 711 c 0,10,11
 37 711 37 711 43 708 c 128,-1,12
 49 705 49 705 54 697 c 2,13,-1
 297 368 l 1,14,-1
 282 368 l 1,15,-1
 525 697 l 2,16,17
 530 705 530 705 535.5 708 c 128,-1,18
 541 711 541 711 549 711 c 0,19,20
 556 711 556 711 560.5 707 c 128,-1,21
 565 703 565 703 565.5 695.5 c 128,-1,22
 566 688 566 688 559 679 c 2,23,-1
 299 328 l 1,24,-1
 309 367 l 1,25,-1
 309 17 l 2,26,27
 309 -6 309 -6 288 -6 c 0,0,1
EndSplineSet
EndChar

StartChar: uni01B3
Encoding: 435 435 231
Width: 607
GlyphClass: 1
Flags: W
LayerCount: 2
Fore
SplineSet
288 -6 m 0,0,1
 278 -6 278 -6 272.5 0.5 c 128,-1,2
 267 7 267 7 267 19 c 2,3,-1
 267 367 l 1,4,-1
 278 328 l 1,5,-1
 18 679 l 2,6,7
 12 688 12 688 12 695.5 c 128,-1,8
 12 703 12 703 17 707 c 128,-1,9
 22 711 22 711 29 711 c 0,10,11
 35 711 35 711 39 710 c 128,-1,12
 43 709 43 709 46.5 706 c 128,-1,13
 50 703 50 703 54 697 c 2,14,-1
 297 368 l 1,15,-1
 283 368 l 1,16,-1
 477 643 l 2,17,18
 494 668 494 668 515 683 c 128,-1,19
 536 698 536 698 558.5 705 c 128,-1,20
 581 712 581 712 604 712 c 0,21,22
 628 712 628 712 640.5 708 c 128,-1,23
 653 704 653 704 653 690 c 0,24,25
 653 685 653 685 651 681 c 128,-1,26
 649 677 649 677 645 675 c 128,-1,27
 641 673 641 673 634 673 c 0,28,29
 631 673 631 673 620.5 674 c 128,-1,30
 610 675 610 675 606 675 c 0,31,32
 581 675 581 675 555.5 663.5 c 128,-1,33
 530 652 530 652 509 623 c 2,34,-1
 299 328 l 1,35,-1
 309 367 l 1,36,-1
 309 19 l 2,37,38
 309 -6 309 -6 288 -6 c 0,0,1
EndSplineSet
EndChar

StartChar: Z
Encoding: 90 90 235
Width: 575
GlyphClass: 2
Flags: W
AnchorPoint: "Anchor-2" 301 0 basechar 0
AnchorPoint: "Anchor-0" 300 705 basechar 0
LayerCount: 2
Fore
SplineSet
69 0 m 2,0,1
 61 0 61 0 55.5 3.5 c 128,-1,2
 50 7 50 7 47.5 13 c 128,-1,3
 45 19 45 19 47 27 c 128,-1,4
 49 35 49 35 55 44 c 2,5,-1
 502 689 l 1,6,-1
 502 666 l 1,7,-1
 66 666 l 2,8,9
 55 666 55 666 49 671.5 c 128,-1,10
 43 677 43 677 43 686 c 256,11,12
 43 695 43 695 49 700 c 128,-1,13
 55 705 55 705 66 705 c 2,14,-1
 518 705 l 2,15,16
 526 705 526 705 531.5 701.5 c 128,-1,17
 537 698 537 698 539.5 692 c 128,-1,18
 542 686 542 686 540 678 c 128,-1,19
 538 670 538 670 532 661 c 2,20,-1
 85 16 l 1,21,-1
 85 39 l 1,22,-1
 535 39 l 2,23,24
 546 39 546 39 552 34 c 128,-1,25
 558 29 558 29 558 20 c 0,26,27
 558 10 558 10 552 5 c 128,-1,28
 546 0 546 0 535 0 c 2,29,-1
 69 0 l 2,0,1
EndSplineSet
EndChar

StartChar: a
Encoding: 97 97 242
Width: 514
GlyphClass: 2
Flags: W
AnchorPoint: "Anchor-3" 431 0 basechar 0
AnchorPoint: "Anchor-2" 262 0 basechar 0
AnchorPoint: "Anchor-0" 265 484 basechar 0
LayerCount: 2
Fore
SplineSet
231 -8 m 0,0,1
 184 -8 184 -8 146 11 c 128,-1,2
 108 30 108 30 86 62.5 c 128,-1,3
 64 95 64 95 64 135 c 0,4,5
 64 189 64 189 90.5 219.5 c 128,-1,6
 117 250 117 250 181.5 262.5 c 128,-1,7
 246 275 246 275 359 275 c 2,8,-1
 400 275 l 1,9,-1
 400 238 l 1,10,-1
 361 238 l 2,11,12
 262 238 262 238 207.5 229.5 c 128,-1,13
 153 221 153 221 131.5 199.5 c 128,-1,14
 110 178 110 178 110 139 c 0,15,16
 110 91 110 91 143.5 60.5 c 128,-1,17
 177 30 177 30 234 30 c 0,18,19
 280 30 280 30 314.5 52.5 c 128,-1,20
 349 75 349 75 369 113.5 c 128,-1,21
 389 152 389 152 389 201 c 2,22,-1
 389 315 l 2,23,24
 389 387 389 387 361 420 c 128,-1,25
 333 453 333 453 271 453 c 0,26,27
 231 453 231 453 194.5 442 c 128,-1,28
 158 431 158 431 118 408 c 0,29,30
 109 403 109 403 102.5 404 c 128,-1,31
 96 405 96 405 92 409.5 c 128,-1,32
 88 414 88 414 86.5 420.5 c 128,-1,33
 85 427 85 427 87.5 433 c 128,-1,34
 90 439 90 439 97 443 c 0,35,36
 138 468 138 468 182 480 c 128,-1,37
 226 492 226 492 269 492 c 0,38,39
 324 492 324 492 360 473 c 128,-1,40
 396 454 396 454 413.5 415 c 128,-1,41
 431 376 431 376 431 315 c 2,42,-1
 431 16 l 2,43,44
 431 6 431 6 426 0 c 128,-1,45
 421 -6 421 -6 411 -6 c 256,46,47
 401 -6 401 -6 395.5 0 c 128,-1,48
 390 6 390 6 390 16 c 2,49,-1
 390 121 l 1,50,-1
 401 121 l 1,51,52
 391 81 391 81 367 52 c 128,-1,53
 343 23 343 23 308.5 7.5 c 128,-1,54
 274 -8 274 -8 231 -8 c 0,0,1
EndSplineSet
Substitution2: "'ss01' Style Set 1 lookup 35 subtable" a.ss01
Substitution2: "'salt' Stylistic Alternatives lookup 34 subtable" a.ss01
Substitution2: "Single Substitution lookup 29 subtable" ordfeminine
AlternateSubs2: "'aalt' Access All Alternates lookup 1 subtable" a.ss01 ordfeminine
EndChar

StartChar: aogonek
Encoding: 261 261 265
Width: 514
GlyphClass: 1
Flags: W
LayerCount: 2
Fore
SplineSet
414 -190 m 0,0,1
 373 -190 373 -190 346.5 -165 c 128,-1,2
 320 -140 320 -140 320 -98 c 0,3,4
 320 -62 320 -62 342 -28.5 c 128,-1,5
 364 5 364 5 403 27 c 1,6,-1
 392 6 l 1,7,8
 391 8 391 8 390.5 11.5 c 128,-1,9
 390 15 390 15 390 18 c 2,10,-1
 390 121 l 1,11,-1
 401 121 l 1,12,13
 391 81 391 81 367 52 c 128,-1,14
 343 23 343 23 308.5 7.5 c 128,-1,15
 274 -8 274 -8 231 -8 c 0,16,17
 184 -8 184 -8 146 11 c 128,-1,18
 108 30 108 30 86 62.5 c 128,-1,19
 64 95 64 95 64 135 c 0,20,21
 64 189 64 189 90.5 219.5 c 128,-1,22
 117 250 117 250 181.5 262.5 c 128,-1,23
 246 275 246 275 359 275 c 2,24,-1
 400 275 l 1,25,-1
 400 238 l 1,26,-1
 361 238 l 2,27,28
 262 238 262 238 207.5 229.5 c 128,-1,29
 153 221 153 221 131.5 199.5 c 128,-1,30
 110 178 110 178 110 139 c 0,31,32
 110 91 110 91 143.5 60.5 c 128,-1,33
 177 30 177 30 234 30 c 0,34,35
 280 30 280 30 314.5 52.5 c 128,-1,36
 349 75 349 75 369 113.5 c 128,-1,37
 389 152 389 152 389 201 c 2,38,-1
 389 315 l 2,39,40
 389 387 389 387 361 420 c 128,-1,41
 333 453 333 453 271 453 c 0,42,43
 231 453 231 453 194.5 442 c 128,-1,44
 158 431 158 431 118 408 c 0,45,46
 109 403 109 403 102.5 404 c 128,-1,47
 96 405 96 405 92 409.5 c 128,-1,48
 88 414 88 414 86.5 420.5 c 128,-1,49
 85 427 85 427 87.5 433 c 128,-1,50
 90 439 90 439 97 443 c 0,51,52
 138 468 138 468 182 480 c 128,-1,53
 226 492 226 492 269 492 c 0,54,55
 324 492 324 492 360 473 c 128,-1,56
 396 454 396 454 413.5 415 c 128,-1,57
 431 376 431 376 431 315 c 2,58,-1
 431 16 l 2,59,60
 431 8 431 8 427.5 2.5 c 128,-1,61
 424 -3 424 -3 419 -6 c 0,62,63
 397 -19 397 -19 378 -41 c 128,-1,64
 359 -63 359 -63 359 -94 c 256,65,66
 359 -125 359 -125 376.5 -139.5 c 128,-1,67
 394 -154 394 -154 419 -154 c 0,68,69
 430 -154 430 -154 439.5 -152 c 128,-1,70
 449 -150 449 -150 458 -147 c 0,71,72
 468 -144 468 -144 473.5 -147.5 c 128,-1,73
 479 -151 479 -151 480.5 -158 c 128,-1,74
 482 -165 482 -165 479 -171.5 c 128,-1,75
 476 -178 476 -178 469 -181 c 0,76,77
 455 -186 455 -186 441.5 -188 c 128,-1,78
 428 -190 428 -190 414 -190 c 0,0,1
EndSplineSet
Substitution2: "'ss01' Style Set 1 lookup 35 subtable" aogonek.ss01
Substitution2: "'salt' Stylistic Alternatives lookup 34 subtable" aogonek.ss01
Substitution2: "'aalt' Access All Alternates lookup 0 subtable" aogonek.ss01
EndChar

StartChar: ae
Encoding: 230 230 269
Width: 857
GlyphClass: 2
Flags: W
AnchorPoint: "Anchor-2" 416 0 basechar 0
AnchorPoint: "Anchor-0" 416 484 basechar 0
LayerCount: 2
Fore
SplineSet
233 -8 m 0,0,1
 185 -8 185 -8 147 11 c 128,-1,2
 109 30 109 30 86.5 62.5 c 128,-1,3
 64 95 64 95 64 135 c 0,4,5
 64 189 64 189 91.5 219.5 c 128,-1,6
 119 250 119 250 183.5 262 c 128,-1,7
 248 274 248 274 359 274 c 2,8,-1
 404 274 l 1,9,-1
 404 237 l 1,10,-1
 361 237 l 2,11,12
 262 237 262 237 207.5 229 c 128,-1,13
 153 221 153 221 131.5 199.5 c 128,-1,14
 110 178 110 178 110 139 c 0,15,16
 110 91 110 91 144 60.5 c 128,-1,17
 178 30 178 30 236 30 c 0,18,19
 284 30 284 30 319.5 53 c 128,-1,20
 355 76 355 76 374.5 116.5 c 128,-1,21
 394 157 394 157 394 208 c 2,22,-1
 394 312 l 2,23,24
 394 386 394 386 364.5 419.5 c 128,-1,25
 335 453 335 453 273 453 c 0,26,27
 232 453 232 453 195 442 c 128,-1,28
 158 431 158 431 118 408 c 0,29,30
 109 403 109 403 102.5 404 c 128,-1,31
 96 405 96 405 92 409.5 c 128,-1,32
 88 414 88 414 86.5 420.5 c 128,-1,33
 85 427 85 427 87.5 433 c 128,-1,34
 90 439 90 439 97 443 c 0,35,36
 138 468 138 468 182.5 480 c 128,-1,37
 227 492 227 492 271 492 c 0,38,39
 347 492 347 492 386.5 457 c 128,-1,40
 426 422 426 422 436 354 c 1,41,-1
 416 354 l 1,42,43
 441 421 441 421 492.5 456.5 c 128,-1,44
 544 492 544 492 616 493 c 0,45,46
 661 493 661 493 696.5 477.5 c 128,-1,47
 732 462 732 462 757.5 432 c 128,-1,48
 783 402 783 402 796 359 c 128,-1,49
 809 316 809 316 809 262 c 2,50,-1
 809 257 l 2,51,52
 809 248 809 248 803.5 242.5 c 128,-1,53
 798 237 798 237 787 237 c 2,54,-1
 428 237 l 1,55,-1
 428 274 l 1,56,-1
 786 274 l 1,57,-1
 770 263 l 1,58,59
 770 322 770 322 752 364.5 c 128,-1,60
 734 407 734 407 699 430.5 c 128,-1,61
 664 454 664 454 612 454 c 0,62,63
 559 454 559 454 519.5 428.5 c 128,-1,64
 480 403 480 403 458.5 357.5 c 128,-1,65
 437 312 437 312 437 250 c 2,66,-1
 437 243 l 2,67,68
 437 143 437 143 484.5 87 c 128,-1,69
 532 31 532 31 620 31 c 0,70,71
 655 31 655 31 691.5 42 c 128,-1,72
 728 53 728 53 762 79 c 0,73,74
 769 85 769 85 776.5 85.5 c 128,-1,75
 784 86 784 86 789.5 82.5 c 128,-1,76
 795 79 795 79 797.5 73.5 c 128,-1,77
 800 68 800 68 798 61 c 128,-1,78
 796 54 796 54 788 48 c 0,79,80
 757 23 757 23 714 7.5 c 128,-1,81
 671 -8 671 -8 624 -8 c 0,82,83
 537 -8 537 -8 480.5 35 c 128,-1,84
 424 78 424 78 404 160 c 1,85,-1
 422 160 l 1,86,87
 410 83 410 83 360 37.5 c 128,-1,88
 310 -8 310 -8 233 -8 c 0,0,1
EndSplineSet
EndChar

StartChar: b
Encoding: 98 98 271
Width: 568
GlyphClass: 2
Flags: W
AnchorPoint: "Anchor-2" 310 0 basechar 0
AnchorPoint: "Anchor-0" 300 705 basechar 0
LayerCount: 2
Fore
SplineSet
300 -8 m 0,0,1
 230 -8 230 -8 181.5 28.5 c 128,-1,2
 133 65 133 65 116 126 c 1,3,-1
 127 126 l 1,4,-1
 127 16 l 2,5,6
 127 6 127 6 121.5 0 c 128,-1,7
 116 -6 116 -6 106 -6 c 256,8,9
 96 -6 96 -6 90.5 0 c 128,-1,10
 85 6 85 6 85 16 c 2,11,-1
 85 689 l 2,12,13
 85 700 85 700 90.5 705.5 c 128,-1,14
 96 711 96 711 106 711 c 256,15,16
 116 711 116 711 121.5 705.5 c 128,-1,17
 127 700 127 700 127 689 c 2,18,-1
 127 358 l 1,19,-1
 116 358 l 1,20,21
 133 420 133 420 181.5 456 c 128,-1,22
 230 492 230 492 300 492 c 0,23,24
 366 492 366 492 414.5 461.5 c 128,-1,25
 463 431 463 431 489 375 c 128,-1,26
 515 319 515 319 515 242 c 0,27,28
 515 166 515 166 488.5 109.5 c 128,-1,29
 462 53 462 53 414 22.5 c 128,-1,30
 366 -8 366 -8 300 -8 c 0,0,1
299 31 m 0,31,32
 352 31 352 31 391 56 c 128,-1,33
 430 81 430 81 451 128.5 c 128,-1,34
 472 176 472 176 472 242 c 0,35,36
 472 342 472 342 425.5 397.5 c 128,-1,37
 379 453 379 453 299 453 c 0,38,39
 246 453 246 453 207 428 c 128,-1,40
 168 403 168 403 147 356 c 128,-1,41
 126 309 126 309 126 242 c 0,42,43
 126 142 126 142 173 86.5 c 128,-1,44
 220 31 220 31 299 31 c 0,31,32
EndSplineSet
EndChar

StartChar: uni0253
Encoding: 595 595 272
Width: 568
GlyphClass: 1
Flags: W
LayerCount: 2
Fore
SplineSet
300 -8 m 0,0,1
 230 -8 230 -8 181.5 28.5 c 128,-1,2
 133 65 133 65 116 126 c 1,3,-1
 127 126 l 1,4,-1
 127 16 l 2,5,6
 127 6 127 6 121.5 0 c 128,-1,7
 116 -6 116 -6 106 -6 c 256,8,9
 96 -6 96 -6 90.5 0 c 128,-1,10
 85 6 85 6 85 16 c 2,11,-1
 85 563 l 2,12,13
 85 636 85 636 121.5 674 c 128,-1,14
 158 712 158 712 227 712 c 0,15,16
 253 712 253 712 265 707.5 c 128,-1,17
 277 703 277 703 277 691 c 0,18,19
 277 683 277 683 271.5 677.5 c 128,-1,20
 266 672 266 672 258 672 c 0,21,22
 252 672 252 672 245 673 c 128,-1,23
 238 674 238 674 229 674 c 0,24,25
 178 674 178 674 152.5 646 c 128,-1,26
 127 618 127 618 127 565 c 2,27,-1
 127 358 l 1,28,-1
 116 358 l 1,29,30
 133 420 133 420 181.5 456 c 128,-1,31
 230 492 230 492 300 492 c 0,32,33
 366 492 366 492 414.5 461.5 c 128,-1,34
 463 431 463 431 489 375 c 128,-1,35
 515 319 515 319 515 242 c 0,36,37
 515 166 515 166 488.5 109.5 c 128,-1,38
 462 53 462 53 414 22.5 c 128,-1,39
 366 -8 366 -8 300 -8 c 0,0,1
299 31 m 0,40,41
 352 31 352 31 391 56 c 128,-1,42
 430 81 430 81 451 128.5 c 128,-1,43
 472 176 472 176 472 242 c 0,44,45
 472 342 472 342 425.5 397.5 c 128,-1,46
 379 453 379 453 299 453 c 0,47,48
 246 453 246 453 207 428 c 128,-1,49
 168 403 168 403 147 356 c 128,-1,50
 126 309 126 309 126 242 c 0,51,52
 126 142 126 142 173 86.5 c 128,-1,53
 220 31 220 31 299 31 c 0,40,41
EndSplineSet
EndChar

StartChar: c
Encoding: 99 99 273
Width: 455
GlyphClass: 2
Flags: W
AnchorPoint: "Anchor-2" 273 0 basechar 0
AnchorPoint: "Anchor-0" 273 484 basechar 0
LayerCount: 2
Fore
SplineSet
274 -8 m 0,0,1
 205 -8 205 -8 155.5 24 c 128,-1,2
 106 56 106 56 79.5 113 c 128,-1,3
 53 170 53 170 53 246 c 0,4,5
 53 303 53 303 68 348.5 c 128,-1,6
 83 394 83 394 111.5 426 c 128,-1,7
 140 458 140 458 181 475 c 128,-1,8
 222 492 222 492 274 492 c 0,9,10
 312 492 312 492 351.5 478.5 c 128,-1,11
 391 465 391 465 422 434 c 0,12,13
 427 429 427 429 427.5 423 c 128,-1,14
 428 417 428 417 425.5 411.5 c 128,-1,15
 423 406 423 406 418 403 c 128,-1,16
 413 400 413 400 406 400.5 c 128,-1,17
 399 401 399 401 392 408 c 0,18,19
 363 434 363 434 332.5 443.5 c 128,-1,20
 302 453 302 453 273 453 c 0,21,22
 230 453 230 453 197 439 c 128,-1,23
 164 425 164 425 141.5 398.5 c 128,-1,24
 119 372 119 372 107.5 333.5 c 128,-1,25
 96 295 96 295 96 245 c 0,26,27
 96 145 96 145 142 88 c 128,-1,28
 188 31 188 31 273 31 c 0,29,30
 302 31 302 31 332.5 40.5 c 128,-1,31
 363 50 363 50 392 76 c 0,32,33
 399 83 399 83 406 83.5 c 128,-1,34
 413 84 413 84 418 81 c 128,-1,35
 423 78 423 78 425.5 72.5 c 128,-1,36
 428 67 428 67 427.5 61 c 128,-1,37
 427 55 427 55 422 50 c 0,38,39
 391 19 391 19 351.5 5.5 c 128,-1,40
 312 -8 312 -8 274 -8 c 0,0,1
EndSplineSet
EndChar

StartChar: d
Encoding: 100 100 280
Width: 568
GlyphClass: 2
Flags: W
AnchorPoint: "Anchor-5" 286 245 basechar 0
AnchorPoint: "Anchor-4" 411 580 basechar 0
AnchorPoint: "Anchor-2" 286 0 basechar 0
AnchorPoint: "Anchor-1" 533 705 basechar 0
AnchorPoint: "Anchor-0" 284 705 basechar 0
LayerCount: 2
Fore
SplineSet
268 -8 m 0,0,1
 203 -8 203 -8 154.5 22.5 c 128,-1,2
 106 53 106 53 79.5 109.5 c 128,-1,3
 53 166 53 166 53 242 c 0,4,5
 53 319 53 319 79 375 c 128,-1,6
 105 431 105 431 153.5 461.5 c 128,-1,7
 202 492 202 492 268 492 c 0,8,9
 338 492 338 492 387 456 c 128,-1,10
 436 420 436 420 452 358 c 1,11,-1
 441 358 l 1,12,-1
 441 689 l 2,13,14
 441 700 441 700 446.5 705.5 c 128,-1,15
 452 711 452 711 462 711 c 256,16,17
 472 711 472 711 477.5 705.5 c 128,-1,18
 483 700 483 700 483 689 c 2,19,-1
 483 16 l 2,20,21
 483 6 483 6 477.5 0 c 128,-1,22
 472 -6 472 -6 462 -6 c 256,23,24
 452 -6 452 -6 446.5 0 c 128,-1,25
 441 6 441 6 441 16 c 2,26,-1
 441 126 l 1,27,-1
 452 126 l 1,28,29
 436 65 436 65 387 28.5 c 128,-1,30
 338 -8 338 -8 268 -8 c 0,0,1
269 31 m 0,31,32
 322 31 322 31 361 56 c 128,-1,33
 400 81 400 81 421 128.5 c 128,-1,34
 442 176 442 176 442 242 c 0,35,36
 442 342 442 342 395.5 397.5 c 128,-1,37
 349 453 349 453 269 453 c 0,38,39
 216 453 216 453 177 428 c 128,-1,40
 138 403 138 403 117 356 c 128,-1,41
 96 309 96 309 96 242 c 0,42,43
 96 142 96 142 143 86.5 c 128,-1,44
 190 31 190 31 269 31 c 0,31,32
EndSplineSet
EndChar

StartChar: eth
Encoding: 240 240 281
Width: 541
GlyphClass: 1
Flags: W
LayerCount: 2
Fore
SplineSet
269 -8 m 0,0,1
 204 -8 204 -8 155 20.5 c 128,-1,2
 106 49 106 49 79.5 101 c 128,-1,3
 53 153 53 153 53 223 c 256,4,5
 53 293 53 293 80.5 345 c 128,-1,6
 108 397 108 397 157 425.5 c 128,-1,7
 206 454 206 454 272 454 c 0,8,9
 323 454 323 454 362 435.5 c 128,-1,10
 401 417 401 417 427 380 c 128,-1,11
 453 343 453 343 465 286 c 1,12,-1
 446 286 l 1,13,14
 447 397 447 397 405.5 482 c 128,-1,15
 364 567 364 567 280 620 c 1,16,-1
 305 622 l 1,17,-1
 148 556 l 2,18,19
 138 552 138 552 131 554.5 c 128,-1,20
 124 557 124 557 121 563.5 c 128,-1,21
 118 570 118 570 121 577.5 c 128,-1,22
 124 585 124 585 134 589 c 2,23,-1
 260 642 l 1,24,-1
 260 632 l 1,25,26
 238 645 238 645 214.5 655 c 128,-1,27
 191 665 191 665 165 673 c 0,28,29
 154 676 154 676 150 683 c 128,-1,30
 146 690 146 690 148.5 696.5 c 128,-1,31
 151 703 151 703 158 706 c 128,-1,32
 165 709 165 709 176 706 c 0,33,34
 211 695 211 695 241 681.5 c 128,-1,35
 271 668 271 668 299 651 c 1,36,-1
 284 652 l 1,37,-1
 408 704 l 2,38,39
 418 708 418 708 425 705.5 c 128,-1,40
 432 703 432 703 435 696.5 c 128,-1,41
 438 690 438 690 435.5 683 c 128,-1,42
 433 676 433 676 422 671 c 2,43,-1
 317 627 l 1,44,-1
 320 637 l 1,45,46
 376 599 376 599 413 546.5 c 128,-1,47
 450 494 450 494 469 428 c 128,-1,48
 488 362 488 362 488 281 c 0,49,50
 488 209 488 209 474 155 c 128,-1,51
 460 101 460 101 432.5 65 c 128,-1,52
 405 29 405 29 364 10.5 c 128,-1,53
 323 -8 323 -8 269 -8 c 0,0,1
268 31 m 0,54,55
 322 31 322 31 361 54 c 128,-1,56
 400 77 400 77 421 120.5 c 128,-1,57
 442 164 442 164 442 223 c 0,58,59
 442 312 442 312 395.5 363.5 c 128,-1,60
 349 415 349 415 269 415 c 0,61,62
 216 415 216 415 177 392 c 128,-1,63
 138 369 138 369 117 326 c 128,-1,64
 96 283 96 283 96 223 c 0,65,66
 96 132 96 132 141.5 81.5 c 128,-1,67
 187 31 187 31 268 31 c 0,54,55
EndSplineSet
EndChar

StartChar: dcroat
Encoding: 273 273 283
Width: 568
GlyphClass: 1
Flags: W
LayerCount: 2
Fore
SplineSet
268 -8 m 0,0,1
 203 -8 203 -8 154.5 22.5 c 128,-1,2
 106 53 106 53 79.5 109.5 c 128,-1,3
 53 166 53 166 53 242 c 0,4,5
 53 319 53 319 79 375 c 128,-1,6
 105 431 105 431 153.5 461.5 c 128,-1,7
 202 492 202 492 268 492 c 0,8,9
 338 492 338 492 387 456 c 128,-1,10
 436 420 436 420 452 358 c 1,11,-1
 441 358 l 1,12,-1
 441 562 l 1,13,-1
 262 562 l 2,14,15
 252 562 252 562 246 567 c 128,-1,16
 240 572 240 572 240 580 c 256,17,18
 240 588 240 588 246 593 c 128,-1,19
 252 598 252 598 262 598 c 2,20,-1
 453 598 l 1,21,-1
 441 585 l 1,22,-1
 441 689 l 2,23,24
 441 700 441 700 446.5 705.5 c 128,-1,25
 452 711 452 711 462 711 c 256,26,27
 472 711 472 711 477.5 705.5 c 128,-1,28
 483 700 483 700 483 689 c 2,29,-1
 483 585 l 1,30,-1
 471 598 l 1,31,-1
 560 598 l 2,32,33
 571 598 571 598 576.5 593 c 128,-1,34
 582 588 582 588 582 580 c 256,35,36
 582 572 582 572 576.5 567 c 128,-1,37
 571 562 571 562 560 562 c 2,38,-1
 483 562 l 1,39,-1
 483 16 l 2,40,41
 483 6 483 6 477.5 0 c 128,-1,42
 472 -6 472 -6 462 -6 c 256,43,44
 452 -6 452 -6 446.5 0 c 128,-1,45
 441 6 441 6 441 16 c 2,46,-1
 441 126 l 1,47,-1
 452 126 l 1,48,49
 436 65 436 65 387 28.5 c 128,-1,50
 338 -8 338 -8 268 -8 c 0,0,1
269 31 m 0,51,52
 322 31 322 31 361 56 c 128,-1,53
 400 81 400 81 421 128.5 c 128,-1,54
 442 176 442 176 442 242 c 0,55,56
 442 342 442 342 395.5 397.5 c 128,-1,57
 349 453 349 453 269 453 c 0,58,59
 216 453 216 453 177 428 c 128,-1,60
 138 403 138 403 117 356 c 128,-1,61
 96 309 96 309 96 242 c 0,62,63
 96 142 96 142 143 86.5 c 128,-1,64
 190 31 190 31 269 31 c 0,51,52
EndSplineSet
EndChar

StartChar: uni0257
Encoding: 599 599 285
Width: 568
GlyphClass: 1
Flags: W
LayerCount: 2
Fore
SplineSet
268 -8 m 0,0,1
 203 -8 203 -8 154.5 22.5 c 128,-1,2
 106 53 106 53 79.5 109.5 c 128,-1,3
 53 166 53 166 53 242 c 0,4,5
 53 319 53 319 79 375 c 128,-1,6
 105 431 105 431 153.5 461.5 c 128,-1,7
 202 492 202 492 268 492 c 0,8,9
 338 492 338 492 387 456 c 128,-1,10
 436 420 436 420 452 358 c 1,11,-1
 441 358 l 1,12,-1
 441 563 l 2,13,14
 441 636 441 636 477.5 674 c 128,-1,15
 514 712 514 712 583 712 c 0,16,17
 609 712 609 712 621 707.5 c 128,-1,18
 633 703 633 703 633 691 c 0,19,20
 633 683 633 683 627.5 677.5 c 128,-1,21
 622 672 622 672 614 672 c 0,22,23
 608 672 608 672 601 673 c 128,-1,24
 594 674 594 674 585 674 c 0,25,26
 534 674 534 674 508.5 646 c 128,-1,27
 483 618 483 618 483 565 c 2,28,-1
 483 16 l 2,29,30
 483 6 483 6 477.5 0 c 128,-1,31
 472 -6 472 -6 462 -6 c 256,32,33
 452 -6 452 -6 446.5 0 c 128,-1,34
 441 6 441 6 441 16 c 2,35,-1
 441 126 l 1,36,-1
 452 126 l 1,37,38
 436 65 436 65 387 28.5 c 128,-1,39
 338 -8 338 -8 268 -8 c 0,0,1
269 31 m 0,40,41
 322 31 322 31 361 56 c 128,-1,42
 400 81 400 81 421 128.5 c 128,-1,43
 442 176 442 176 442 242 c 0,44,45
 442 342 442 342 395.5 397.5 c 128,-1,46
 349 453 349 453 269 453 c 0,47,48
 216 453 216 453 177 428 c 128,-1,49
 138 403 138 403 117 356 c 128,-1,50
 96 309 96 309 96 242 c 0,51,52
 96 142 96 142 143 86.5 c 128,-1,53
 190 31 190 31 269 31 c 0,40,41
EndSplineSet
EndChar

StartChar: e
Encoding: 101 101 288
Width: 523
GlyphClass: 2
Flags: W
AnchorPoint: "Anchor-3" 342 0 basechar 0
AnchorPoint: "Anchor-2" 277 0 basechar 0
AnchorPoint: "Anchor-0" 277 484 basechar 0
LayerCount: 2
Fore
SplineSet
286 -8 m 0,0,1
 214 -8 214 -8 162 22 c 128,-1,2
 110 52 110 52 81.5 107.5 c 128,-1,3
 53 163 53 163 53 240 c 0,4,5
 53 316 53 316 81.5 372.5 c 128,-1,6
 110 429 110 429 160.5 460.5 c 128,-1,7
 211 492 211 492 277 492 c 0,8,9
 324 492 324 492 360.5 476 c 128,-1,10
 397 460 397 460 422.5 430 c 128,-1,11
 448 400 448 400 461.5 357 c 128,-1,12
 475 314 475 314 475 260 c 0,13,14
 475 247 475 247 469.5 240.5 c 128,-1,15
 464 234 464 234 453 234 c 2,16,-1
 80 234 l 1,17,-1
 80 271 l 1,18,-1
 453 271 l 1,19,-1
 436 259 l 1,20,21
 436 320 436 320 418 363.5 c 128,-1,22
 400 407 400 407 364.5 430.5 c 128,-1,23
 329 454 329 454 276 454 c 0,24,25
 218 454 218 454 177.5 426.5 c 128,-1,26
 137 399 137 399 116.5 352 c 128,-1,27
 96 305 96 305 96 245 c 2,28,-1
 96 240 l 2,29,30
 96 140 96 140 145.5 85.5 c 128,-1,31
 195 31 195 31 284 31 c 0,32,33
 324 31 324 31 359 41.5 c 128,-1,34
 394 52 394 52 428 79 c 0,35,36
 435 85 435 85 442.5 85.5 c 128,-1,37
 450 86 450 86 455.5 82.5 c 128,-1,38
 461 79 461 79 463.5 73.5 c 128,-1,39
 466 68 466 68 464 61 c 128,-1,40
 462 54 462 54 454 48 c 0,41,42
 423 22 423 22 378 7 c 128,-1,43
 333 -8 333 -8 286 -8 c 0,0,1
EndSplineSet
EndChar

StartChar: uni0259
Encoding: 601 601 311
Width: 523
GlyphClass: 1
Flags: W
LayerCount: 2
Fore
SplineSet
252 -8 m 0,0,1
 188 -8 188 -8 142 19.5 c 128,-1,2
 96 47 96 47 72 100 c 128,-1,3
 48 153 48 153 48 227 c 0,4,5
 48 238 48 238 54 244 c 128,-1,6
 60 250 60 250 70 250 c 2,7,-1
 444 250 l 1,8,-1
 444 213 l 1,9,-1
 70 213 l 1,10,-1
 89 226 l 1,11,12
 89 163 89 163 107.5 119.5 c 128,-1,13
 126 76 126 76 162.5 53 c 128,-1,14
 199 30 199 30 253 30 c 0,15,16
 306 30 306 30 345 54.5 c 128,-1,17
 384 79 384 79 405.5 125.5 c 128,-1,18
 427 172 427 172 427 237 c 2,19,-1
 427 243 l 2,20,21
 427 342 427 342 377.5 397.5 c 128,-1,22
 328 453 328 453 239 453 c 0,23,24
 199 453 199 453 163 441 c 128,-1,25
 127 429 127 429 92 403 c 0,26,27
 84 397 84 397 77.5 397 c 128,-1,28
 71 397 71 397 66.5 401 c 128,-1,29
 62 405 62 405 60 411 c 128,-1,30
 58 417 58 417 60 423.5 c 128,-1,31
 62 430 62 430 68 435 c 0,32,33
 100 462 100 462 145.5 477 c 128,-1,34
 191 492 191 492 237 492 c 0,35,36
 309 492 309 492 361.5 462 c 128,-1,37
 414 432 414 432 442 377 c 128,-1,38
 470 322 470 322 470 245 c 256,39,40
 470 168 470 168 442.5 111 c 128,-1,41
 415 54 415 54 366 23 c 128,-1,42
 317 -8 317 -8 252 -8 c 0,0,1
EndSplineSet
EndChar

StartChar: f
Encoding: 102 102 314
Width: 306
GlyphClass: 2
Flags: W
AnchorPoint: "Anchor-2" 126 0 basechar 0
AnchorPoint: "Anchor-0" 126 705 basechar 0
LayerCount: 2
Fore
SplineSet
126 -6 m 0,0,1
 116 -6 116 -6 110.5 0 c 128,-1,2
 105 6 105 6 105 16 c 2,3,-1
 105 448 l 1,4,-1
 26 448 l 2,5,6
 16 448 16 448 10 453 c 128,-1,7
 4 458 4 458 4 466 c 256,8,9
 4 474 4 474 10 479 c 128,-1,10
 16 484 16 484 26 484 c 2,11,-1
 115 484 l 1,12,-1
 105 473 l 1,13,-1
 105 515 l 2,14,15
 105 603 105 603 146.5 651.5 c 128,-1,16
 188 700 188 700 271 707 c 2,17,-1
 297 709 l 2,18,19
 305 710 305 710 310 706.5 c 128,-1,20
 315 703 315 703 316.5 698 c 128,-1,21
 318 693 318 693 316.5 687.5 c 128,-1,22
 315 682 315 682 311 678 c 128,-1,23
 307 674 307 674 301 673 c 2,24,-1
 269 670 l 2,25,26
 205 664 205 664 176 625.5 c 128,-1,27
 147 587 147 587 147 515 c 2,28,-1
 147 470 l 1,29,-1
 139 484 l 1,30,-1
 275 484 l 2,31,32
 286 484 286 484 291.5 479 c 128,-1,33
 297 474 297 474 297 466 c 256,34,35
 297 458 297 458 291.5 453 c 128,-1,36
 286 448 286 448 275 448 c 2,37,-1
 147 448 l 1,38,-1
 147 16 l 2,39,40
 147 -6 147 -6 126 -6 c 0,0,1
EndSplineSet
EndChar

StartChar: g
Encoding: 103 103 315
Width: 570
GlyphClass: 2
Flags: W
AnchorPoint: "Anchor-0" 288 484 basechar 0
LayerCount: 2
Fore
SplineSet
290 -188 m 0,0,1
 237 -188 237 -188 186.5 -173 c 128,-1,2
 136 -158 136 -158 95 -126 c 0,3,4
 90 -122 90 -122 88.5 -116 c 128,-1,5
 87 -110 87 -110 89 -104.5 c 128,-1,6
 91 -99 91 -99 95.5 -94.5 c 128,-1,7
 100 -90 100 -90 105.5 -89.5 c 128,-1,8
 111 -89 111 -89 117 -93 c 0,9,10
 161 -124 161 -124 201.5 -136.5 c 128,-1,11
 242 -149 242 -149 291 -149 c 0,12,13
 366 -149 366 -149 405 -106.5 c 128,-1,14
 444 -64 444 -64 444 15 c 2,15,-1
 444 148 l 1,16,-1
 454 148 l 1,17,18
 440 84 440 84 390 47.5 c 128,-1,19
 340 11 340 11 271 11 c 0,20,21
 204 11 204 11 155 41.5 c 128,-1,22
 106 72 106 72 79.5 126.5 c 128,-1,23
 53 181 53 181 53 252 c 0,24,25
 53 306 53 306 68 350 c 128,-1,26
 83 394 83 394 111.5 425.5 c 128,-1,27
 140 457 140 457 180 474.5 c 128,-1,28
 220 492 220 492 271 492 c 0,29,30
 340 492 340 492 390 455.5 c 128,-1,31
 440 419 440 419 454 355 c 1,32,-1
 443 355 l 1,33,-1
 443 468 l 2,34,35
 443 479 443 479 448.5 484.5 c 128,-1,36
 454 490 454 490 464 490 c 256,37,38
 474 490 474 490 479.5 484.5 c 128,-1,39
 485 479 485 479 485 468 c 2,40,-1
 485 22 l 2,41,42
 485 -82 485 -82 436 -135 c 128,-1,43
 387 -188 387 -188 290 -188 c 0,0,1
270 50 m 0,44,45
 324 50 324 50 363 75 c 128,-1,46
 402 100 402 100 423 145.5 c 128,-1,47
 444 191 444 191 444 252 c 0,48,49
 444 344 444 344 397 398.5 c 128,-1,50
 350 453 350 453 270 453 c 0,51,52
 217 453 217 453 177.5 428.5 c 128,-1,53
 138 404 138 404 117 359 c 128,-1,54
 96 314 96 314 96 252 c 0,55,56
 96 160 96 160 143 105 c 128,-1,57
 190 50 190 50 270 50 c 0,44,45
EndSplineSet
EndChar

StartChar: uni01E5
Encoding: 485 485 322
Width: 570
GlyphClass: 1
Flags: W
LayerCount: 2
Fore
SplineSet
290 -188 m 0,0,1
 237 -188 237 -188 186.5 -173 c 128,-1,2
 136 -158 136 -158 95 -126 c 0,3,4
 90 -122 90 -122 88.5 -116 c 128,-1,5
 87 -110 87 -110 89 -104.5 c 128,-1,6
 91 -99 91 -99 95.5 -94.5 c 128,-1,7
 100 -90 100 -90 105.5 -89.5 c 128,-1,8
 111 -89 111 -89 117 -93 c 0,9,10
 161 -124 161 -124 201.5 -137 c 128,-1,11
 242 -150 242 -150 291 -149 c 0,12,13
 349 -148 349 -148 385 -123.5 c 128,-1,14
 421 -99 421 -99 435 -52 c 1,15,-1
 450 -63 l 1,16,-1
 329 -63 l 2,17,18
 320 -63 320 -63 315 -58 c 128,-1,19
 310 -53 310 -53 310 -45 c 256,20,21
 310 -37 310 -37 315 -32 c 128,-1,22
 320 -27 320 -27 329 -27 c 2,23,-1
 444 -27 l 1,24,-1
 439 -38 l 1,25,26
 441 -26 441 -26 442.5 -11 c 128,-1,27
 444 4 444 4 444 15 c 2,28,-1
 444 163 l 1,29,-1
 454 163 l 1,30,31
 438 99 438 99 390.5 65 c 128,-1,32
 343 31 343 31 271 31 c 0,33,34
 206 31 206 31 157 60 c 128,-1,35
 108 89 108 89 80.5 141 c 128,-1,36
 53 193 53 193 53 262 c 0,37,38
 53 313 53 313 68.5 355.5 c 128,-1,39
 84 398 84 398 113 428.5 c 128,-1,40
 142 459 142 459 182 475.5 c 128,-1,41
 222 492 222 492 271 492 c 0,42,43
 343 492 343 492 390.5 458 c 128,-1,44
 438 424 438 424 454 361 c 1,45,-1
 443 361 l 1,46,-1
 443 468 l 2,47,48
 443 479 443 479 448.5 484.5 c 128,-1,49
 454 490 454 490 464 490 c 256,50,51
 474 490 474 490 479.5 484.5 c 128,-1,52
 485 479 485 479 485 468 c 2,53,-1
 485 22 l 2,54,55
 485 6 485 6 483.5 -9.5 c 128,-1,56
 482 -25 482 -25 480 -38 c 1,57,-1
 477 -27 l 1,58,-1
 544 -27 l 2,59,60
 553 -27 553 -27 558 -32 c 128,-1,61
 563 -37 563 -37 563 -45 c 256,62,63
 563 -53 563 -53 558 -58 c 128,-1,64
 553 -63 553 -63 544 -63 c 2,65,-1
 456 -63 l 1,66,-1
 477 -53 l 1,67,68
 461 -120 461 -120 414.5 -154 c 128,-1,69
 368 -188 368 -188 290 -188 c 0,0,1
270 70 m 0,70,71
 324 70 324 70 363 93 c 128,-1,72
 402 116 402 116 422.5 159.5 c 128,-1,73
 443 203 443 203 443 262 c 0,74,75
 443 351 443 351 397 402 c 128,-1,76
 351 453 351 453 270 453 c 0,77,78
 217 453 217 453 177.5 430 c 128,-1,79
 138 407 138 407 117 364.5 c 128,-1,80
 96 322 96 322 96 262 c 0,81,82
 96 172 96 172 143 121 c 128,-1,83
 190 70 190 70 270 70 c 0,70,71
EndSplineSet
EndChar

StartChar: h
Encoding: 104 104 323
Width: 553
GlyphClass: 2
Flags: W
AnchorPoint: "Anchor-5" 277 245 basechar 0
AnchorPoint: "Anchor-4" 157 580 basechar 0
AnchorPoint: "Anchor-2" 277 0 basechar 0
AnchorPoint: "Anchor-1" 169 705 basechar 0
AnchorPoint: "Anchor-0" 278 705 basechar 0
LayerCount: 2
Fore
SplineSet
106 -6 m 0,0,1
 96 -6 96 -6 90.5 0 c 128,-1,2
 85 6 85 6 85 16 c 2,3,-1
 85 689 l 2,4,5
 85 700 85 700 90.5 705.5 c 128,-1,6
 96 711 96 711 106 711 c 256,7,8
 116 711 116 711 121.5 705.5 c 128,-1,9
 127 700 127 700 127 689 c 2,10,-1
 127 366 l 1,11,-1
 115 366 l 1,12,13
 135 429 135 429 184 460.5 c 128,-1,14
 233 492 233 492 297 492 c 0,15,16
 355 492 355 492 393.5 471.5 c 128,-1,17
 432 451 432 451 451 410 c 128,-1,18
 470 369 470 369 470 308 c 2,19,-1
 470 16 l 2,20,21
 470 6 470 6 464.5 0 c 128,-1,22
 459 -6 459 -6 449 -6 c 256,23,24
 439 -6 439 -6 433.5 0 c 128,-1,25
 428 6 428 6 428 16 c 2,26,-1
 428 304 l 2,27,28
 428 381 428 381 397 417 c 128,-1,29
 366 453 366 453 297 453 c 0,30,31
 220 453 220 453 173.5 405.5 c 128,-1,32
 127 358 127 358 127 278 c 2,33,-1
 127 16 l 2,34,35
 127 -6 127 -6 106 -6 c 0,0,1
EndSplineSet
EndChar

StartChar: hbar
Encoding: 295 295 324
Width: 553
GlyphClass: 1
Flags: W
LayerCount: 2
Fore
SplineSet
106 -6 m 0,0,1
 96 -6 96 -6 90.5 0 c 128,-1,2
 85 6 85 6 85 16 c 2,3,-1
 85 562 l 1,4,-1
 12 562 l 2,5,6
 2 562 2 562 -4 567 c 128,-1,7
 -10 572 -10 572 -10 580 c 0,8,9
 -10 598 -10 598 12 598 c 2,10,-1
 94 598 l 1,11,-1
 85 589 l 1,12,-1
 85 689 l 2,13,14
 85 700 85 700 90.5 705.5 c 128,-1,15
 96 711 96 711 106 711 c 256,16,17
 116 711 116 711 121.5 705.5 c 128,-1,18
 127 700 127 700 127 689 c 2,19,-1
 127 589 l 1,20,-1
 118 598 l 1,21,-1
 302 598 l 2,22,23
 313 598 313 598 318.5 593 c 128,-1,24
 324 588 324 588 324 580 c 0,25,26
 324 562 324 562 302 562 c 2,27,-1
 127 562 l 1,28,-1
 127 366 l 1,29,-1
 115 366 l 1,30,31
 135 429 135 429 184 460.5 c 128,-1,32
 233 492 233 492 297 492 c 0,33,34
 355 492 355 492 393.5 471.5 c 128,-1,35
 432 451 432 451 451 410 c 128,-1,36
 470 369 470 369 470 308 c 2,37,-1
 470 16 l 2,38,39
 470 6 470 6 464.5 0 c 128,-1,40
 459 -6 459 -6 449 -6 c 256,41,42
 439 -6 439 -6 433.5 0 c 128,-1,43
 428 6 428 6 428 16 c 2,44,-1
 428 304 l 2,45,46
 428 381 428 381 397 417 c 128,-1,47
 366 453 366 453 297 453 c 0,48,49
 220 453 220 453 173.5 405.5 c 128,-1,50
 127 358 127 358 127 278 c 2,51,-1
 127 16 l 2,52,53
 127 -6 127 -6 106 -6 c 0,0,1
EndSplineSet
EndChar

StartChar: i
Encoding: 105 105 329
Width: 212
GlyphClass: 2
Flags: W
AnchorPoint: "Anchor-3" 127 0 basechar 0
AnchorPoint: "Anchor-2" 106 0 basechar 0
LayerCount: 2
Fore
SplineSet
106 -3 m 0,0,1
 96 -3 96 -3 90.5 3 c 128,-1,2
 85 9 85 9 85 19 c 2,3,-1
 85 465 l 2,4,5
 85 476 85 476 90.5 481.5 c 128,-1,6
 96 487 96 487 106 487 c 256,7,8
 116 487 116 487 121.5 481.5 c 128,-1,9
 127 476 127 476 127 465 c 2,10,-1
 127 19 l 2,11,12
 127 9 127 9 122 3 c 128,-1,13
 117 -3 117 -3 106 -3 c 0,0,1
106 616 m 0,14,15
 90 616 90 616 80.5 625.5 c 128,-1,16
 71 635 71 635 71 651 c 0,17,18
 71 668 71 668 80.5 676.5 c 128,-1,19
 90 685 90 685 106 685 c 0,20,21
 123 685 123 685 132 676.5 c 128,-1,22
 141 668 141 668 141 651 c 0,23,24
 141 635 141 635 132 625.5 c 128,-1,25
 123 616 123 616 106 616 c 0,14,15
EndSplineSet
Substitution2: "'locl' Localized Forms in Latin lookup 10 subtable" i.loclTRK
Substitution2: "Single Substitution lookup 4 subtable" dotlessi
Substitution2: "Single Substitution lookup 3 subtable" dotlessi
Substitution2: "'aalt' Access All Alternates lookup 0 subtable" i.loclTRK
EndChar

StartChar: dotlessi
Encoding: 305 305 330
Width: 212
GlyphClass: 2
Flags: W
AnchorPoint: "Anchor-3" 127 0 basechar 0
AnchorPoint: "Anchor-2" 106 0 basechar 0
AnchorPoint: "Anchor-0" 106 484 basechar 0
LayerCount: 2
Fore
SplineSet
106 -3 m 0,0,1
 96 -3 96 -3 90.5 3 c 128,-1,2
 85 9 85 9 85 19 c 2,3,-1
 85 465 l 2,4,5
 85 476 85 476 90.5 481.5 c 128,-1,6
 96 487 96 487 106 487 c 256,7,8
 116 487 116 487 121.5 481.5 c 128,-1,9
 127 476 127 476 127 465 c 2,10,-1
 127 19 l 2,11,12
 127 9 127 9 122 3 c 128,-1,13
 117 -3 117 -3 106 -3 c 0,0,1
EndSplineSet
EndChar

StartChar: iogonek
Encoding: 303 303 343
Width: 212
GlyphClass: 1
Flags: W
LayerCount: 2
Fore
SplineSet
110 -190 m 0,0,1
 69 -190 69 -190 42.5 -165 c 128,-1,2
 16 -140 16 -140 16 -98 c 0,3,4
 16 -63 16 -63 37.5 -29.5 c 128,-1,5
 59 4 59 4 97 26 c 1,6,-1
 88 5 l 1,7,8
 87 7 87 7 86 11 c 128,-1,9
 85 15 85 15 85 19 c 2,10,-1
 85 465 l 2,11,12
 85 476 85 476 90.5 481.5 c 128,-1,13
 96 487 96 487 106 487 c 256,14,15
 116 487 116 487 121.5 481.5 c 128,-1,16
 127 476 127 476 127 465 c 2,17,-1
 127 19 l 2,18,19
 127 12 127 12 124 6 c 128,-1,20
 121 0 121 0 116 -3 c 0,21,22
 84 -26 84 -26 69.5 -47 c 128,-1,23
 55 -68 55 -68 55 -94 c 0,24,25
 55 -125 55 -125 72.5 -139.5 c 128,-1,26
 90 -154 90 -154 115 -154 c 0,27,28
 126 -154 126 -154 135.5 -152 c 128,-1,29
 145 -150 145 -150 154 -147 c 0,30,31
 164 -144 164 -144 169.5 -147.5 c 128,-1,32
 175 -151 175 -151 176.5 -158 c 128,-1,33
 178 -165 178 -165 175 -171.5 c 128,-1,34
 172 -178 172 -178 165 -181 c 0,35,36
 151 -186 151 -186 137.5 -188 c 128,-1,37
 124 -190 124 -190 110 -190 c 0,0,1
106 616 m 0,38,39
 90 616 90 616 80.5 625.5 c 128,-1,40
 71 635 71 635 71 651 c 0,41,42
 71 668 71 668 80.5 676.5 c 128,-1,43
 90 685 90 685 106 685 c 0,44,45
 123 685 123 685 132 676.5 c 128,-1,46
 141 668 141 668 141 651 c 0,47,48
 141 635 141 635 132 625.5 c 128,-1,49
 123 616 123 616 106 616 c 0,38,39
EndSplineSet
EndChar

StartChar: j
Encoding: 106 106 345
Width: 215
GlyphClass: 1
Flags: W
LayerCount: 2
Fore
SplineSet
-36 -192 m 0,0,1
 -45 -192 -45 -192 -50.5 -188.5 c 128,-1,2
 -56 -185 -56 -185 -58 -179 c 128,-1,3
 -60 -173 -60 -173 -59 -167.5 c 128,-1,4
 -58 -162 -58 -162 -53 -158 c 128,-1,5
 -48 -154 -48 -154 -39 -154 c 0,6,7
 25 -152 25 -152 56.5 -121.5 c 128,-1,8
 88 -91 88 -91 88 -22 c 2,9,-1
 88 468 l 2,10,11
 88 479 88 479 93.5 484.5 c 128,-1,12
 99 490 99 490 109 490 c 256,13,14
 119 490 119 490 124.5 484.5 c 128,-1,15
 130 479 130 479 130 468 c 2,16,-1
 130 -21 l 2,17,18
 130 -79 130 -79 109.5 -117 c 128,-1,19
 89 -155 89 -155 52 -173.5 c 128,-1,20
 15 -192 15 -192 -36 -192 c 0,0,1
109 616 m 0,21,22
 93 616 93 616 83.5 625.5 c 128,-1,23
 74 635 74 635 74 651 c 0,24,25
 74 668 74 668 83.5 676.5 c 128,-1,26
 93 685 93 685 109 685 c 0,27,28
 126 685 126 685 135 676.5 c 128,-1,29
 144 668 144 668 144 651 c 0,30,31
 144 635 144 635 135 625.5 c 128,-1,32
 126 616 126 616 109 616 c 0,21,22
EndSplineSet
Substitution2: "Single Substitution lookup 4 subtable" uni0237
Substitution2: "Single Substitution lookup 3 subtable" uni0237
EndChar

StartChar: uni0237
Encoding: 567 567 346
Width: 215
GlyphClass: 2
Flags: W
AnchorPoint: "Anchor-2" 109 0 basechar 0
AnchorPoint: "Anchor-0" 109 484 basechar 0
LayerCount: 2
Fore
SplineSet
-36 -192 m 0,0,1
 -45 -192 -45 -192 -50.5 -188.5 c 128,-1,2
 -56 -185 -56 -185 -58 -179 c 128,-1,3
 -60 -173 -60 -173 -59 -167.5 c 128,-1,4
 -58 -162 -58 -162 -53 -158 c 128,-1,5
 -48 -154 -48 -154 -39 -154 c 0,6,7
 25 -152 25 -152 56.5 -121.5 c 128,-1,8
 88 -91 88 -91 88 -22 c 2,9,-1
 88 468 l 2,10,11
 88 479 88 479 93.5 484.5 c 128,-1,12
 99 490 99 490 109 490 c 256,13,14
 119 490 119 490 124.5 484.5 c 128,-1,15
 130 479 130 479 130 468 c 2,16,-1
 130 -21 l 2,17,18
 130 -79 130 -79 109.5 -117 c 128,-1,19
 89 -155 89 -155 52 -173.5 c 128,-1,20
 15 -192 15 -192 -36 -192 c 0,0,1
EndSplineSet
EndChar

StartChar: k
Encoding: 107 107 348
Width: 468
GlyphClass: 2
Flags: W
AnchorPoint: "Anchor-2" 234 0 basechar 0
AnchorPoint: "Anchor-0" 278 705 basechar 0
LayerCount: 2
Fore
SplineSet
106 -6 m 0,0,1
 96 -6 96 -6 90.5 0 c 128,-1,2
 85 6 85 6 85 16 c 2,3,-1
 85 689 l 2,4,5
 85 700 85 700 90.5 705.5 c 128,-1,6
 96 711 96 711 106 711 c 256,7,8
 116 711 116 711 121.5 705.5 c 128,-1,9
 127 700 127 700 127 689 c 2,10,-1
 127 260 l 1,11,-1
 129 260 l 1,12,-1
 370 475 l 2,13,14
 378 482 378 482 385 486 c 128,-1,15
 392 490 392 490 402 490 c 0,16,17
 410 490 410 490 415 485.5 c 128,-1,18
 420 481 420 481 419.5 474 c 128,-1,19
 419 467 419 467 411 459 c 2,20,-1
 154 231 l 1,21,-1
 154 267 l 1,22,-1
 433 29 l 2,23,24
 443 21 443 21 444 13 c 128,-1,25
 445 5 445 5 440.5 -0.5 c 128,-1,26
 436 -6 436 -6 428 -6 c 0,27,28
 419 -6 419 -6 412.5 -2 c 128,-1,29
 406 2 406 2 395 11 c 2,30,-1
 129 237 l 1,31,-1
 127 237 l 1,32,-1
 127 16 l 2,33,34
 127 -6 127 -6 106 -6 c 0,0,1
EndSplineSet
EndChar

StartChar: kgreenlandic
Encoding: 312 312 351
Width: 468
GlyphClass: 2
Flags: W
AnchorPoint: "Anchor-2" 234 0 basechar 0
AnchorPoint: "Anchor-0" 234 484 basechar 0
LayerCount: 2
Fore
SplineSet
106 -6 m 0,0,1
 96 -6 96 -6 90.5 0 c 128,-1,2
 85 6 85 6 85 16 c 2,3,-1
 85 468 l 2,4,5
 85 479 85 479 90.5 484.5 c 128,-1,6
 96 490 96 490 106 490 c 256,7,8
 116 490 116 490 121.5 484.5 c 128,-1,9
 127 479 127 479 127 468 c 2,10,-1
 127 260 l 1,11,-1
 129 260 l 1,12,-1
 370 475 l 2,13,14
 378 482 378 482 385 486 c 128,-1,15
 392 490 392 490 400 490 c 0,16,17
 409 490 409 490 414 485.5 c 128,-1,18
 419 481 419 481 419 474 c 128,-1,19
 419 467 419 467 411 459 c 2,20,-1
 154 231 l 1,21,-1
 154 267 l 1,22,-1
 433 29 l 2,23,24
 443 21 443 21 444 13 c 128,-1,25
 445 5 445 5 440.5 -0.5 c 128,-1,26
 436 -6 436 -6 428 -6 c 0,27,28
 419 -6 419 -6 412.5 -2 c 128,-1,29
 406 2 406 2 395 11 c 2,30,-1
 129 237 l 1,31,-1
 127 237 l 1,32,-1
 127 16 l 2,33,34
 127 6 127 6 122 0 c 128,-1,35
 117 -6 117 -6 106 -6 c 0,0,1
EndSplineSet
EndChar

StartChar: l
Encoding: 108 108 352
Width: 275
GlyphClass: 2
Flags: W
AnchorPoint: "Anchor-5" 116 357 basechar 0
AnchorPoint: "Anchor-2" 181 0 basechar 0
AnchorPoint: "Anchor-1" 177 705 basechar 0
AnchorPoint: "Anchor-0" 106 705 basechar 0
LayerCount: 2
Fore
SplineSet
217 -8 m 0,0,1
 154 -8 154 -8 119.5 32.5 c 128,-1,2
 85 73 85 73 85 146 c 2,3,-1
 85 689 l 2,4,5
 85 700 85 700 90.5 705.5 c 128,-1,6
 96 711 96 711 106 711 c 256,7,8
 116 711 116 711 121.5 705.5 c 128,-1,9
 127 700 127 700 127 689 c 2,10,-1
 127 153 l 2,11,12
 127 92 127 92 151 61.5 c 128,-1,13
 175 31 175 31 221 31 c 0,14,15
 231 31 231 31 238 32 c 128,-1,16
 245 33 245 33 252 33 c 0,17,18
 260 33 260 33 264.5 30 c 128,-1,19
 269 27 269 27 269 18 c 0,20,21
 269 7 269 7 263 2 c 128,-1,22
 257 -3 257 -3 243 -6 c 0,23,24
 236 -7 236 -7 229.5 -7.5 c 128,-1,25
 223 -8 223 -8 217 -8 c 0,0,1
EndSplineSet
Substitution2: "'ss02' Style Set 2 lookup 36 subtable" l.ss02
Substitution2: "'aalt' Access All Alternates lookup 0 subtable" l.ss02
EndChar

StartChar: m
Encoding: 109 109 361
Width: 838
GlyphClass: 2
Flags: W
AnchorPoint: "Anchor-2" 420 0 basechar 0
AnchorPoint: "Anchor-0" 420 484 basechar 0
LayerCount: 2
Fore
SplineSet
108 -6 m 0,0,1
 98 -6 98 -6 92.5 0 c 128,-1,2
 87 6 87 6 87 16 c 2,3,-1
 87 468 l 2,4,5
 87 479 87 479 92.5 484.5 c 128,-1,6
 98 490 98 490 108 490 c 256,7,8
 118 490 118 490 123 484.5 c 128,-1,9
 128 479 128 479 128 468 c 2,10,-1
 128 366 l 1,11,-1
 117 366 l 1,12,13
 135 428 135 428 178 460 c 128,-1,14
 221 492 221 492 282 492 c 0,15,16
 347 492 347 492 385.5 460.5 c 128,-1,17
 424 429 424 429 435 365 c 1,18,-1
 420 365 l 1,19,20
 436 423 436 423 482.5 457.5 c 128,-1,21
 529 492 529 492 594 492 c 0,22,23
 647 492 647 492 682 471.5 c 128,-1,24
 717 451 717 451 735 410.5 c 128,-1,25
 753 370 753 370 753 308 c 2,26,-1
 753 16 l 2,27,28
 753 6 753 6 747.5 0 c 128,-1,29
 742 -6 742 -6 732 -6 c 256,30,31
 722 -6 722 -6 716.5 0 c 128,-1,32
 711 6 711 6 711 16 c 2,33,-1
 711 304 l 2,34,35
 711 381 711 381 683.5 417 c 128,-1,36
 656 453 656 453 592 453 c 0,37,38
 523 453 523 453 482 405.5 c 128,-1,39
 441 358 441 358 441 278 c 2,40,-1
 441 16 l 2,41,42
 441 6 441 6 435.5 0 c 128,-1,43
 430 -6 430 -6 420 -6 c 256,44,45
 410 -6 410 -6 404.5 0 c 128,-1,46
 399 6 399 6 399 16 c 2,47,-1
 399 304 l 2,48,49
 399 381 399 381 371.5 417 c 128,-1,50
 344 453 344 453 280 453 c 0,51,52
 211 453 211 453 170 405.5 c 128,-1,53
 129 358 129 358 129 278 c 2,54,-1
 129 16 l 2,55,56
 129 -6 129 -6 108 -6 c 0,0,1
EndSplineSet
EndChar

StartChar: n
Encoding: 110 110 363
Width: 553
GlyphClass: 2
Flags: W
AnchorPoint: "Anchor-2" 277 0 basechar 0
AnchorPoint: "Anchor-0" 277 484 basechar 0
LayerCount: 2
Fore
SplineSet
106 -6 m 0,0,1
 96 -6 96 -6 90.5 0 c 128,-1,2
 85 6 85 6 85 16 c 2,3,-1
 85 468 l 2,4,5
 85 479 85 479 90.5 484.5 c 128,-1,6
 96 490 96 490 106 490 c 256,7,8
 116 490 116 490 121 484.5 c 128,-1,9
 126 479 126 479 126 468 c 2,10,-1
 126 366 l 1,11,-1
 115 366 l 1,12,13
 135 429 135 429 184 460.5 c 128,-1,14
 233 492 233 492 297 492 c 0,15,16
 355 492 355 492 393.5 472 c 128,-1,17
 432 452 432 452 451 411 c 128,-1,18
 470 370 470 370 470 308 c 2,19,-1
 470 16 l 2,20,21
 470 6 470 6 464.5 0 c 128,-1,22
 459 -6 459 -6 449 -6 c 256,23,24
 439 -6 439 -6 433.5 0 c 128,-1,25
 428 6 428 6 428 16 c 2,26,-1
 428 304 l 2,27,28
 428 381 428 381 397 417 c 128,-1,29
 366 453 366 453 297 453 c 0,30,31
 220 453 220 453 173.5 405.5 c 128,-1,32
 127 358 127 358 127 278 c 2,33,-1
 127 16 l 2,34,35
 127 -6 127 -6 106 -6 c 0,0,1
EndSplineSet
EndChar

StartChar: eng
Encoding: 331 331 373
Width: 553
GlyphClass: 1
Flags: W
LayerCount: 2
Fore
SplineSet
304 -192 m 0,0,1
 295 -192 295 -192 289.5 -188.5 c 128,-1,2
 284 -185 284 -185 282 -179 c 128,-1,3
 280 -173 280 -173 281 -167.5 c 128,-1,4
 282 -162 282 -162 287 -158 c 128,-1,5
 292 -154 292 -154 301 -154 c 0,6,7
 365 -152 365 -152 396.5 -121.5 c 128,-1,8
 428 -91 428 -91 428 -22 c 2,9,-1
 428 304 l 2,10,11
 428 381 428 381 397 417 c 128,-1,12
 366 453 366 453 297 453 c 0,13,14
 220 453 220 453 173.5 405.5 c 128,-1,15
 127 358 127 358 127 278 c 2,16,-1
 127 16 l 2,17,18
 127 -6 127 -6 106 -6 c 0,19,20
 96 -6 96 -6 90.5 0 c 128,-1,21
 85 6 85 6 85 16 c 2,22,-1
 85 468 l 2,23,24
 85 479 85 479 90.5 484.5 c 128,-1,25
 96 490 96 490 106 490 c 256,26,27
 116 490 116 490 121 484.5 c 128,-1,28
 126 479 126 479 126 468 c 2,29,-1
 126 366 l 1,30,-1
 115 366 l 1,31,32
 135 429 135 429 184 460.5 c 128,-1,33
 233 492 233 492 297 492 c 0,34,35
 355 492 355 492 393.5 472 c 128,-1,36
 432 452 432 452 451 411 c 128,-1,37
 470 370 470 370 470 308 c 2,38,-1
 470 -21 l 2,39,40
 470 -79 470 -79 449.5 -117 c 128,-1,41
 429 -155 429 -155 392 -173.5 c 128,-1,42
 355 -192 355 -192 304 -192 c 0,0,1
EndSplineSet
EndChar

StartChar: o
Encoding: 111 111 374
Width: 538
GlyphClass: 2
Flags: W
AnchorPoint: "Anchor-5" 269 242 basechar 0
AnchorPoint: "Anchor-3" 328 0 basechar 0
AnchorPoint: "Anchor-2" 269 0 basechar 0
AnchorPoint: "Anchor-1" 315 484 basechar 0
AnchorPoint: "Anchor-0" 269 484 basechar 0
LayerCount: 2
Fore
SplineSet
269 -8 m 0,0,1
 203 -8 203 -8 154.5 23 c 128,-1,2
 106 54 106 54 79.5 110 c 128,-1,3
 53 166 53 166 53 242 c 0,4,5
 53 299 53 299 68 345 c 128,-1,6
 83 391 83 391 111.5 424 c 128,-1,7
 140 457 140 457 180 474.5 c 128,-1,8
 220 492 220 492 269 492 c 0,9,10
 335 492 335 492 383.5 461 c 128,-1,11
 432 430 432 430 458.5 374 c 128,-1,12
 485 318 485 318 485 242 c 0,13,14
 485 185 485 185 470 139 c 128,-1,15
 455 93 455 93 426.5 60 c 128,-1,16
 398 27 398 27 358.5 9.5 c 128,-1,17
 319 -8 319 -8 269 -8 c 0,0,1
269 31 m 0,18,19
 322 31 322 31 361 56 c 128,-1,20
 400 81 400 81 421 128.5 c 128,-1,21
 442 176 442 176 442 242 c 0,22,23
 442 342 442 342 395.5 397.5 c 128,-1,24
 349 453 349 453 269 453 c 0,25,26
 216 453 216 453 177 428 c 128,-1,27
 138 403 138 403 117 356 c 128,-1,28
 96 309 96 309 96 242 c 0,29,30
 96 142 96 142 143 86.5 c 128,-1,31
 190 31 190 31 269 31 c 0,18,19
EndSplineSet
Substitution2: "Single Substitution lookup 29 subtable" ordmasculine
Substitution2: "'aalt' Access All Alternates lookup 0 subtable" ordmasculine
EndChar

StartChar: oslash
Encoding: 248 248 402
Width: 538
GlyphClass: 2
Flags: W
AnchorPoint: "Anchor-5" 269 242 basechar 0
AnchorPoint: "Anchor-0" 268 484 basechar 0
LayerCount: 2
Fore
SplineSet
269 -8 m 0,0,1
 203 -8 203 -8 154.5 23 c 128,-1,2
 106 54 106 54 79.5 110 c 128,-1,3
 53 166 53 166 53 242 c 0,4,5
 53 299 53 299 68 345 c 128,-1,6
 83 391 83 391 111.5 424 c 128,-1,7
 140 457 140 457 180 474.5 c 128,-1,8
 220 492 220 492 269 492 c 0,9,10
 335 492 335 492 383.5 461 c 128,-1,11
 432 430 432 430 458.5 374 c 128,-1,12
 485 318 485 318 485 242 c 0,13,14
 485 185 485 185 470 139 c 128,-1,15
 455 93 455 93 426.5 60 c 128,-1,16
 398 27 398 27 358.5 9.5 c 128,-1,17
 319 -8 319 -8 269 -8 c 0,0,1
269 31 m 0,18,19
 322 31 322 31 361 56 c 128,-1,20
 400 81 400 81 421 128.5 c 128,-1,21
 442 176 442 176 442 242 c 0,22,23
 442 342 442 342 395.5 397.5 c 128,-1,24
 349 453 349 453 269 453 c 0,25,26
 216 453 216 453 177 428 c 128,-1,27
 138 403 138 403 117 356 c 128,-1,28
 96 309 96 309 96 242 c 0,29,30
 96 142 96 142 143 86.5 c 128,-1,31
 190 31 190 31 269 31 c 0,18,19
135 -26 m 2,32,33
 130 -34 130 -34 123 -35.5 c 128,-1,34
 116 -37 116 -37 110.5 -33.5 c 128,-1,35
 105 -30 105 -30 103 -22.5 c 128,-1,36
 101 -15 101 -15 106 -6 c 2,37,-1
 403 510 l 2,38,39
 408 518 408 518 415 519.5 c 128,-1,40
 422 521 422 521 427.5 517.5 c 128,-1,41
 433 514 433 514 435 506.5 c 128,-1,42
 437 499 437 499 432 490 c 2,43,-1
 135 -26 l 2,32,33
EndSplineSet
EndChar

StartChar: oe
Encoding: 339 339 408
Width: 906
GlyphClass: 2
Flags: W
AnchorPoint: "Anchor-2" 464 0 basechar 0
AnchorPoint: "Anchor-0" 464 484 basechar 0
LayerCount: 2
Fore
SplineSet
269 -8 m 0,0,1
 203 -8 203 -8 154.5 23 c 128,-1,2
 106 54 106 54 79.5 110 c 128,-1,3
 53 166 53 166 53 242 c 0,4,5
 53 299 53 299 68 345 c 128,-1,6
 83 391 83 391 111.5 424 c 128,-1,7
 140 457 140 457 180 474.5 c 128,-1,8
 220 492 220 492 269 492 c 0,9,10
 347 492 347 492 400.5 446.5 c 128,-1,11
 454 401 454 401 473 321 c 1,12,-1
 454 321 l 1,13,14
 474 402 474 402 530 447 c 128,-1,15
 586 492 586 492 665 492 c 0,16,17
 725 492 725 492 768.5 464 c 128,-1,18
 812 436 812 436 835 384.5 c 128,-1,19
 858 333 858 333 858 260 c 0,20,21
 858 247 858 247 852.5 240.5 c 128,-1,22
 847 234 847 234 836 234 c 2,23,-1
 466 234 l 1,24,-1
 466 271 l 1,25,-1
 835 271 l 1,26,-1
 819 262 l 1,27,28
 819 321 819 321 801 364 c 128,-1,29
 783 407 783 407 748 430.5 c 128,-1,30
 713 454 713 454 661 454 c 0,31,32
 605 454 605 454 566 426.5 c 128,-1,33
 527 399 527 399 506.5 352 c 128,-1,34
 486 305 486 305 486 246 c 2,35,-1
 486 240 l 2,36,37
 486 142 486 142 533.5 86.5 c 128,-1,38
 581 31 581 31 671 31 c 0,39,40
 708 31 708 31 742.5 41.5 c 128,-1,41
 777 52 777 52 811 79 c 0,42,43
 818 85 818 85 825.5 85.5 c 128,-1,44
 833 86 833 86 838.5 82.5 c 128,-1,45
 844 79 844 79 846.5 73.5 c 128,-1,46
 849 68 849 68 847 61 c 128,-1,47
 845 54 845 54 837 48 c 0,48,49
 805 23 805 23 761 7.5 c 128,-1,50
 717 -8 717 -8 673 -8 c 0,51,52
 586 -8 586 -8 529 35 c 128,-1,53
 472 78 472 78 453 160 c 1,54,-1
 471 160 l 1,55,56
 452 81 452 81 399 36.5 c 128,-1,57
 346 -8 346 -8 269 -8 c 0,0,1
269 31 m 0,58,59
 322 31 322 31 361 56 c 128,-1,60
 400 81 400 81 421 128.5 c 128,-1,61
 442 176 442 176 442 242 c 0,62,63
 442 342 442 342 395.5 397.5 c 128,-1,64
 349 453 349 453 269 453 c 0,65,66
 216 453 216 453 177 428 c 128,-1,67
 138 403 138 403 117 356 c 128,-1,68
 96 309 96 309 96 242 c 0,69,70
 96 142 96 142 143 86.5 c 128,-1,71
 190 31 190 31 269 31 c 0,58,59
EndSplineSet
EndChar

StartChar: p
Encoding: 112 112 409
Width: 568
GlyphClass: 2
Flags: W
AnchorPoint: "Anchor-2" 282 0 basechar 0
AnchorPoint: "Anchor-0" 282 484 basechar 0
LayerCount: 2
Fore
SplineSet
106 -186 m 256,0,1
 96 -186 96 -186 90.5 -180 c 128,-1,2
 85 -174 85 -174 85 -164 c 2,3,-1
 85 468 l 2,4,5
 85 479 85 479 90.5 484.5 c 128,-1,6
 96 490 96 490 106 490 c 256,7,8
 116 490 116 490 121.5 484.5 c 128,-1,9
 127 479 127 479 127 468 c 2,10,-1
 127 358 l 1,11,-1
 116 358 l 1,12,13
 133 420 133 420 181.5 456 c 128,-1,14
 230 492 230 492 300 492 c 0,15,16
 366 492 366 492 414 461.5 c 128,-1,17
 462 431 462 431 488.5 375 c 128,-1,18
 515 319 515 319 515 242 c 0,19,20
 515 166 515 166 489 109.5 c 128,-1,21
 463 53 463 53 414.5 22.5 c 128,-1,22
 366 -8 366 -8 300 -8 c 0,23,24
 230 -8 230 -8 181.5 28.5 c 128,-1,25
 133 65 133 65 116 126 c 1,26,-1
 127 126 l 1,27,-1
 127 -164 l 2,28,29
 127 -174 127 -174 121.5 -180 c 128,-1,30
 116 -186 116 -186 106 -186 c 256,0,1
299 31 m 0,31,32
 352 31 352 31 391 56 c 128,-1,33
 430 81 430 81 451 128.5 c 128,-1,34
 472 176 472 176 472 242 c 0,35,36
 472 342 472 342 425.5 397.5 c 128,-1,37
 379 453 379 453 299 453 c 0,38,39
 246 453 246 453 207 428 c 128,-1,40
 168 403 168 403 147 356 c 128,-1,41
 126 309 126 309 126 242 c 0,42,43
 126 142 126 142 173 86.5 c 128,-1,44
 220 31 220 31 299 31 c 0,31,32
EndSplineSet
EndChar

StartChar: thorn
Encoding: 254 254 410
Width: 568
GlyphClass: 2
Flags: W
AnchorPoint: "Anchor-2" 281 0 basechar 0
AnchorPoint: "Anchor-0" 281 484 basechar 0
LayerCount: 2
Fore
SplineSet
106 -186 m 256,0,1
 96 -186 96 -186 90.5 -180 c 128,-1,2
 85 -174 85 -174 85 -164 c 2,3,-1
 85 689 l 2,4,5
 85 700 85 700 90.5 705.5 c 128,-1,6
 96 711 96 711 106 711 c 256,7,8
 116 711 116 711 121.5 705.5 c 128,-1,9
 127 700 127 700 127 689 c 2,10,-1
 127 358 l 1,11,-1
 116 358 l 1,12,13
 133 420 133 420 181.5 456 c 128,-1,14
 230 492 230 492 300 492 c 0,15,16
 366 492 366 492 414 461.5 c 128,-1,17
 462 431 462 431 488.5 375 c 128,-1,18
 515 319 515 319 515 242 c 0,19,20
 515 166 515 166 489 109.5 c 128,-1,21
 463 53 463 53 414.5 22.5 c 128,-1,22
 366 -8 366 -8 300 -8 c 0,23,24
 230 -8 230 -8 181.5 28.5 c 128,-1,25
 133 65 133 65 116 126 c 1,26,-1
 127 126 l 1,27,-1
 127 -164 l 2,28,29
 127 -174 127 -174 121.5 -180 c 128,-1,30
 116 -186 116 -186 106 -186 c 256,0,1
299 31 m 0,31,32
 352 31 352 31 391 56 c 128,-1,33
 430 81 430 81 451 128.5 c 128,-1,34
 472 176 472 176 472 242 c 0,35,36
 472 342 472 342 425.5 397.5 c 128,-1,37
 379 453 379 453 299 453 c 0,38,39
 246 453 246 453 207 428 c 128,-1,40
 168 403 168 403 147 356 c 128,-1,41
 126 309 126 309 126 242 c 0,42,43
 126 142 126 142 173 86.5 c 128,-1,44
 220 31 220 31 299 31 c 0,31,32
EndSplineSet
EndChar

StartChar: q
Encoding: 113 113 411
Width: 568
GlyphClass: 2
Flags: W
AnchorPoint: "Anchor-2" 282 0 basechar 0
AnchorPoint: "Anchor-0" 282 484 basechar 0
LayerCount: 2
Fore
SplineSet
462 -186 m 256,0,1
 452 -186 452 -186 446.5 -180 c 128,-1,2
 441 -174 441 -174 441 -164 c 2,3,-1
 441 126 l 1,4,-1
 452 126 l 1,5,6
 436 65 436 65 387 28.5 c 128,-1,7
 338 -8 338 -8 268 -8 c 0,8,9
 202 -8 202 -8 153.5 22.5 c 128,-1,10
 105 53 105 53 79 109.5 c 128,-1,11
 53 166 53 166 53 242 c 0,12,13
 53 319 53 319 79.5 375 c 128,-1,14
 106 431 106 431 154.5 461.5 c 128,-1,15
 203 492 203 492 268 492 c 0,16,17
 338 492 338 492 387 456 c 128,-1,18
 436 420 436 420 452 358 c 1,19,-1
 441 358 l 1,20,-1
 441 468 l 2,21,22
 441 479 441 479 446.5 484.5 c 128,-1,23
 452 490 452 490 462 490 c 256,24,25
 472 490 472 490 477.5 484.5 c 128,-1,26
 483 479 483 479 483 468 c 2,27,-1
 483 -164 l 2,28,29
 483 -174 483 -174 477.5 -180 c 128,-1,30
 472 -186 472 -186 462 -186 c 256,0,1
269 31 m 0,31,32
 322 31 322 31 361 56 c 128,-1,33
 400 81 400 81 421 128.5 c 128,-1,34
 442 176 442 176 442 242 c 0,35,36
 442 342 442 342 395.5 397.5 c 128,-1,37
 349 453 349 453 269 453 c 0,38,39
 216 453 216 453 177 428 c 128,-1,40
 138 403 138 403 117 356 c 128,-1,41
 96 309 96 309 96 242 c 0,42,43
 96 142 96 142 143 86.5 c 128,-1,44
 190 31 190 31 269 31 c 0,31,32
EndSplineSet
EndChar

StartChar: r
Encoding: 114 114 412
Width: 327
GlyphClass: 2
Flags: W
AnchorPoint: "Anchor-2" 106 0 basechar 0
AnchorPoint: "Anchor-0" 204 484 basechar 0
LayerCount: 2
Fore
SplineSet
106 -6 m 0,0,1
 96 -6 96 -6 90.5 0 c 128,-1,2
 85 6 85 6 85 16 c 2,3,-1
 85 468 l 2,4,5
 85 479 85 479 90.5 484.5 c 128,-1,6
 96 490 96 490 106 490 c 256,7,8
 116 490 116 490 121 484.5 c 128,-1,9
 126 479 126 479 126 468 c 2,10,-1
 126 371 l 1,11,-1
 116 371 l 1,12,13
 135 430 135 430 183.5 462 c 128,-1,14
 232 494 232 494 296 494 c 0,15,16
 305 494 305 494 311.5 490.5 c 128,-1,17
 318 487 318 487 318 477 c 256,18,19
 318 467 318 467 313 461.5 c 128,-1,20
 308 456 308 456 296 455 c 2,21,-1
 284 454 l 2,22,23
 210 447 210 447 168.5 404 c 128,-1,24
 127 361 127 361 127 290 c 2,25,-1
 127 16 l 2,26,27
 127 6 127 6 122 0 c 128,-1,28
 117 -6 117 -6 106 -6 c 0,0,1
EndSplineSet
EndChar

StartChar: s
Encoding: 115 115 420
Width: 475
GlyphClass: 2
Flags: W
AnchorPoint: "Anchor-2" 236 0 basechar 0
AnchorPoint: "Anchor-0" 246 484 basechar 0
LayerCount: 2
Fore
SplineSet
236 -8 m 0,0,1
 190 -8 190 -8 147 5 c 128,-1,2
 104 18 104 18 63 49 c 0,3,4
 58 53 58 53 56.5 59 c 128,-1,5
 55 65 55 65 56.5 71 c 128,-1,6
 58 77 58 77 62.5 81.5 c 128,-1,7
 67 86 67 86 73.5 86 c 128,-1,8
 80 86 80 86 87 81 c 0,9,10
 125 53 125 53 163 42 c 128,-1,11
 201 31 201 31 239 31 c 0,12,13
 304 31 304 31 338.5 56 c 128,-1,14
 373 81 373 81 373 124 c 0,15,16
 373 158 373 158 350.5 177.5 c 128,-1,17
 328 197 328 197 278 209 c 2,18,-1
 195 229 l 2,19,20
 132 244 132 244 102.5 275 c 128,-1,21
 73 306 73 306 73 355 c 0,22,23
 73 396 73 396 94.5 427 c 128,-1,24
 116 458 116 458 155.5 475 c 128,-1,25
 195 492 195 492 247 492 c 0,26,27
 291 492 291 492 331.5 478 c 128,-1,28
 372 464 372 464 400 436 c 0,29,30
 406 430 406 430 407.5 423.5 c 128,-1,31
 409 417 409 417 407 411 c 128,-1,32
 405 405 405 405 400 402 c 128,-1,33
 395 399 395 399 388.5 399.5 c 128,-1,34
 382 400 382 400 375 406 c 0,35,36
 347 430 347 430 314 441.5 c 128,-1,37
 281 453 281 453 246 453 c 0,38,39
 185 453 185 453 151 426.5 c 128,-1,40
 117 400 117 400 117 356 c 0,41,42
 117 322 117 322 138 301 c 128,-1,43
 159 280 159 280 205 269 c 2,44,-1
 288 249 l 2,45,46
 353 233 353 233 385 204 c 128,-1,47
 417 175 417 175 417 126 c 0,48,49
 417 65 417 65 368 28.5 c 128,-1,50
 319 -8 319 -8 236 -8 c 0,0,1
EndSplineSet
EndChar

StartChar: germandbls
Encoding: 223 223 431
Width: 581
GlyphClass: 1
Flags: W
LayerCount: 2
Fore
SplineSet
374 -8 m 0,0,1
 331 -8 331 -8 287.5 5.5 c 128,-1,2
 244 19 244 19 212 45 c 0,3,4
 205 50 205 50 203.5 56.5 c 128,-1,5
 202 63 202 63 203.5 69 c 128,-1,6
 205 75 205 75 210 78.5 c 128,-1,7
 215 82 215 82 221.5 82 c 128,-1,8
 228 82 228 82 236 77 c 0,9,10
 269 53 269 53 305 42 c 128,-1,11
 341 31 341 31 374 31 c 0,12,13
 433 31 433 31 467 57 c 128,-1,14
 501 83 501 83 501 126 c 0,15,16
 501 161 501 161 474.5 184 c 128,-1,17
 448 207 448 207 385 227 c 0,18,19
 303 253 303 253 271 283.5 c 128,-1,20
 239 314 239 314 239 360 c 0,21,22
 239 381 239 381 247 400 c 128,-1,23
 255 419 255 419 273 440 c 128,-1,24
 291 461 291 461 322 486 c 0,25,26
 358 515 358 515 372.5 539 c 128,-1,27
 387 563 387 563 387 591 c 0,28,29
 387 630 387 630 360 652 c 128,-1,30
 333 674 333 674 285 674 c 0,31,32
 209 674 209 674 168 628.5 c 128,-1,33
 127 583 127 583 127 500 c 2,34,-1
 127 16 l 2,35,36
 127 6 127 6 121.5 0 c 128,-1,37
 116 -6 116 -6 106 -6 c 256,38,39
 96 -6 96 -6 90.5 0 c 128,-1,40
 85 6 85 6 85 16 c 2,41,-1
 85 499 l 2,42,43
 85 600 85 600 137.5 656.5 c 128,-1,44
 190 713 190 713 283 713 c 0,45,46
 329 713 329 713 361.5 698.5 c 128,-1,47
 394 684 394 684 412 657 c 128,-1,48
 430 630 430 630 430 594 c 0,49,50
 430 554 430 554 411 524 c 128,-1,51
 392 494 392 494 347 456 c 0,52,53
 322 436 322 436 308 420.5 c 128,-1,54
 294 405 294 405 288.5 391.5 c 128,-1,55
 283 378 283 378 283 362 c 0,56,57
 283 331 283 331 308.5 309 c 128,-1,58
 334 287 334 287 398 267 c 0,59,60
 478 242 478 242 511.5 209.5 c 128,-1,61
 545 177 545 177 545 124 c 0,62,63
 545 85 545 85 523.5 55.5 c 128,-1,64
 502 26 502 26 463.5 9 c 128,-1,65
 425 -8 425 -8 374 -8 c 0,0,1
EndSplineSet
Substitution2: "Single Substitution lookup 39 subtable" germandbls.calt
Substitution2: "Single Substitution lookup 38 subtable" germandbls.calt
Substitution2: "'aalt' Access All Alternates lookup 0 subtable" germandbls.calt
EndChar

StartChar: t
Encoding: 116 116 432
Width: 320
GlyphClass: 2
Flags: W
AnchorPoint: "Anchor-5" 151 272 basechar 0
AnchorPoint: "Anchor-2" 203 0 basechar 0
AnchorPoint: "Anchor-1" 225 705 basechar 0
AnchorPoint: "Anchor-0" 124 635 basechar 0
LayerCount: 2
Fore
SplineSet
255 -8 m 0,0,1
 205 -8 205 -8 171 11.5 c 128,-1,2
 137 31 137 31 120 67.5 c 128,-1,3
 103 104 103 104 103 156 c 2,4,-1
 103 448 l 1,5,-1
 22 448 l 2,6,7
 12 448 12 448 6 453 c 128,-1,8
 0 458 0 458 0 466 c 256,9,10
 0 474 0 474 6 479 c 128,-1,11
 12 484 12 484 22 484 c 2,12,-1
 103 484 l 1,13,-1
 103 619 l 2,14,15
 103 630 103 630 108.5 635.5 c 128,-1,16
 114 641 114 641 124 641 c 256,17,18
 134 641 134 641 139.5 635.5 c 128,-1,19
 145 630 145 630 145 619 c 2,20,-1
 145 484 l 1,21,-1
 288 484 l 2,22,23
 299 484 299 484 304.5 479 c 128,-1,24
 310 474 310 474 310 466 c 256,25,26
 310 458 310 458 304.5 453 c 128,-1,27
 299 448 299 448 288 448 c 2,28,-1
 145 448 l 1,29,-1
 145 165 l 2,30,31
 145 100 145 100 171 65.5 c 128,-1,32
 197 31 197 31 258 31 c 0,33,34
 279 31 279 31 292.5 35.5 c 128,-1,35
 306 40 306 40 315 40 c 0,36,37
 321 40 321 40 325.5 35 c 128,-1,38
 330 30 330 30 330 21 c 0,39,40
 330 16 330 16 327.5 10.5 c 128,-1,41
 325 5 325 5 318 3 c 0,42,43
 308 -1 308 -1 289.5 -4.5 c 128,-1,44
 271 -8 271 -8 255 -8 c 0,0,1
EndSplineSet
EndChar

StartChar: u
Encoding: 117 117 440
Width: 545
GlyphClass: 2
Flags: W
AnchorPoint: "Anchor-3" 460 0 basechar 0
AnchorPoint: "Anchor-2" 273 0 basechar 0
AnchorPoint: "Anchor-1" 420 484 basechar 0
AnchorPoint: "Anchor-0" 273 485 basechar 0
LayerCount: 2
Fore
SplineSet
254 -8 m 0,0,1
 197 -8 197 -8 159 13 c 128,-1,2
 121 34 121 34 102 75 c 128,-1,3
 83 116 83 116 83 177 c 2,4,-1
 83 468 l 2,5,6
 83 479 83 479 88.5 484.5 c 128,-1,7
 94 490 94 490 104 490 c 256,8,9
 114 490 114 490 119.5 484.5 c 128,-1,10
 125 479 125 479 125 468 c 2,11,-1
 125 181 l 2,12,13
 125 105 125 105 156 68 c 128,-1,14
 187 31 187 31 254 31 c 0,15,16
 327 31 327 31 372.5 79.5 c 128,-1,17
 418 128 418 128 418 207 c 2,18,-1
 418 468 l 2,19,20
 418 479 418 479 423.5 484.5 c 128,-1,21
 429 490 429 490 439 490 c 256,22,23
 449 490 449 490 454.5 484.5 c 128,-1,24
 460 479 460 479 460 468 c 2,25,-1
 460 16 l 2,26,27
 460 -6 460 -6 440 -6 c 0,28,29
 430 -6 430 -6 424.5 0 c 128,-1,30
 419 6 419 6 419 16 c 2,31,-1
 419 121 l 1,32,-1
 431 121 l 1,33,34
 412 58 412 58 364 25 c 128,-1,35
 316 -8 316 -8 254 -8 c 0,0,1
EndSplineSet
EndChar

StartChar: uhorn
Encoding: 432 432 450
Width: 545
GlyphClass: 2
Flags: W
AnchorPoint: "Anchor-2" 273 0 basechar 0
AnchorPoint: "Anchor-0" 273 484 basechar 0
LayerCount: 2
Fore
SplineSet
254 -8 m 0,0,1
 197 -8 197 -8 159 13 c 128,-1,2
 121 34 121 34 102 75 c 128,-1,3
 83 116 83 116 83 177 c 2,4,-1
 83 468 l 2,5,6
 83 479 83 479 88.5 484.5 c 128,-1,7
 94 490 94 490 104 490 c 256,8,9
 114 490 114 490 119.5 484.5 c 128,-1,10
 125 479 125 479 125 468 c 2,11,-1
 125 181 l 2,12,13
 125 105 125 105 156 68 c 128,-1,14
 187 31 187 31 254 31 c 0,15,16
 327 31 327 31 372.5 79.5 c 128,-1,17
 418 128 418 128 418 207 c 2,18,-1
 418 463 l 2,19,20
 418 474 418 474 423.5 479.5 c 128,-1,21
 429 485 429 485 439 485 c 0,22,23
 478 488 478 488 500 501 c 128,-1,24
 522 514 522 514 531 538 c 128,-1,25
 540 562 540 562 540 598 c 0,26,27
 540 622 540 622 560 622 c 0,28,29
 570 622 570 622 575 616.5 c 128,-1,30
 580 611 580 611 580 598 c 0,31,32
 580 533 580 533 549.5 495 c 128,-1,33
 519 457 519 457 460 448 c 1,34,-1
 460 16 l 2,35,36
 460 -6 460 -6 440 -6 c 0,37,38
 430 -6 430 -6 424.5 0 c 128,-1,39
 419 6 419 6 419 16 c 2,40,-1
 419 121 l 1,41,-1
 431 121 l 1,42,43
 412 58 412 58 364 25 c 128,-1,44
 316 -8 316 -8 254 -8 c 0,0,1
EndSplineSet
EndChar

StartChar: uogonek
Encoding: 371 371 460
Width: 545
GlyphClass: 1
Flags: W
LayerCount: 2
Fore
SplineSet
419 121 m 1,0,-1
 431 121 l 1,1,2
 412 58 412 58 364 25 c 128,-1,3
 316 -8 316 -8 254 -8 c 0,4,5
 197 -8 197 -8 159 13 c 128,-1,6
 121 34 121 34 102 75 c 128,-1,7
 83 116 83 116 83 177 c 2,8,-1
 83 468 l 2,9,10
 83 479 83 479 88.5 484.5 c 128,-1,11
 94 490 94 490 104 490 c 256,12,13
 114 490 114 490 119.5 484.5 c 128,-1,14
 125 479 125 479 125 468 c 2,15,-1
 125 181 l 2,16,17
 125 105 125 105 156 68 c 128,-1,18
 187 31 187 31 254 31 c 0,19,20
 327 31 327 31 372.5 79.5 c 128,-1,21
 418 128 418 128 418 207 c 2,22,-1
 418 468 l 2,23,24
 418 479 418 479 423.5 484.5 c 128,-1,25
 429 490 429 490 439 490 c 256,26,27
 449 490 449 490 454.5 484.5 c 128,-1,28
 460 479 460 479 460 468 c 2,29,-1
 460 16 l 2,30,31
 460 8 460 8 456.5 2.5 c 128,-1,32
 453 -3 453 -3 448 -6 c 0,33,34
 426 -19 426 -19 407 -41 c 128,-1,35
 388 -63 388 -63 388 -94 c 256,36,37
 388 -125 388 -125 405.5 -139.5 c 128,-1,38
 423 -154 423 -154 448 -154 c 0,39,40
 459 -154 459 -154 468.5 -152 c 128,-1,41
 478 -150 478 -150 487 -147 c 0,42,43
 497 -144 497 -144 502.5 -147.5 c 128,-1,44
 508 -151 508 -151 509.5 -158 c 128,-1,45
 511 -165 511 -165 508 -171.5 c 128,-1,46
 505 -178 505 -178 498 -181 c 0,47,48
 484 -186 484 -186 470.5 -188 c 128,-1,49
 457 -190 457 -190 443 -190 c 0,50,51
 402 -190 402 -190 375.5 -165 c 128,-1,52
 349 -140 349 -140 349 -98 c 0,53,54
 349 -62 349 -62 371 -28.5 c 128,-1,55
 393 5 393 5 432 27 c 1,56,-1
 421 6 l 1,57,58
 420 8 420 8 419.5 11.5 c 128,-1,59
 419 15 419 15 419 18 c 2,60,-1
 419 121 l 1,0,-1
EndSplineSet
EndChar

StartChar: v
Encoding: 118 118 464
Width: 504
GlyphClass: 2
Flags: W
AnchorPoint: "Anchor-2" 252 0 basechar 0
AnchorPoint: "Anchor-0" 252 484 basechar 0
LayerCount: 2
Fore
SplineSet
252 -6 m 256,0,1
 241 -6 241 -6 233 0.5 c 128,-1,2
 225 7 225 7 219 20 c 2,3,-1
 33 455 l 2,4,5
 29 465 29 465 30 472.5 c 128,-1,6
 31 480 31 480 36.5 485 c 128,-1,7
 42 490 42 490 52 490 c 0,8,9
 61 490 61 490 65.5 485.5 c 128,-1,10
 70 481 70 481 74 473 c 2,11,-1
 264 15 l 1,12,-1
 240 15 l 1,13,-1
 431 473 l 2,14,15
 435 481 435 481 439.5 485.5 c 128,-1,16
 444 490 444 490 454 490 c 256,17,18
 464 490 464 490 468.5 485 c 128,-1,19
 473 480 473 480 473.5 472.5 c 128,-1,20
 474 465 474 465 470 456 c 2,21,-1
 285 20 l 2,22,23
 280 7 280 7 271.5 0.5 c 128,-1,24
 263 -6 263 -6 252 -6 c 256,0,1
EndSplineSet
EndChar

StartChar: w
Encoding: 119 119 465
Width: 830
GlyphClass: 2
Flags: W
AnchorPoint: "Anchor-2" 415 0 basechar 0
AnchorPoint: "Anchor-0" 415 484 basechar 0
LayerCount: 2
Fore
SplineSet
235 -6 m 0,0,1
 225 -6 225 -6 216.5 0 c 128,-1,2
 208 6 208 6 203 19 c 2,3,-1
 50 455 l 2,4,5
 46 467 46 467 48 474.5 c 128,-1,6
 50 482 50 482 55.5 486 c 128,-1,7
 61 490 61 490 68 490 c 0,8,9
 77 490 77 490 82 486 c 128,-1,10
 87 482 87 482 90 472 c 2,11,-1
 247 13 l 1,12,-1
 221 13 l 1,13,-1
 383 465 l 2,14,15
 388 478 388 478 396.5 484 c 128,-1,16
 405 490 405 490 416 490 c 256,17,18
 427 490 427 490 436 484 c 128,-1,19
 445 478 445 478 449 465 c 2,20,-1
 607 13 l 1,21,-1
 581 13 l 1,22,-1
 742 472 l 2,23,24
 746 483 746 483 750.5 486.5 c 128,-1,25
 755 490 755 490 765 490 c 256,26,27
 775 490 775 490 779 485 c 128,-1,28
 783 480 783 480 783.5 472 c 128,-1,29
 784 464 784 464 781 455 c 2,30,-1
 626 19 l 2,31,32
 622 6 622 6 613.5 0 c 128,-1,33
 605 -6 605 -6 595 -6 c 256,34,35
 585 -6 585 -6 576.5 0 c 128,-1,36
 568 6 568 6 563 19 c 2,37,-1
 401 477 l 1,38,-1
 432 477 l 1,39,-1
 267 19 l 2,40,41
 263 6 263 6 254.5 0 c 128,-1,42
 246 -6 246 -6 235 -6 c 0,0,1
EndSplineSet
EndChar

StartChar: x
Encoding: 120 120 470
Width: 506
GlyphClass: 2
Flags: W
AnchorPoint: "Anchor-2" 253 0 basechar 0
AnchorPoint: "Anchor-0" 253 484 basechar 0
LayerCount: 2
Fore
SplineSet
60 -7 m 0,0,1
 54 -7 54 -7 48.5 -3 c 128,-1,2
 43 1 43 1 42.5 8.5 c 128,-1,3
 42 16 42 16 50 26 c 2,4,-1
 238 263 l 1,5,-1
 238 237 l 1,6,-1
 62 457 l 2,7,8
 54 467 54 467 54.5 474.5 c 128,-1,9
 55 482 55 482 60.5 486 c 128,-1,10
 66 490 66 490 72 490 c 0,11,12
 80 490 80 490 86 486.5 c 128,-1,13
 92 483 92 483 97 476 c 2,14,-1
 261 270 l 1,15,-1
 246 270 l 1,16,-1
 410 476 l 2,17,18
 415 483 415 483 421 486.5 c 128,-1,19
 427 490 427 490 435 490 c 0,20,21
 441 490 441 490 446.5 486 c 128,-1,22
 452 482 452 482 452.5 474.5 c 128,-1,23
 453 467 453 467 445 457 c 2,24,-1
 271 240 l 1,25,-1
 271 259 l 1,26,-1
 457 26 l 2,27,28
 465 16 465 16 464.5 8.5 c 128,-1,29
 464 1 464 1 458.5 -3 c 128,-1,30
 453 -7 453 -7 447 -7 c 0,31,32
 439 -7 439 -7 432.5 -3.5 c 128,-1,33
 426 0 426 0 420 7 c 2,34,-1
 245 227 l 1,35,-1
 261 227 l 1,36,-1
 86 7 l 2,37,38
 81 0 81 0 74.5 -3.5 c 128,-1,39
 68 -7 68 -7 60 -7 c 0,0,1
EndSplineSet
EndChar

StartChar: y
Encoding: 121 121 471
Width: 504
GlyphClass: 2
Flags: W
AnchorPoint: "Anchor-2" 371 0 basechar 0
AnchorPoint: "Anchor-0" 252 484 basechar 0
LayerCount: 2
Fore
SplineSet
180 -186 m 0,0,1
 171 -186 171 -186 166 -181 c 128,-1,2
 161 -176 161 -176 161 -168 c 128,-1,3
 161 -160 161 -160 164 -152 c 2,4,-1
 233 7 l 1,5,-1
 233 -13 l 1,6,-1
 33 455 l 2,7,8
 29 465 29 465 30 472.5 c 128,-1,9
 31 480 31 480 36.5 485 c 128,-1,10
 42 490 42 490 52 490 c 0,11,12
 61 490 61 490 65.5 485.5 c 128,-1,13
 70 481 70 481 74 473 c 2,14,-1
 264 14 l 1,15,-1
 240 14 l 1,16,-1
 431 473 l 2,17,18
 435 482 435 482 439.5 486 c 128,-1,19
 444 490 444 490 454 490 c 256,20,21
 464 490 464 490 468.5 485 c 128,-1,22
 473 480 473 480 473.5 472.5 c 128,-1,23
 474 465 474 465 470 456 c 2,24,-1
 204 -168 l 2,25,26
 200 -178 200 -178 195 -182 c 128,-1,27
 190 -186 190 -186 180 -186 c 0,0,1
EndSplineSet
EndChar

StartChar: uni01B4
Encoding: 436 436 478
Width: 534
GlyphClass: 1
Flags: W
LayerCount: 2
Fore
SplineSet
180 -186 m 0,0,1
 171 -186 171 -186 166 -181 c 128,-1,2
 161 -176 161 -176 161 -168 c 128,-1,3
 161 -160 161 -160 164 -152 c 2,4,-1
 233 7 l 1,5,-1
 233 -13 l 1,6,-1
 33 457 l 2,7,8
 29 467 29 467 30 474 c 128,-1,9
 31 481 31 481 36.5 485.5 c 128,-1,10
 42 490 42 490 52 490 c 0,11,12
 61 490 61 490 66 485.5 c 128,-1,13
 71 481 71 481 75 473 c 2,14,-1
 264 15 l 1,15,-1
 240 15 l 1,16,-1
 401 402 l 2,17,18
 414 433 414 433 430.5 453 c 128,-1,19
 447 473 447 473 469.5 482.5 c 128,-1,20
 492 492 492 492 522 492 c 0,21,22
 549 492 549 492 561.5 487.5 c 128,-1,23
 574 483 574 483 574 471 c 0,24,25
 574 463 574 463 568.5 457.5 c 128,-1,26
 563 452 563 452 555 452 c 0,27,28
 549 452 549 452 542 453 c 128,-1,29
 535 454 535 454 527 454 c 0,30,31
 494 454 494 454 474 435.5 c 128,-1,32
 454 417 454 417 434 370 c 2,33,-1
 204 -168 l 2,34,35
 200 -178 200 -178 195 -182 c 128,-1,36
 190 -186 190 -186 180 -186 c 0,0,1
EndSplineSet
EndChar

StartChar: z
Encoding: 122 122 482
Width: 454
GlyphClass: 2
Flags: W
AnchorPoint: "Anchor-2" 235 0 basechar 0
AnchorPoint: "Anchor-0" 235 484 basechar 0
LayerCount: 2
Fore
SplineSet
77 0 m 2,0,1
 69 0 69 0 64.5 3 c 128,-1,2
 60 6 60 6 58 11.5 c 128,-1,3
 56 17 56 17 58 24 c 128,-1,4
 60 31 60 31 66 38 c 2,5,-1
 369 461 l 1,6,-1
 369 448 l 1,7,-1
 73 448 l 2,8,9
 64 448 64 448 59 453 c 128,-1,10
 54 458 54 458 54 466 c 256,11,12
 54 474 54 474 59 479 c 128,-1,13
 64 484 64 484 73 484 c 2,14,-1
 390 484 l 2,15,16
 399 484 399 484 404.5 481 c 128,-1,17
 410 478 410 478 412 473 c 128,-1,18
 414 468 414 468 412.5 461.5 c 128,-1,19
 411 455 411 455 406 448 c 2,20,-1
 100 22 l 1,21,-1
 100 36 l 1,22,-1
 408 36 l 2,23,24
 427 36 427 36 427 18 c 0,25,26
 427 10 427 10 422 5 c 128,-1,27
 417 0 417 0 408 0 c 2,28,-1
 77 0 l 2,0,1
EndSplineSet
EndChar

StartChar: germandbls.calt
Encoding: 65540 -1 487
Width: 697
GlyphClass: 1
Flags: W
LayerCount: 2
Fore
SplineSet
413 -8 m 0,0,1
 358 -8 358 -8 309.5 7 c 128,-1,2
 261 22 261 22 226 51 c 0,3,4
 220 56 220 56 218 62.5 c 128,-1,5
 216 69 216 69 218.5 75.5 c 128,-1,6
 221 82 221 82 225.5 86 c 128,-1,7
 230 90 230 90 237 90 c 128,-1,8
 244 90 244 90 251 84 c 0,9,10
 286 56 286 56 326.5 44 c 128,-1,11
 367 32 367 32 413 32 c 0,12,13
 496 32 496 32 539 73 c 128,-1,14
 582 114 582 114 582 186 c 0,15,16
 582 257 582 257 537.5 296 c 128,-1,17
 493 335 493 335 402 335 c 2,18,-1
 271 335 l 2,19,20
 261 335 261 335 255 340.5 c 128,-1,21
 249 346 249 346 249 355 c 256,22,23
 249 364 249 364 255 369 c 128,-1,24
 261 374 261 374 271 374 c 2,25,-1
 375 374 l 2,26,27
 452 374 452 374 498 412.5 c 128,-1,28
 544 451 544 451 544 524 c 256,29,30
 544 597 544 597 496 635 c 128,-1,31
 448 673 448 673 359 673 c 0,32,33
 251 673 251 673 194.5 621.5 c 128,-1,34
 138 570 138 570 138 467 c 2,35,-1
 138 16 l 2,36,37
 138 6 138 6 132.5 0 c 128,-1,38
 127 -6 127 -6 117 -6 c 256,39,40
 107 -6 107 -6 101.5 0 c 128,-1,41
 96 6 96 6 96 16 c 2,42,-1
 96 470 l 2,43,44
 96 550 96 550 127.5 604 c 128,-1,45
 159 658 159 658 218 685.5 c 128,-1,46
 277 713 277 713 358 713 c 0,47,48
 428 713 428 713 479.5 690.5 c 128,-1,49
 531 668 531 668 559.5 627 c 128,-1,50
 588 586 588 586 588 529 c 0,51,52
 588 462 588 462 552.5 414 c 128,-1,53
 517 366 517 366 456 353 c 1,54,-1
 456 367 l 1,55,56
 508 361 508 361 546 337.5 c 128,-1,57
 584 314 584 314 605 276 c 128,-1,58
 626 238 626 238 626 186 c 0,59,60
 626 124 626 124 600.5 80.5 c 128,-1,61
 575 37 575 37 527.5 14.5 c 128,-1,62
 480 -8 480 -8 413 -8 c 0,0,1
EndSplineSet
EndChar

StartChar: a.ss01
Encoding: 65542 -1 489
Width: 568
GlyphClass: 2
Flags: W
AnchorPoint: "Anchor-3" 483 0 basechar 0
AnchorPoint: "Anchor-2" 280 0 basechar 0
AnchorPoint: "Anchor-0" 280 484 basechar 0
LayerCount: 2
Fore
SplineSet
268 -8 m 0,0,1
 203 -8 203 -8 154.5 22.5 c 128,-1,2
 106 53 106 53 79.5 109.5 c 128,-1,3
 53 166 53 166 53 242 c 0,4,5
 53 319 53 319 79 375 c 128,-1,6
 105 431 105 431 153.5 461.5 c 128,-1,7
 202 492 202 492 268 492 c 0,8,9
 338 492 338 492 387 456 c 128,-1,10
 436 420 436 420 452 358 c 1,11,-1
 441 358 l 1,12,-1
 441 468 l 2,13,14
 441 479 441 479 446.5 484.5 c 128,-1,15
 452 490 452 490 462 490 c 256,16,17
 472 490 472 490 477.5 484.5 c 128,-1,18
 483 479 483 479 483 468 c 2,19,-1
 483 16 l 2,20,21
 483 6 483 6 477.5 0 c 128,-1,22
 472 -6 472 -6 462 -6 c 256,23,24
 452 -6 452 -6 446.5 0 c 128,-1,25
 441 6 441 6 441 16 c 2,26,-1
 441 126 l 1,27,-1
 452 126 l 1,28,29
 436 65 436 65 387 28.5 c 128,-1,30
 338 -8 338 -8 268 -8 c 0,0,1
269 31 m 0,31,32
 322 31 322 31 361 56 c 128,-1,33
 400 81 400 81 421 128.5 c 128,-1,34
 442 176 442 176 442 242 c 0,35,36
 442 342 442 342 395.5 397.5 c 128,-1,37
 349 453 349 453 269 453 c 0,38,39
 216 453 216 453 177 428 c 128,-1,40
 138 403 138 403 117 356 c 128,-1,41
 96 309 96 309 96 242 c 0,42,43
 96 142 96 142 143 86.5 c 128,-1,44
 190 31 190 31 269 31 c 0,31,32
EndSplineSet
EndChar

StartChar: l.ss02
Encoding: 65569 -1 516
Width: 212
GlyphClass: 2
Flags: W
AnchorPoint: "Anchor-5" 106 357 basechar 0
AnchorPoint: "Anchor-2" 106 0 basechar 0
AnchorPoint: "Anchor-1" 177 705 basechar 0
AnchorPoint: "Anchor-0" 106 705 basechar 0
LayerCount: 2
Fore
SplineSet
106 -6 m 0,0,1
 96 -6 96 -6 90.5 0 c 128,-1,2
 85 6 85 6 85 16 c 2,3,-1
 85 689 l 2,4,5
 85 700 85 700 90.5 705.5 c 128,-1,6
 96 711 96 711 106 711 c 256,7,8
 116 711 116 711 121.5 705.5 c 128,-1,9
 127 700 127 700 127 689 c 2,10,-1
 127 16 l 2,11,12
 127 -6 127 -6 106 -6 c 0,0,1
EndSplineSet
EndChar

StartChar: fi
Encoding: 64257 64257 525
Width: 512
GlyphClass: 3
LigCaretCntFixed: 1
Flags: W
LayerCount: 2
Fore
SplineSet
126 -6 m 0,0,1
 116 -6 116 -6 110.5 0 c 128,-1,2
 105 6 105 6 105 16 c 2,3,-1
 105 448 l 1,4,-1
 26 448 l 2,5,6
 16 448 16 448 10 453 c 128,-1,7
 4 458 4 458 4 466 c 256,8,9
 4 474 4 474 10 479 c 128,-1,10
 16 484 16 484 26 484 c 2,11,-1
 115 484 l 1,12,-1
 105 473 l 1,13,-1
 105 515 l 2,14,15
 105 602 105 602 145.5 650 c 128,-1,16
 186 698 186 698 269 704 c 2,17,-1
 298 706 l 2,18,19
 306 707 306 707 311 703.5 c 128,-1,20
 316 700 316 700 317.5 694.5 c 128,-1,21
 319 689 319 689 317.5 683 c 128,-1,22
 316 677 316 677 312 673 c 128,-1,23
 308 669 308 669 302 669 c 2,24,-1
 268 667 l 2,25,26
 204 663 204 663 175.5 623.5 c 128,-1,27
 147 584 147 584 147 515 c 2,28,-1
 147 470 l 1,29,-1
 139 484 l 1,30,-1
 406 484 l 2,31,32
 416 484 416 484 421.5 478.5 c 128,-1,33
 427 473 427 473 427 462 c 2,34,-1
 427 19 l 2,35,36
 427 9 427 9 422 3 c 128,-1,37
 417 -3 417 -3 406 -3 c 0,38,39
 396 -3 396 -3 390.5 3 c 128,-1,40
 385 9 385 9 385 19 c 2,41,-1
 385 448 l 1,42,-1
 147 448 l 1,43,-1
 147 16 l 2,44,45
 147 -6 147 -6 126 -6 c 0,0,1
406 616 m 0,46,47
 390 616 390 616 380.5 625.5 c 128,-1,48
 371 635 371 635 371 651 c 0,49,50
 371 668 371 668 380.5 676.5 c 128,-1,51
 390 685 390 685 406 685 c 0,52,53
 423 685 423 685 432 676.5 c 128,-1,54
 441 668 441 668 441 651 c 0,55,56
 441 635 441 635 432 625.5 c 128,-1,57
 423 616 423 616 406 616 c 0,46,47
EndSplineSet
Ligature2: "'liga' Standard Ligatures lookup 33 subtable" f i
LCarets2: 1 256
EndChar

StartChar: ordfeminine
Encoding: 170 170 529
Width: 316
GlyphClass: 1
Flags: W
LayerCount: 2
Fore
SplineSet
137 413 m 0,0,1
 92 413 92 413 62 438 c 128,-1,2
 32 463 32 463 32 501 c 0,3,4
 32 545 32 545 73.5 565 c 128,-1,5
 115 585 115 585 179 585 c 2,6,-1
 246 585 l 1,7,-1
 246 556 l 1,8,-1
 180 556 l 2,9,10
 125 556 125 556 96.5 542.5 c 128,-1,11
 68 529 68 529 68 501 c 0,12,13
 68 477 68 477 85.5 460.5 c 128,-1,14
 103 444 103 444 142 444 c 0,15,16
 171 444 171 444 193 456.5 c 128,-1,17
 215 469 215 469 227.5 492.5 c 128,-1,18
 240 516 240 516 240 549 c 2,19,-1
 240 606 l 2,20,21
 240 644 240 644 220 663 c 128,-1,22
 200 682 200 682 162 682 c 0,23,24
 138 682 138 682 115.5 677 c 128,-1,25
 93 672 93 672 73 661 c 0,26,27
 64 656 64 656 58 658.5 c 128,-1,28
 52 661 52 661 49.5 666.5 c 128,-1,29
 47 672 47 672 49 679 c 128,-1,30
 51 686 51 686 58 690 c 0,31,32
 81 702 81 702 107.5 707.5 c 128,-1,33
 134 713 134 713 161 713 c 0,34,35
 199 713 199 713 224 701 c 128,-1,36
 249 689 249 689 261.5 665 c 128,-1,37
 274 641 274 641 274 605 c 2,38,-1
 274 431 l 2,39,40
 274 413 274 413 257 413 c 0,41,42
 249 413 249 413 244.5 418 c 128,-1,43
 240 423 240 423 240 431 c 2,44,-1
 240 471 l 1,45,-1
 238 471 l 1,46,47
 221 440 221 440 196.5 426.5 c 128,-1,48
 172 413 172 413 137 413 c 0,0,1
EndSplineSet
EndChar

StartChar: ordmasculine
Encoding: 186 186 530
Width: 326
GlyphClass: 1
Flags: W
LayerCount: 2
Fore
SplineSet
163 413 m 256,0,1
 123 413 123 413 92.5 431.5 c 128,-1,2
 62 450 62 450 44 484 c 128,-1,3
 26 518 26 518 26 563 c 0,4,5
 26 609 26 609 44 642.5 c 128,-1,6
 62 676 62 676 92.5 694.5 c 128,-1,7
 123 713 123 713 163 713 c 256,8,9
 203 713 203 713 233.5 694.5 c 128,-1,10
 264 676 264 676 282 642.5 c 128,-1,11
 300 609 300 609 300 563 c 0,12,13
 300 518 300 518 282 484 c 128,-1,14
 264 450 264 450 233.5 431.5 c 128,-1,15
 203 413 203 413 163 413 c 256,0,1
163 444 m 0,16,17
 210 444 210 444 237 474.5 c 128,-1,18
 264 505 264 505 264 563 c 256,19,20
 264 621 264 621 237 651.5 c 128,-1,21
 210 682 210 682 163 682 c 0,22,23
 117 682 117 682 89.5 651.5 c 128,-1,24
 62 621 62 621 62 563 c 256,25,26
 62 505 62 505 89.5 474.5 c 128,-1,27
 117 444 117 444 163 444 c 0,16,17
EndSplineSet
EndChar

StartChar: uni0411
Encoding: 1041 1041 532
Width: 649
GlyphClass: 1
Flags: W
LayerCount: 2
Fore
SplineSet
121 0 m 2,0,1
 109 0 109 0 102.5 6.5 c 128,-1,2
 96 13 96 13 96 25 c 2,3,-1
 96 680 l 2,4,5
 96 692 96 692 102.5 698.5 c 128,-1,6
 109 705 109 705 121 705 c 2,7,-1
 516 705 l 2,8,9
 526 705 526 705 531.5 700 c 128,-1,10
 537 695 537 695 537 686 c 0,11,12
 537 676 537 676 531.5 671 c 128,-1,13
 526 666 526 666 516 666 c 2,14,-1
 138 666 l 1,15,-1
 138 379 l 1,16,-1
 367 379 l 2,17,18
 477 379 477 379 536 332.5 c 128,-1,19
 595 286 595 286 595 191 c 256,20,21
 595 96 595 96 536 48 c 128,-1,22
 477 0 477 0 367 0 c 2,23,-1
 121 0 l 2,0,1
138 39 m 1,24,-1
 366 39 l 2,25,26
 458 39 458 39 504.5 76.5 c 128,-1,27
 551 114 551 114 551 190 c 0,28,29
 551 267 551 267 504.5 303.5 c 128,-1,30
 458 340 458 340 366 340 c 2,31,-1
 138 340 l 1,32,-1
 138 39 l 1,24,-1
EndSplineSet
EndChar

StartChar: uni0413
Encoding: 1043 1043 534
Width: 527
GlyphClass: 2
Flags: W
AnchorPoint: "Anchor-4" 148 353 basechar 0
AnchorPoint: "Anchor-0" 275 705 basechar 0
LayerCount: 2
Fore
SplineSet
117 -6 m 256,0,1
 107 -6 107 -6 101.5 0 c 128,-1,2
 96 6 96 6 96 16 c 2,3,-1
 96 683 l 2,4,5
 96 694 96 694 102 699.5 c 128,-1,6
 108 705 108 705 118 705 c 2,7,-1
 498 705 l 2,8,9
 509 705 509 705 514.5 700 c 128,-1,10
 520 695 520 695 520 685 c 0,11,12
 520 676 520 676 514.5 671 c 128,-1,13
 509 666 509 666 498 666 c 2,14,-1
 138 666 l 1,15,-1
 138 16 l 2,16,17
 138 6 138 6 132.5 0 c 128,-1,18
 127 -6 127 -6 117 -6 c 256,0,1
EndSplineSet
EndChar

StartChar: uni0490
Encoding: 1168 1168 536
Width: 527
GlyphClass: 1
Flags: W
LayerCount: 2
Fore
SplineSet
117 -6 m 256,0,1
 107 -6 107 -6 101.5 0 c 128,-1,2
 96 6 96 6 96 16 c 2,3,-1
 96 683 l 2,4,5
 96 694 96 694 102 699.5 c 128,-1,6
 108 705 108 705 118 705 c 2,7,-1
 474 705 l 1,8,-1
 474 839 l 2,9,10
 474 861 474 861 494 861 c 0,11,12
 504 861 504 861 509 855.5 c 128,-1,13
 514 850 514 850 514 839 c 2,14,-1
 514 688 l 2,15,16
 514 678 514 678 508.5 672 c 128,-1,17
 503 666 503 666 492 666 c 2,18,-1
 138 666 l 1,19,-1
 138 16 l 2,20,21
 138 6 138 6 132.5 0 c 128,-1,22
 127 -6 127 -6 117 -6 c 256,0,1
EndSplineSet
EndChar

StartChar: uni04F6
Encoding: 1270 1270 537
Width: 527
GlyphClass: 1
Flags: W
LayerCount: 2
Fore
SplineSet
218 -156 m 256,0,1
 208 -156 208 -156 203 -150 c 128,-1,2
 198 -144 198 -144 198 -134 c 2,3,-1
 198 0 l 1,4,-1
 117 0 l 2,5,6
 107 0 107 0 101.5 4.5 c 128,-1,7
 96 9 96 9 96 22 c 2,8,-1
 96 683 l 2,9,10
 96 694 96 694 102 699.5 c 128,-1,11
 108 705 108 705 118 705 c 2,12,-1
 498 705 l 2,13,14
 509 705 509 705 514.5 700 c 128,-1,15
 520 695 520 695 520 685 c 0,16,17
 520 676 520 676 514.5 671 c 128,-1,18
 509 666 509 666 498 666 c 2,19,-1
 138 666 l 1,20,-1
 138 20 l 1,21,-1
 119 39 l 1,22,-1
 213 39 l 2,23,24
 225 39 225 39 231.5 32.5 c 128,-1,25
 238 26 238 26 238 14 c 2,26,-1
 238 -134 l 2,27,28
 238 -144 238 -144 233 -150 c 128,-1,29
 228 -156 228 -156 218 -156 c 256,0,1
EndSplineSet
EndChar

StartChar: uni0492
Encoding: 1170 1170 538
Width: 558
GlyphClass: 1
Flags: W
LayerCount: 2
Fore
SplineSet
148 -6 m 256,0,1
 138 -6 138 -6 132.5 0 c 128,-1,2
 127 6 127 6 127 16 c 2,3,-1
 127 338 l 1,4,-1
 49 338 l 2,5,6
 39 338 39 338 33 343 c 128,-1,7
 27 348 27 348 27 357 c 256,8,9
 27 366 27 366 33 371 c 128,-1,10
 39 376 39 376 49 376 c 2,11,-1
 127 376 l 1,12,-1
 127 683 l 2,13,14
 127 694 127 694 133 699.5 c 128,-1,15
 139 705 139 705 149 705 c 2,16,-1
 529 705 l 2,17,18
 540 705 540 705 545.5 700 c 128,-1,19
 551 695 551 695 551 685 c 0,20,21
 551 676 551 676 545.5 671 c 128,-1,22
 540 666 540 666 529 666 c 2,23,-1
 169 666 l 1,24,-1
 169 376 l 1,25,-1
 337 376 l 2,26,27
 348 376 348 376 353.5 371 c 128,-1,28
 359 366 359 366 359 357 c 256,29,30
 359 348 359 348 353.5 343 c 128,-1,31
 348 338 348 338 337 338 c 2,32,-1
 169 338 l 1,33,-1
 169 16 l 2,34,35
 169 6 169 6 163.5 0 c 128,-1,36
 158 -6 158 -6 148 -6 c 256,0,1
EndSplineSet
Substitution2: "'locl' Localized Forms in Cyrillic lookup 16 subtable" uni0492.loclBSH
Substitution2: "'aalt' Access All Alternates lookup 0 subtable" uni0492.loclBSH
EndChar

StartChar: uni0494
Encoding: 1172 1172 539
Width: 641
GlyphClass: 1
Flags: W
LayerCount: 2
Fore
SplineSet
392 -188 m 0,0,1
 365 -188 365 -188 339.5 -183.5 c 128,-1,2
 314 -179 314 -179 294 -172 c 0,3,4
 287 -169 287 -169 283 -163.5 c 128,-1,5
 279 -158 279 -158 279.5 -152 c 128,-1,6
 280 -146 280 -146 283 -141.5 c 128,-1,7
 286 -137 286 -137 292.5 -135 c 128,-1,8
 299 -133 299 -133 308 -136 c 0,9,10
 328 -143 328 -143 348 -146 c 128,-1,11
 368 -149 368 -149 391 -149 c 0,12,13
 462 -149 462 -149 499.5 -101.5 c 128,-1,14
 537 -54 537 -54 537 42 c 2,15,-1
 537 140 l 2,16,17
 537 266 537 266 483 327 c 128,-1,18
 429 388 429 388 315 388 c 0,19,20
 260 388 260 388 216.5 376.5 c 128,-1,21
 173 365 173 365 138 341 c 1,22,-1
 138 16 l 2,23,24
 138 6 138 6 133 0 c 128,-1,25
 128 -6 128 -6 117 -6 c 0,26,27
 107 -6 107 -6 101.5 0 c 128,-1,28
 96 6 96 6 96 16 c 2,29,-1
 96 683 l 2,30,31
 96 694 96 694 102 699.5 c 128,-1,32
 108 705 108 705 118 705 c 2,33,-1
 511 705 l 2,34,35
 522 705 522 705 527.5 700 c 128,-1,36
 533 695 533 695 533 686 c 0,37,38
 533 676 533 676 527.5 671 c 128,-1,39
 522 666 522 666 511 666 c 2,40,-1
 138 666 l 1,41,-1
 138 387 l 1,42,43
 168 407 168 407 216 418 c 128,-1,44
 264 429 264 429 316 429 c 0,45,46
 382 429 382 429 431.5 411 c 128,-1,47
 481 393 481 393 513.5 357.5 c 128,-1,48
 546 322 546 322 562.5 269 c 128,-1,49
 579 216 579 216 579 146 c 2,50,-1
 579 43 l 2,51,52
 579 -32 579 -32 557.5 -83.5 c 128,-1,53
 536 -135 536 -135 494 -161.5 c 128,-1,54
 452 -188 452 -188 392 -188 c 0,0,1
EndSplineSet
EndChar

StartChar: uni0414
Encoding: 1044 1044 540
Width: 760
GlyphClass: 1
Flags: W
AnchorPoint: "Anchor-0" 404 704 basechar 0
LayerCount: 2
Fore
SplineSet
39 -156 m 0,0,1
 29 -156 29 -156 24 -150 c 128,-1,2
 19 -144 19 -144 19 -134 c 2,3,-1
 19 14 l 2,4,5
 19 39 19 39 44 39 c 2,6,-1
 106 39 l 1,7,-1
 81 32 l 1,8,9
 140 102 140 102 168.5 222 c 128,-1,10
 197 342 197 342 197 525 c 2,11,-1
 197 680 l 2,12,13
 197 692 197 692 203.5 698.5 c 128,-1,14
 210 705 210 705 222 705 c 2,15,-1
 612 705 l 2,16,17
 624 705 624 705 630.5 698.5 c 128,-1,18
 637 692 637 692 637 680 c 2,19,-1
 637 20 l 1,20,-1
 618 39 l 1,21,-1
 712 39 l 2,22,23
 724 39 724 39 730.5 32.5 c 128,-1,24
 737 26 737 26 737 14 c 2,25,-1
 737 -134 l 2,26,27
 737 -156 737 -156 717 -156 c 0,28,29
 707 -156 707 -156 702 -150 c 128,-1,30
 697 -144 697 -144 697 -134 c 2,31,-1
 697 0 l 1,32,-1
 59 0 l 1,33,-1
 59 -134 l 2,34,35
 59 -156 59 -156 39 -156 c 0,0,1
134 39 m 1,36,-1
 595 39 l 1,37,-1
 595 666 l 1,38,-1
 237 666 l 1,39,-1
 237 525 l 2,40,41
 237 348 237 348 212.5 232 c 128,-1,42
 188 116 188 116 134 39 c 1,36,-1
EndSplineSet
EndChar

StartChar: uni0416
Encoding: 1046 1046 544
Width: 928
GlyphClass: 2
Flags: W
AnchorPoint: "Anchor-0" 464 705 basechar 0
LayerCount: 2
Fore
SplineSet
464 -6 m 256,0,1
 454 -6 454 -6 448.5 0 c 128,-1,2
 443 6 443 6 443 16 c 2,3,-1
 443 339 l 1,4,-1
 340 339 l 2,5,6
 279 339 279 339 237 308.5 c 128,-1,7
 195 278 195 278 162 210 c 2,8,-1
 64 9 l 2,9,10
 60 1 60 1 54 -2 c 128,-1,11
 48 -5 48 -5 41.5 -4.5 c 128,-1,12
 35 -4 35 -4 30 -0.5 c 128,-1,13
 25 3 25 3 23 9 c 128,-1,14
 21 15 21 15 25 22 c 2,15,-1
 132 239 l 2,16,17
 163 301 163 301 206 336.5 c 128,-1,18
 249 372 249 372 305 376 c 1,19,-1
 292 359 l 1,20,-1
 73 680 l 2,21,22
 68 687 68 687 69 693 c 128,-1,23
 70 699 70 699 74 703.5 c 128,-1,24
 78 708 78 708 84.5 709.5 c 128,-1,25
 91 711 91 711 97.5 708.5 c 128,-1,26
 104 706 104 706 109 699 c 2,27,-1
 338 363 l 1,28,-1
 317 378 l 1,29,-1
 443 378 l 1,30,-1
 443 689 l 2,31,32
 443 700 443 700 448.5 705.5 c 128,-1,33
 454 711 454 711 464 711 c 256,34,35
 474 711 474 711 479.5 705.5 c 128,-1,36
 485 700 485 700 485 689 c 2,37,-1
 485 378 l 1,38,-1
 613 378 l 1,39,-1
 590 363 l 1,40,-1
 819 699 l 2,41,42
 824 706 824 706 830.5 708.5 c 128,-1,43
 837 711 837 711 843.5 709.5 c 128,-1,44
 850 708 850 708 854 703.5 c 128,-1,45
 858 699 858 699 859 693 c 128,-1,46
 860 687 860 687 855 680 c 2,47,-1
 636 359 l 1,48,-1
 623 376 l 1,49,50
 661 373 661 373 692 356.5 c 128,-1,51
 723 340 723 340 748.5 310.5 c 128,-1,52
 774 281 774 281 794 239 c 2,53,-1
 901 22 l 2,54,55
 905 15 905 15 903 9 c 128,-1,56
 901 3 901 3 896 -0.5 c 128,-1,57
 891 -4 891 -4 884.5 -4.5 c 128,-1,58
 878 -5 878 -5 872 -2 c 128,-1,59
 866 1 866 1 862 9 c 2,60,-1
 764 210 l 2,61,62
 730 280 730 280 688.5 309.5 c 128,-1,63
 647 339 647 339 588 339 c 2,64,-1
 485 339 l 1,65,-1
 485 16 l 2,66,67
 485 6 485 6 479.5 0 c 128,-1,68
 474 -6 474 -6 464 -6 c 256,0,1
EndSplineSet
EndChar

StartChar: uni0417
Encoding: 1047 1047 545
Width: 645
GlyphClass: 2
Flags: W
AnchorPoint: "Anchor-2" 321 0 basechar 0
AnchorPoint: "Anchor-0" 320 705 basechar 0
LayerCount: 2
Fore
SplineSet
319 -8 m 0,0,1
 235 -8 235 -8 167 15 c 128,-1,2
 99 38 99 38 57 79 c 0,3,4
 51 85 51 85 50 91.5 c 128,-1,5
 49 98 49 98 51 104.5 c 128,-1,6
 53 111 53 111 58 114.5 c 128,-1,7
 63 118 63 118 69.5 118 c 128,-1,8
 76 118 76 118 83 112 c 0,9,10
 115 85 115 85 150.5 67.5 c 128,-1,11
 186 50 186 50 228 41.5 c 128,-1,12
 270 33 270 33 319 33 c 0,13,14
 392 33 392 33 438.5 50.5 c 128,-1,15
 485 68 485 68 507.5 102.5 c 128,-1,16
 530 137 530 137 530 188 c 0,17,18
 530 265 530 265 483.5 301 c 128,-1,19
 437 337 437 337 345 337 c 2,20,-1
 188 337 l 2,21,22
 178 337 178 337 172 342.5 c 128,-1,23
 166 348 166 348 166 357 c 256,24,25
 166 366 166 366 172 371 c 128,-1,26
 178 376 178 376 188 376 c 2,27,-1
 330 376 l 2,28,29
 420 376 420 376 467 413.5 c 128,-1,30
 514 451 514 451 514 521 c 0,31,32
 514 568 514 568 492 602 c 128,-1,33
 470 636 470 636 426.5 654 c 128,-1,34
 383 672 383 672 319 672 c 0,35,36
 258 672 258 672 203 654 c 128,-1,37
 148 636 148 636 101 597 c 0,38,39
 94 591 94 591 87 590.5 c 128,-1,40
 80 590 80 590 75 593.5 c 128,-1,41
 70 597 70 597 67.5 603.5 c 128,-1,42
 65 610 65 610 66.5 616.5 c 128,-1,43
 68 623 68 623 75 629 c 0,44,45
 123 672 123 672 187.5 692.5 c 128,-1,46
 252 713 252 713 319 713 c 0,47,48
 398 713 398 713 451 689.5 c 128,-1,49
 504 666 504 666 531 623 c 128,-1,50
 558 580 558 580 558 520 c 0,51,52
 558 453 558 453 518 409 c 128,-1,53
 478 365 478 365 410 351 c 1,54,-1
 410 365 l 1,55,56
 485 358 485 358 529.5 312.5 c 128,-1,57
 574 267 574 267 574 191 c 0,58,59
 574 128 574 128 546.5 83.5 c 128,-1,60
 519 39 519 39 462.5 15.5 c 128,-1,61
 406 -8 406 -8 319 -8 c 0,0,1
EndSplineSet
EndChar

StartChar: uni0418
Encoding: 1048 1048 546
Width: 732
GlyphClass: 2
Flags: W
AnchorPoint: "Anchor-0" 366 705 basechar 0
LayerCount: 2
Fore
SplineSet
114 -6 m 0,0,1
 110 -6 110 -6 106.5 -4.5 c 128,-1,2
 103 -3 103 -3 101 0 c 128,-1,3
 99 3 99 3 97.5 7 c 128,-1,4
 96 11 96 11 96 17 c 2,5,-1
 96 689 l 2,6,7
 96 700 96 700 101.5 705.5 c 128,-1,8
 107 711 107 711 116 711 c 256,9,10
 125 711 125 711 130 705.5 c 128,-1,11
 135 700 135 700 135 689 c 2,12,-1
 135 42 l 1,13,-1
 114 42 l 1,14,-1
 596 697 l 2,15,16
 601 705 601 705 606.5 708 c 128,-1,17
 612 711 612 711 619 711 c 0,18,19
 625 711 625 711 628.5 708.5 c 128,-1,20
 632 706 632 706 634 701 c 128,-1,21
 636 696 636 696 636 688 c 2,22,-1
 636 16 l 2,23,24
 636 6 636 6 631 0 c 128,-1,25
 626 -6 626 -6 617 -6 c 256,26,27
 608 -6 608 -6 602.5 0 c 128,-1,28
 597 6 597 6 597 16 c 2,29,-1
 597 663 l 1,30,-1
 619 663 l 1,31,-1
 137 8 l 2,32,33
 132 1 132 1 127.5 -2.5 c 128,-1,34
 123 -6 123 -6 114 -6 c 0,0,1
EndSplineSet
EndChar

StartChar: uni048A
Encoding: 1162 1162 549
Width: 742
GlyphClass: 1
Flags: W
LayerCount: 2
Fore
SplineSet
683 -140 m 2,0,1
 680 -148 680 -148 675 -151.5 c 128,-1,2
 670 -155 670 -155 664.5 -155 c 128,-1,3
 659 -155 659 -155 654.5 -151.5 c 128,-1,4
 650 -148 650 -148 648 -142.5 c 128,-1,5
 646 -137 646 -137 649 -129 c 2,6,-1
 698 18 l 1,7,-1
 711 0 l 1,8,-1
 617 0 l 2,9,10
 607 0 607 0 602 6 c 128,-1,11
 597 12 597 12 597 22 c 2,12,-1
 597 663 l 1,13,-1
 619 663 l 1,14,-1
 137 8 l 2,15,16
 132 1 132 1 127.5 -2.5 c 128,-1,17
 123 -6 123 -6 114 -6 c 0,18,19
 110 -6 110 -6 106.5 -4.5 c 128,-1,20
 103 -3 103 -3 101 0 c 128,-1,21
 99 3 99 3 97.5 7 c 128,-1,22
 96 11 96 11 96 17 c 2,23,-1
 96 689 l 2,24,25
 96 700 96 700 101.5 705.5 c 128,-1,26
 107 711 107 711 116 711 c 256,27,28
 125 711 125 711 130 705.5 c 128,-1,29
 135 700 135 700 135 689 c 2,30,-1
 135 42 l 1,31,-1
 114 42 l 1,32,-1
 596 697 l 2,33,34
 601 705 601 705 606.5 708 c 128,-1,35
 612 711 612 711 619 711 c 0,36,37
 625 711 625 711 628.5 708.5 c 128,-1,38
 632 706 632 706 634 701 c 128,-1,39
 636 696 636 696 636 688 c 2,40,-1
 636 20 l 1,41,-1
 617 39 l 1,42,-1
 711 39 l 2,43,44
 726 39 726 39 732.5 32.5 c 128,-1,45
 739 26 739 26 734 12 c 2,46,-1
 683 -140 l 2,0,1
366 760 m 256,47,48
 315 760 315 760 267 785 c 128,-1,49
 219 810 219 810 192 868 c 0,50,51
 187 879 187 879 189.5 886.5 c 128,-1,52
 192 894 192 894 199 897 c 0,53,54
 207 900 207 900 213.5 897.5 c 128,-1,55
 220 895 220 895 224 885 c 0,56,57
 244 842 244 842 279 819 c 128,-1,58
 314 796 314 796 366 796 c 0,59,60
 419 796 419 796 454 819 c 128,-1,61
 489 842 489 842 508 885 c 0,62,63
 513 895 513 895 519.5 897.5 c 128,-1,64
 526 900 526 900 533 897 c 0,65,66
 541 894 541 894 543 886.5 c 128,-1,67
 545 879 545 879 540 868 c 0,68,69
 513 810 513 810 465 785 c 128,-1,70
 417 760 417 760 366 760 c 256,47,48
EndSplineSet
EndChar

StartChar: uni041A
Encoding: 1050 1050 550
Width: 611
GlyphClass: 2
Flags: W
AnchorPoint: "Anchor-5" 307 353 basechar 0
AnchorPoint: "Anchor-0" 316 705 basechar 0
LayerCount: 2
Fore
SplineSet
117 -6 m 0,0,1
 107 -6 107 -6 101.5 0 c 128,-1,2
 96 6 96 6 96 16 c 2,3,-1
 96 689 l 2,4,5
 96 700 96 700 101.5 705.5 c 128,-1,6
 107 711 107 711 117 711 c 256,7,8
 127 711 127 711 132.5 705.5 c 128,-1,9
 138 700 138 700 138 689 c 2,10,-1
 138 378 l 1,11,-1
 296 378 l 1,12,-1
 273 363 l 1,13,-1
 502 699 l 2,14,15
 507 706 507 706 513.5 708.5 c 128,-1,16
 520 711 520 711 526.5 709.5 c 128,-1,17
 533 708 533 708 537 703.5 c 128,-1,18
 541 699 541 699 542 693 c 128,-1,19
 543 687 543 687 538 680 c 2,20,-1
 319 359 l 1,21,-1
 306 376 l 1,22,23
 362 372 362 372 404 336.5 c 128,-1,24
 446 301 446 301 477 239 c 2,25,-1
 584 22 l 2,26,27
 588 15 588 15 586 9 c 128,-1,28
 584 3 584 3 579 -0.5 c 128,-1,29
 574 -4 574 -4 567.5 -4.5 c 128,-1,30
 561 -5 561 -5 555 -2 c 128,-1,31
 549 1 549 1 545 9 c 2,32,-1
 447 210 l 2,33,34
 413 280 413 280 371.5 309.5 c 128,-1,35
 330 339 330 339 271 339 c 2,36,-1
 138 339 l 1,37,-1
 138 16 l 2,38,39
 138 6 138 6 133 0 c 128,-1,40
 128 -6 128 -6 117 -6 c 0,0,1
EndSplineSet
EndChar

StartChar: uni041B
Encoding: 1051 1051 552
Width: 731
GlyphClass: 2
Flags: W
LayerCount: 2
Fore
SplineSet
614 -6 m 256,0,1
 604 -6 604 -6 598.5 0 c 128,-1,2
 593 6 593 6 593 16 c 2,3,-1
 593 666 l 1,4,-1
 235 666 l 1,5,-1
 235 485 l 2,6,7
 235 374 235 374 223.5 292.5 c 128,-1,8
 212 211 212 211 189.5 154 c 128,-1,9
 167 97 167 97 133.5 59.5 c 128,-1,10
 100 22 100 22 55 -3 c 0,11,12
 45 -9 45 -9 37 -7 c 128,-1,13
 29 -5 29 -5 25 4 c 0,14,15
 21 14 21 14 24 21 c 128,-1,16
 27 28 27 28 37 34 c 0,17,18
 73 54 73 54 102 85.5 c 128,-1,19
 131 117 131 117 152 168 c 128,-1,20
 173 219 173 219 184 298.5 c 128,-1,21
 195 378 195 378 195 495 c 2,22,-1
 195 680 l 2,23,24
 195 692 195 692 201.5 698.5 c 128,-1,25
 208 705 208 705 220 705 c 2,26,-1
 610 705 l 2,27,28
 622 705 622 705 628.5 698.5 c 128,-1,29
 635 692 635 692 635 680 c 2,30,-1
 635 16 l 2,31,32
 635 6 635 6 629.5 0 c 128,-1,33
 624 -6 624 -6 614 -6 c 256,0,1
EndSplineSet
EndChar

StartChar: uni041F
Encoding: 1055 1055 556
Width: 746
GlyphClass: 2
Flags: W
LayerCount: 2
Fore
SplineSet
117 -6 m 0,0,1
 107 -6 107 -6 101.5 0 c 128,-1,2
 96 6 96 6 96 16 c 2,3,-1
 96 680 l 2,4,5
 96 692 96 692 102.5 698.5 c 128,-1,6
 109 705 109 705 121 705 c 2,7,-1
 625 705 l 2,8,9
 637 705 637 705 643.5 698.5 c 128,-1,10
 650 692 650 692 650 680 c 2,11,-1
 650 16 l 2,12,13
 650 6 650 6 644.5 0 c 128,-1,14
 639 -6 639 -6 629 -6 c 256,15,16
 619 -6 619 -6 613.5 0 c 128,-1,17
 608 6 608 6 608 16 c 2,18,-1
 608 666 l 1,19,-1
 138 666 l 1,20,-1
 138 16 l 2,21,22
 138 6 138 6 133 0 c 128,-1,23
 128 -6 128 -6 117 -6 c 0,0,1
EndSplineSet
EndChar

StartChar: uni0423
Encoding: 1059 1059 560
Width: 628
GlyphClass: 2
Flags: W
AnchorPoint: "Anchor-0" 315 705 basechar 0
LayerCount: 2
Fore
SplineSet
241 -6 m 0,0,1
 234 -6 234 -6 228.5 -2 c 128,-1,2
 223 2 223 2 222 9 c 128,-1,3
 221 16 221 16 226 25 c 2,4,-1
 329 223 l 1,5,-1
 329 198 l 1,6,-1
 27 678 l 2,7,8
 22 687 22 687 22.5 694.5 c 128,-1,9
 23 702 23 702 28 706.5 c 128,-1,10
 33 711 33 711 40 711 c 256,11,12
 47 711 47 711 52.5 707.5 c 128,-1,13
 58 704 58 704 62 697 c 2,14,-1
 350 240 l 1,15,-1
 338 240 l 1,16,-1
 574 697 l 2,17,18
 578 705 578 705 583 708 c 128,-1,19
 588 711 588 711 595 711 c 256,20,21
 602 711 602 711 607.5 707 c 128,-1,22
 613 703 613 703 614 696.5 c 128,-1,23
 615 690 615 690 610 680 c 2,24,-1
 263 8 l 2,25,26
 259 1 259 1 254 -2.5 c 128,-1,27
 249 -6 249 -6 241 -6 c 0,0,1
EndSplineSet
EndChar

StartChar: uni0424
Encoding: 1060 1060 562
Width: 810
GlyphClass: 1
Flags: W
LayerCount: 2
Fore
SplineSet
405 -26 m 0,0,1
 395 -26 395 -26 389.5 -20 c 128,-1,2
 384 -14 384 -14 384 -4 c 2,3,-1
 384 71 l 1,4,-1
 398 57 l 1,5,-1
 374 57 l 2,6,7
 278 57 278 57 209.5 94.5 c 128,-1,8
 141 132 141 132 104 199.5 c 128,-1,9
 67 267 67 267 67 358 c 0,10,11
 67 427 67 427 87.5 482.5 c 128,-1,12
 108 538 108 538 147 577 c 128,-1,13
 186 616 186 616 243.5 637 c 128,-1,14
 301 658 301 658 374 658 c 2,15,-1
 398 658 l 1,16,-1
 384 644 l 1,17,-1
 384 714 l 2,18,19
 384 725 384 725 389.5 730.5 c 128,-1,20
 395 736 395 736 405 736 c 256,21,22
 415 736 415 736 420.5 730.5 c 128,-1,23
 426 725 426 725 426 714 c 2,24,-1
 426 644 l 1,25,-1
 412 658 l 1,26,-1
 436 658 l 2,27,28
 534 658 534 658 602.5 621.5 c 128,-1,29
 671 585 671 585 707 517.5 c 128,-1,30
 743 450 743 450 743 358 c 0,31,32
 743 290 743 290 722 234.5 c 128,-1,33
 701 179 701 179 661.5 139.5 c 128,-1,34
 622 100 622 100 565 78.5 c 128,-1,35
 508 57 508 57 436 57 c 2,36,-1
 412 57 l 1,37,-1
 426 71 l 1,38,-1
 426 -4 l 2,39,40
 426 -14 426 -14 421 -20 c 128,-1,41
 416 -26 416 -26 405 -26 c 0,0,1
384 82 m 1,42,-1
 384 633 l 1,43,-1
 398 619 l 1,44,-1
 364 619 l 2,45,46
 305 619 305 619 258.5 601.5 c 128,-1,47
 212 584 212 584 179 550 c 128,-1,48
 146 516 146 516 129 468 c 128,-1,49
 112 420 112 420 112 358 c 0,50,51
 112 279 112 279 143 220 c 128,-1,52
 174 161 174 161 230.5 128.5 c 128,-1,53
 287 96 287 96 364 96 c 2,54,-1
 398 96 l 1,55,-1
 384 82 l 1,42,-1
426 82 m 1,56,-1
 412 96 l 1,57,-1
 446 96 l 2,58,59
 504 96 504 96 550.5 114.5 c 128,-1,60
 597 133 597 133 630 167.5 c 128,-1,61
 663 202 663 202 680.5 250 c 128,-1,62
 698 298 698 298 698 358 c 0,63,64
 698 440 698 440 667.5 498.5 c 128,-1,65
 637 557 637 557 581 588 c 128,-1,66
 525 619 525 619 446 619 c 2,67,-1
 412 619 l 1,68,-1
 426 633 l 1,69,-1
 426 82 l 1,56,-1
EndSplineSet
EndChar

StartChar: uni0427
Encoding: 1063 1063 564
Width: 657
GlyphClass: 2
Flags: W
AnchorPoint: "Anchor-5" 303 295 basechar 0
AnchorPoint: "Anchor-0" 306 705 basechar 0
LayerCount: 2
Fore
SplineSet
540 -6 m 0,0,1
 530 -6 530 -6 524.5 0 c 128,-1,2
 519 6 519 6 519 16 c 2,3,-1
 519 318 l 1,4,5
 485 297 485 297 433 286.5 c 128,-1,6
 381 276 381 276 329 276 c 0,7,8
 242 276 242 276 182.5 308 c 128,-1,9
 123 340 123 340 92.5 403 c 128,-1,10
 62 466 62 466 62 559 c 2,11,-1
 62 689 l 2,12,13
 62 700 62 700 67.5 705.5 c 128,-1,14
 73 711 73 711 83 711 c 256,15,16
 93 711 93 711 98.5 705.5 c 128,-1,17
 104 700 104 700 104 689 c 2,18,-1
 104 565 l 2,19,20
 104 438 104 438 161 377.5 c 128,-1,21
 218 317 218 317 329 317 c 0,22,23
 381 317 381 317 429 327.5 c 128,-1,24
 477 338 477 338 519 364 c 1,25,-1
 519 689 l 2,26,27
 519 700 519 700 524.5 705.5 c 128,-1,28
 530 711 530 711 540 711 c 256,29,30
 550 711 550 711 555.5 705.5 c 128,-1,31
 561 700 561 700 561 689 c 2,32,-1
 561 16 l 2,33,34
 561 6 561 6 556 0 c 128,-1,35
 551 -6 551 -6 540 -6 c 0,0,1
EndSplineSet
EndChar

StartChar: uni0426
Encoding: 1062 1062 565
Width: 773
GlyphClass: 1
Flags: W
LayerCount: 2
Fore
SplineSet
730 -156 m 0,0,1
 720 -156 720 -156 715 -150 c 128,-1,2
 710 -144 710 -144 710 -134 c 2,3,-1
 710 0 l 1,4,-1
 121 0 l 2,5,6
 109 0 109 0 102.5 6.5 c 128,-1,7
 96 13 96 13 96 25 c 2,8,-1
 96 689 l 2,9,10
 96 700 96 700 101.5 705.5 c 128,-1,11
 107 711 107 711 117 711 c 256,12,13
 127 711 127 711 132.5 705.5 c 128,-1,14
 138 700 138 700 138 689 c 2,15,-1
 138 39 l 1,16,-1
 608 39 l 1,17,-1
 608 689 l 2,18,19
 608 700 608 700 613.5 705.5 c 128,-1,20
 619 711 619 711 629 711 c 256,21,22
 639 711 639 711 644.5 705.5 c 128,-1,23
 650 700 650 700 650 689 c 2,24,-1
 650 20 l 1,25,-1
 631 39 l 1,26,-1
 725 39 l 2,27,28
 737 39 737 39 743.5 32.5 c 128,-1,29
 750 26 750 26 750 14 c 2,30,-1
 750 -134 l 2,31,32
 750 -156 750 -156 730 -156 c 0,0,1
EndSplineSet
EndChar

StartChar: uni0428
Encoding: 1064 1064 566
Width: 1038
GlyphClass: 1
Flags: W
LayerCount: 2
Fore
SplineSet
121 0 m 2,0,1
 109 0 109 0 102.5 6.5 c 128,-1,2
 96 13 96 13 96 25 c 2,3,-1
 96 689 l 2,4,5
 96 700 96 700 101.5 705.5 c 128,-1,6
 107 711 107 711 117 711 c 256,7,8
 127 711 127 711 132.5 705.5 c 128,-1,9
 138 700 138 700 138 689 c 2,10,-1
 138 39 l 1,11,-1
 498 39 l 1,12,-1
 498 689 l 2,13,14
 498 700 498 700 503.5 705.5 c 128,-1,15
 509 711 509 711 519 711 c 256,16,17
 529 711 529 711 534.5 705.5 c 128,-1,18
 540 700 540 700 540 689 c 2,19,-1
 540 39 l 1,20,-1
 900 39 l 1,21,-1
 900 689 l 2,22,23
 900 700 900 700 905.5 705.5 c 128,-1,24
 911 711 911 711 921 711 c 256,25,26
 931 711 931 711 936.5 705.5 c 128,-1,27
 942 700 942 700 942 689 c 2,28,-1
 942 25 l 2,29,30
 942 13 942 13 935.5 6.5 c 128,-1,31
 929 0 929 0 917 0 c 2,32,-1
 121 0 l 2,0,1
EndSplineSet
EndChar

StartChar: uni0429
Encoding: 1065 1065 567
Width: 1064
GlyphClass: 1
Flags: W
LayerCount: 2
Fore
SplineSet
1021 -156 m 256,0,1
 1011 -156 1011 -156 1006 -150 c 128,-1,2
 1001 -144 1001 -144 1001 -134 c 2,3,-1
 1001 0 l 1,4,-1
 121 0 l 2,5,6
 109 0 109 0 102.5 6.5 c 128,-1,7
 96 13 96 13 96 25 c 2,8,-1
 96 689 l 2,9,10
 96 700 96 700 101.5 705.5 c 128,-1,11
 107 711 107 711 117 711 c 256,12,13
 127 711 127 711 132.5 705.5 c 128,-1,14
 138 700 138 700 138 689 c 2,15,-1
 138 39 l 1,16,-1
 498 39 l 1,17,-1
 498 689 l 2,18,19
 498 700 498 700 503.5 705.5 c 128,-1,20
 509 711 509 711 519 711 c 256,21,22
 529 711 529 711 534.5 705.5 c 128,-1,23
 540 700 540 700 540 689 c 2,24,-1
 540 39 l 1,25,-1
 900 39 l 1,26,-1
 900 689 l 2,27,28
 900 700 900 700 905.5 705.5 c 128,-1,29
 911 711 911 711 921 711 c 256,30,31
 931 711 931 711 936.5 705.5 c 128,-1,32
 942 700 942 700 942 689 c 2,33,-1
 942 20 l 1,34,-1
 923 39 l 1,35,-1
 1016 39 l 2,36,37
 1028 39 1028 39 1034.5 32.5 c 128,-1,38
 1041 26 1041 26 1041 14 c 2,39,-1
 1041 -134 l 2,40,41
 1041 -144 1041 -144 1036 -150 c 128,-1,42
 1031 -156 1031 -156 1021 -156 c 256,0,1
EndSplineSet
EndChar

StartChar: uni040F
Encoding: 1039 1039 568
Width: 746
GlyphClass: 1
Flags: W
LayerCount: 2
Fore
SplineSet
373 -156 m 256,0,1
 363 -156 363 -156 358 -150 c 128,-1,2
 353 -144 353 -144 353 -134 c 2,3,-1
 353 0 l 1,4,-1
 121 0 l 2,5,6
 109 0 109 0 102.5 6.5 c 128,-1,7
 96 13 96 13 96 25 c 2,8,-1
 96 689 l 2,9,10
 96 700 96 700 101.5 705.5 c 128,-1,11
 107 711 107 711 117 711 c 256,12,13
 127 711 127 711 132.5 705.5 c 128,-1,14
 138 700 138 700 138 689 c 2,15,-1
 138 39 l 1,16,-1
 608 39 l 1,17,-1
 608 689 l 2,18,19
 608 700 608 700 613.5 705.5 c 128,-1,20
 619 711 619 711 629 711 c 256,21,22
 639 711 639 711 644.5 705.5 c 128,-1,23
 650 700 650 700 650 689 c 2,24,-1
 650 25 l 2,25,26
 650 13 650 13 643.5 6.5 c 128,-1,27
 637 0 637 0 625 0 c 2,28,-1
 393 0 l 1,29,-1
 393 -134 l 2,30,31
 393 -144 393 -144 388 -150 c 128,-1,32
 383 -156 383 -156 373 -156 c 256,0,1
EndSplineSet
EndChar

StartChar: uni042C
Encoding: 1068 1068 569
Width: 649
GlyphClass: 1
Flags: W
LayerCount: 2
Fore
SplineSet
121 0 m 2,0,1
 109 0 109 0 102.5 6.5 c 128,-1,2
 96 13 96 13 96 25 c 2,3,-1
 96 689 l 2,4,5
 96 700 96 700 101.5 705.5 c 128,-1,6
 107 711 107 711 117 711 c 256,7,8
 127 711 127 711 132.5 705.5 c 128,-1,9
 138 700 138 700 138 689 c 2,10,-1
 138 379 l 1,11,-1
 367 379 l 2,12,13
 440 379 440 379 491 358.5 c 128,-1,14
 542 338 542 338 568.5 296.5 c 128,-1,15
 595 255 595 255 595 191 c 0,16,17
 595 96 595 96 536 48 c 128,-1,18
 477 0 477 0 367 0 c 2,19,-1
 121 0 l 2,0,1
138 39 m 1,20,-1
 366 39 l 2,21,22
 458 39 458 39 504.5 76.5 c 128,-1,23
 551 114 551 114 551 190 c 0,24,25
 551 267 551 267 504.5 303.5 c 128,-1,26
 458 340 458 340 366 340 c 2,27,-1
 138 340 l 1,28,-1
 138 39 l 1,20,-1
EndSplineSet
EndChar

StartChar: uni042B
Encoding: 1067 1067 570
Width: 813
GlyphClass: 2
Flags: W
AnchorPoint: "Anchor-0" 407 705 basechar 0
LayerCount: 2
Fore
SplineSet
121 0 m 2,0,1
 109 0 109 0 102.5 6.5 c 128,-1,2
 96 13 96 13 96 25 c 2,3,-1
 96 689 l 2,4,5
 96 700 96 700 101.5 705.5 c 128,-1,6
 107 711 107 711 117 711 c 256,7,8
 127 711 127 711 132.5 705.5 c 128,-1,9
 138 700 138 700 138 689 c 2,10,-1
 138 379 l 1,11,-1
 337 379 l 2,12,13
 410 379 410 379 461 358.5 c 128,-1,14
 512 338 512 338 538.5 296.5 c 128,-1,15
 565 255 565 255 565 191 c 0,16,17
 565 96 565 96 506 48 c 128,-1,18
 447 0 447 0 337 0 c 2,19,-1
 121 0 l 2,0,1
138 39 m 1,20,-1
 336 39 l 2,21,22
 428 39 428 39 474.5 76.5 c 128,-1,23
 521 114 521 114 521 190 c 0,24,25
 521 267 521 267 474.5 303.5 c 128,-1,26
 428 340 428 340 336 340 c 2,27,-1
 138 340 l 1,28,-1
 138 39 l 1,20,-1
696 -6 m 0,29,30
 686 -6 686 -6 680.5 0 c 128,-1,31
 675 6 675 6 675 16 c 2,32,-1
 675 689 l 2,33,34
 675 700 675 700 680.5 705.5 c 128,-1,35
 686 711 686 711 696 711 c 256,36,37
 706 711 706 711 711.5 705.5 c 128,-1,38
 717 700 717 700 717 689 c 2,39,-1
 717 16 l 2,40,41
 717 6 717 6 712 0 c 128,-1,42
 707 -6 707 -6 696 -6 c 0,29,30
EndSplineSet
EndChar

StartChar: uni042A
Encoding: 1066 1066 571
Width: 776
GlyphClass: 1
Flags: W
LayerCount: 2
Fore
SplineSet
248 0 m 2,0,1
 236 0 236 0 229.5 6.5 c 128,-1,2
 223 13 223 13 223 25 c 2,3,-1
 223 666 l 1,4,-1
 19 666 l 2,5,6
 9 666 9 666 3 671.5 c 128,-1,7
 -3 677 -3 677 -3 686 c 256,8,9
 -3 695 -3 695 3 700 c 128,-1,10
 9 705 9 705 19 705 c 2,11,-1
 240 705 l 2,12,13
 252 705 252 705 258.5 698.5 c 128,-1,14
 265 692 265 692 265 680 c 2,15,-1
 265 379 l 1,16,-1
 494 379 l 2,17,18
 567 379 567 379 618 358.5 c 128,-1,19
 669 338 669 338 695.5 296.5 c 128,-1,20
 722 255 722 255 722 191 c 0,21,22
 722 96 722 96 663 48 c 128,-1,23
 604 0 604 0 494 0 c 2,24,-1
 248 0 l 2,0,1
265 39 m 1,25,-1
 493 39 l 2,26,27
 585 39 585 39 631.5 76.5 c 128,-1,28
 678 114 678 114 678 190 c 0,29,30
 678 267 678 267 631.5 303.5 c 128,-1,31
 585 340 585 340 493 340 c 2,32,-1
 265 340 l 1,33,-1
 265 39 l 1,25,-1
EndSplineSet
EndChar

StartChar: uni0409
Encoding: 1033 1033 572
Width: 1126
GlyphClass: 1
Flags: W
LayerCount: 2
Fore
SplineSet
598 0 m 2,0,1
 586 0 586 0 579.5 6.5 c 128,-1,2
 573 13 573 13 573 25 c 2,3,-1
 573 666 l 1,4,-1
 235 666 l 1,5,-1
 235 485 l 2,6,7
 235 374 235 374 223.5 292.5 c 128,-1,8
 212 211 212 211 189.5 154 c 128,-1,9
 167 97 167 97 133.5 59.5 c 128,-1,10
 100 22 100 22 55 -3 c 0,11,12
 48 -7 48 -7 42 -7.5 c 128,-1,13
 36 -8 36 -8 32 -5 c 128,-1,14
 28 -2 28 -2 25 4 c 0,15,16
 21 14 21 14 24 21 c 128,-1,17
 27 28 27 28 37 34 c 0,18,19
 73 54 73 54 102 85.5 c 128,-1,20
 131 117 131 117 152 168 c 128,-1,21
 173 219 173 219 184 298.5 c 128,-1,22
 195 378 195 378 195 495 c 2,23,-1
 195 680 l 2,24,25
 195 692 195 692 201.5 698.5 c 128,-1,26
 208 705 208 705 220 705 c 2,27,-1
 590 705 l 2,28,29
 602 705 602 705 608.5 698.5 c 128,-1,30
 615 692 615 692 615 680 c 2,31,-1
 615 379 l 1,32,-1
 844 379 l 2,33,34
 917 379 917 379 968 358.5 c 128,-1,35
 1019 338 1019 338 1045.5 296.5 c 128,-1,36
 1072 255 1072 255 1072 191 c 0,37,38
 1072 96 1072 96 1013 48 c 128,-1,39
 954 0 954 0 844 0 c 2,40,-1
 598 0 l 2,0,1
615 39 m 1,41,-1
 843 39 l 2,42,43
 935 39 935 39 981.5 76.5 c 128,-1,44
 1028 114 1028 114 1028 190 c 0,45,46
 1028 267 1028 267 981.5 303.5 c 128,-1,47
 935 340 935 340 843 340 c 2,48,-1
 615 340 l 1,49,-1
 615 39 l 1,41,-1
EndSplineSet
EndChar

StartChar: uni040A
Encoding: 1034 1034 573
Width: 1166
GlyphClass: 1
Flags: W
LayerCount: 2
Fore
SplineSet
117 -6 m 0,0,1
 107 -6 107 -6 101.5 0 c 128,-1,2
 96 6 96 6 96 16 c 2,3,-1
 96 689 l 2,4,5
 96 700 96 700 101.5 705.5 c 128,-1,6
 107 711 107 711 117 711 c 256,7,8
 127 711 127 711 132.5 705.5 c 128,-1,9
 138 700 138 700 138 689 c 2,10,-1
 138 377 l 1,11,-1
 613 377 l 1,12,-1
 613 689 l 2,13,14
 613 700 613 700 618.5 705.5 c 128,-1,15
 624 711 624 711 634 711 c 256,16,17
 644 711 644 711 649.5 705.5 c 128,-1,18
 655 700 655 700 655 689 c 2,19,-1
 655 379 l 1,20,-1
 884 379 l 2,21,22
 957 379 957 379 1008 358.5 c 128,-1,23
 1059 338 1059 338 1085.5 296.5 c 128,-1,24
 1112 255 1112 255 1112 191 c 0,25,26
 1112 96 1112 96 1053 48 c 128,-1,27
 994 0 994 0 884 0 c 2,28,-1
 638 0 l 2,29,30
 626 0 626 0 619.5 6.5 c 128,-1,31
 613 13 613 13 613 25 c 2,32,-1
 613 338 l 1,33,-1
 138 338 l 1,34,-1
 138 16 l 2,35,36
 138 6 138 6 133 0 c 128,-1,37
 128 -6 128 -6 117 -6 c 0,0,1
655 39 m 1,38,-1
 883 39 l 2,39,40
 975 39 975 39 1021.5 76.5 c 128,-1,41
 1068 114 1068 114 1068 190 c 0,42,43
 1068 267 1068 267 1021.5 303.5 c 128,-1,44
 975 340 975 340 883 340 c 2,45,-1
 655 340 l 1,46,-1
 655 39 l 1,38,-1
EndSplineSet
EndChar

StartChar: uni0404
Encoding: 1028 1028 575
Width: 667
GlyphClass: 2
Flags: W
AnchorPoint: "Anchor-2" 380 0 basechar 0
AnchorPoint: "Anchor-0" 382 705 basechar 0
LayerCount: 2
Fore
SplineSet
381 -8 m 0,0,1
 282 -8 282 -8 212 35.5 c 128,-1,2
 142 79 142 79 104.5 160 c 128,-1,3
 67 241 67 241 67 353 c 0,4,5
 67 437 67 437 88 503.5 c 128,-1,6
 109 570 109 570 149.5 616.5 c 128,-1,7
 190 663 190 663 248.5 688 c 128,-1,8
 307 713 307 713 381 713 c 0,9,10
 448 713 448 713 506 692.5 c 128,-1,11
 564 672 564 672 610 628 c 0,12,13
 618 621 618 621 619.5 613.5 c 128,-1,14
 621 606 621 606 618.5 599.5 c 128,-1,15
 616 593 616 593 610.5 590 c 128,-1,16
 605 587 605 587 598 588 c 128,-1,17
 591 589 591 589 583 596 c 0,18,19
 538 637 538 637 490 654.5 c 128,-1,20
 442 672 442 672 380 672 c 0,21,22
 294 672 294 672 235 635 c 128,-1,23
 176 598 176 598 145 529 c 128,-1,24
 114 460 114 460 112 364 c 1,25,-1
 93 377 l 1,26,-1
 479 377 l 2,27,28
 490 377 490 377 496 372 c 128,-1,29
 502 367 502 367 502 358 c 0,30,31
 502 348 502 348 496 343 c 128,-1,32
 490 338 490 338 479 338 c 2,33,-1
 92 338 l 1,34,-1
 112 347 l 1,35,36
 113 248 113 248 144 178 c 128,-1,37
 175 108 175 108 234.5 70.5 c 128,-1,38
 294 33 294 33 380 33 c 0,39,40
 442 33 442 33 490 51 c 128,-1,41
 538 69 538 69 581 107 c 0,42,43
 590 115 590 115 597.5 116 c 128,-1,44
 605 117 605 117 610 113.5 c 128,-1,45
 615 110 615 110 617 103.5 c 128,-1,46
 619 97 619 97 617 89.5 c 128,-1,47
 615 82 615 82 608 76 c 0,48,49
 563 33 563 33 505 12.5 c 128,-1,50
 447 -8 447 -8 381 -8 c 0,0,1
EndSplineSet
EndChar

StartChar: uni042D
Encoding: 1069 1069 576
Width: 667
GlyphClass: 2
Flags: W
AnchorPoint: "Anchor-2" 292 0 basechar 0
AnchorPoint: "Anchor-0" 292 705 basechar 0
LayerCount: 2
Fore
SplineSet
286 -8 m 0,0,1
 219 -8 219 -8 161 12.5 c 128,-1,2
 103 33 103 33 57 77 c 0,3,4
 50 84 50 84 48 91.5 c 128,-1,5
 46 99 46 99 48.5 105.5 c 128,-1,6
 51 112 51 112 56.5 115 c 128,-1,7
 62 118 62 118 69 117 c 128,-1,8
 76 116 76 116 84 109 c 0,9,10
 128 68 128 68 177 50.5 c 128,-1,11
 226 33 226 33 287 33 c 0,12,13
 373 33 373 33 432 70 c 128,-1,14
 491 107 491 107 522.5 176 c 128,-1,15
 554 245 554 245 555 341 c 1,16,-1
 574 338 l 1,17,-1
 188 338 l 2,18,19
 177 338 177 338 171 343 c 128,-1,20
 165 348 165 348 165 357 c 0,21,22
 165 367 165 367 171 372 c 128,-1,23
 177 377 177 377 188 377 c 2,24,-1
 575 377 l 1,25,-1
 555 358 l 1,26,27
 554 457 554 457 524.5 527 c 128,-1,28
 495 597 495 597 437 634.5 c 128,-1,29
 379 672 379 672 293 672 c 0,30,31
 232 672 232 672 181 652 c 128,-1,32
 130 632 130 632 86 597 c 0,33,34
 76 589 76 589 68.5 588.5 c 128,-1,35
 61 588 61 588 56 591.5 c 128,-1,36
 51 595 51 595 49.5 601.5 c 128,-1,37
 48 608 48 608 50 615 c 128,-1,38
 52 622 52 622 59 628 c 0,39,40
 110 671 110 671 169 692 c 128,-1,41
 228 713 228 713 292 713 c 0,42,43
 391 713 391 713 460 669.5 c 128,-1,44
 529 626 529 626 564.5 545 c 128,-1,45
 600 464 600 464 600 352 c 0,46,47
 600 268 600 268 579 201.5 c 128,-1,48
 558 135 558 135 517.5 88.5 c 128,-1,49
 477 42 477 42 418.5 17 c 128,-1,50
 360 -8 360 -8 286 -8 c 0,0,1
EndSplineSet
EndChar

StartChar: uni040B
Encoding: 1035 1035 580
Width: 833
GlyphClass: 1
Flags: W
LayerCount: 2
Fore
SplineSet
293 -6 m 0,0,1
 283 -6 283 -6 277.5 0 c 128,-1,2
 272 6 272 6 272 16 c 2,3,-1
 272 666 l 1,4,-1
 19 666 l 2,5,6
 9 666 9 666 3 671.5 c 128,-1,7
 -3 677 -3 677 -3 686 c 256,8,9
 -3 695 -3 695 3 700 c 128,-1,10
 9 705 9 705 19 705 c 2,11,-1
 567 705 l 2,12,13
 578 705 578 705 583.5 700 c 128,-1,14
 589 695 589 695 589 686 c 0,15,16
 589 676 589 676 583.5 671 c 128,-1,17
 578 666 578 666 567 666 c 2,18,-1
 314 666 l 1,19,-1
 314 387 l 1,20,21
 349 408 349 408 400.5 418.5 c 128,-1,22
 452 429 452 429 504 429 c 0,23,24
 591 429 591 429 650.5 397 c 128,-1,25
 710 365 710 365 740.5 302.5 c 128,-1,26
 771 240 771 240 771 146 c 2,27,-1
 771 16 l 2,28,29
 771 6 771 6 765.5 0 c 128,-1,30
 760 -6 760 -6 750 -6 c 256,31,32
 740 -6 740 -6 734.5 0 c 128,-1,33
 729 6 729 6 729 16 c 2,34,-1
 729 140 l 2,35,36
 729 268 729 268 672 328 c 128,-1,37
 615 388 615 388 504 388 c 0,38,39
 452 388 452 388 404 377.5 c 128,-1,40
 356 367 356 367 314 341 c 1,41,-1
 314 16 l 2,42,43
 314 6 314 6 309 0 c 128,-1,44
 304 -6 304 -6 293 -6 c 0,0,1
EndSplineSet
EndChar

StartChar: uni042E
Encoding: 1070 1070 581
Width: 984
GlyphClass: 1
Flags: W
AnchorPoint: "Anchor-0" 492 676 basechar 0
LayerCount: 2
Fore
SplineSet
616 -8 m 0,0,1
 525 -8 525 -8 458.5 34 c 128,-1,2
 392 76 392 76 355 153.5 c 128,-1,3
 318 231 318 231 315 338 c 1,4,-1
 138 338 l 1,5,-1
 138 16 l 2,6,7
 138 6 138 6 133 0 c 128,-1,8
 128 -6 128 -6 117 -6 c 0,9,10
 107 -6 107 -6 101.5 0 c 128,-1,11
 96 6 96 6 96 16 c 2,12,-1
 96 689 l 2,13,14
 96 700 96 700 101.5 705.5 c 128,-1,15
 107 711 107 711 117 711 c 256,16,17
 127 711 127 711 132.5 705.5 c 128,-1,18
 138 700 138 700 138 689 c 2,19,-1
 138 377 l 1,20,-1
 315 377 l 1,21,22
 320 482 320 482 357 557 c 128,-1,23
 394 632 394 632 460 672.5 c 128,-1,24
 526 713 526 713 616 713 c 0,25,26
 710 713 710 713 777 669.5 c 128,-1,27
 844 626 844 626 880.5 545.5 c 128,-1,28
 917 465 917 465 917 353 c 0,29,30
 917 269 917 269 896 202.5 c 128,-1,31
 875 136 875 136 836 89 c 128,-1,32
 797 42 797 42 741.5 17 c 128,-1,33
 686 -8 686 -8 616 -8 c 0,0,1
616 33 m 0,34,35
 698 33 698 33 755 70.5 c 128,-1,36
 812 108 812 108 842 179.5 c 128,-1,37
 872 251 872 251 872 353 c 0,38,39
 872 505 872 505 805.5 588.5 c 128,-1,40
 739 672 739 672 616 672 c 0,41,42
 535 672 535 672 477.5 634.5 c 128,-1,43
 420 597 420 597 390 525.5 c 128,-1,44
 360 454 360 454 360 353 c 0,45,46
 360 202 360 202 427 117.5 c 128,-1,47
 494 33 494 33 616 33 c 0,34,35
EndSplineSet
EndChar

StartChar: uni042F
Encoding: 1071 1071 582
Width: 654
GlyphClass: 1
Flags: W
AnchorPoint: "Anchor-0" 338 694 basechar 0
LayerCount: 2
Fore
SplineSet
537 -6 m 256,0,1
 527 -6 527 -6 521.5 0 c 128,-1,2
 516 6 516 6 516 16 c 2,3,-1
 516 312 l 1,4,-1
 369 312 l 2,5,6
 330 312 330 312 302.5 305 c 128,-1,7
 275 298 275 298 254 279.5 c 128,-1,8
 233 261 233 261 214 226 c 2,9,-1
 97 9 l 2,10,11
 93 1 93 1 86 -2.5 c 128,-1,12
 79 -6 79 -6 73 -5.5 c 128,-1,13
 67 -5 67 -5 62 -0.5 c 128,-1,14
 57 4 57 4 56.5 11 c 128,-1,15
 56 18 56 18 61 28 c 2,16,-1
 177 242 l 2,17,18
 201 287 201 287 228.5 307 c 128,-1,19
 256 327 256 327 294 327 c 2,20,-1
 313 327 l 1,21,-1
 303 315 l 1,22,23
 195 315 195 315 134.5 365.5 c 128,-1,24
 74 416 74 416 74 508 c 0,25,26
 74 572 74 572 100.5 615.5 c 128,-1,27
 127 659 127 659 178 682 c 128,-1,28
 229 705 229 705 303 705 c 2,29,-1
 533 705 l 2,30,31
 545 705 545 705 551.5 698.5 c 128,-1,32
 558 692 558 692 558 680 c 2,33,-1
 558 16 l 2,34,35
 558 6 558 6 552.5 0 c 128,-1,36
 547 -6 547 -6 537 -6 c 256,0,1
307 351 m 2,37,-1
 516 351 l 1,38,-1
 516 666 l 1,39,-1
 307 666 l 2,40,41
 213 666 213 666 165.5 626 c 128,-1,42
 118 586 118 586 118 509 c 0,43,44
 118 431 118 431 165.5 391 c 128,-1,45
 213 351 213 351 307 351 c 2,37,-1
EndSplineSet
EndChar

StartChar: uni0402
Encoding: 1026 1026 583
Width: 817
GlyphClass: 1
Flags: W
LayerCount: 2
Fore
SplineSet
568 -188 m 0,0,1
 541 -188 541 -188 515.5 -183.5 c 128,-1,2
 490 -179 490 -179 470 -172 c 0,3,4
 463 -169 463 -169 459 -163.5 c 128,-1,5
 455 -158 455 -158 455.5 -152 c 128,-1,6
 456 -146 456 -146 459 -141.5 c 128,-1,7
 462 -137 462 -137 468.5 -135 c 128,-1,8
 475 -133 475 -133 484 -136 c 0,9,10
 504 -143 504 -143 524 -146 c 128,-1,11
 544 -149 544 -149 567 -149 c 0,12,13
 638 -149 638 -149 675.5 -101.5 c 128,-1,14
 713 -54 713 -54 713 42 c 2,15,-1
 713 140 l 2,16,17
 713 266 713 266 659 327 c 128,-1,18
 605 388 605 388 491 388 c 0,19,20
 436 388 436 388 392.5 376.5 c 128,-1,21
 349 365 349 365 314 341 c 1,22,-1
 314 16 l 2,23,24
 314 6 314 6 309 0 c 128,-1,25
 304 -6 304 -6 293 -6 c 0,26,27
 283 -6 283 -6 277.5 0 c 128,-1,28
 272 6 272 6 272 16 c 2,29,-1
 272 666 l 1,30,-1
 19 666 l 2,31,32
 9 666 9 666 3 671.5 c 128,-1,33
 -3 677 -3 677 -3 686 c 256,34,35
 -3 695 -3 695 3 700 c 128,-1,36
 9 705 9 705 19 705 c 2,37,-1
 567 705 l 2,38,39
 578 705 578 705 583.5 700 c 128,-1,40
 589 695 589 695 589 686 c 0,41,42
 589 676 589 676 583.5 671 c 128,-1,43
 578 666 578 666 567 666 c 2,44,-1
 314 666 l 1,45,-1
 314 387 l 1,46,47
 344 407 344 407 392 418 c 128,-1,48
 440 429 440 429 492 429 c 0,49,50
 558 429 558 429 607.5 411 c 128,-1,51
 657 393 657 393 689.5 357.5 c 128,-1,52
 722 322 722 322 738.5 269 c 128,-1,53
 755 216 755 216 755 146 c 2,54,-1
 755 43 l 2,55,56
 755 -32 755 -32 733.5 -83.5 c 128,-1,57
 712 -135 712 -135 670 -161.5 c 128,-1,58
 628 -188 628 -188 568 -188 c 0,0,1
EndSplineSet
EndChar

StartChar: uni0462
Encoding: 1122 1122 584
Width: 707
GlyphClass: 1
Flags: W
LayerCount: 2
Fore
SplineSet
179 0 m 2,0,1
 167 0 167 0 160.5 6.5 c 128,-1,2
 154 13 154 13 154 25 c 2,3,-1
 154 548 l 1,4,-1
 -4 548 l 2,5,6
 -14 548 -14 548 -20 553.5 c 128,-1,7
 -26 559 -26 559 -26 568 c 0,8,9
 -26 587 -26 587 -4 587 c 2,10,-1
 163 587 l 1,11,-1
 154 568 l 1,12,-1
 154 689 l 2,13,14
 154 700 154 700 159.5 705.5 c 128,-1,15
 165 711 165 711 175 711 c 256,16,17
 185 711 185 711 190.5 705.5 c 128,-1,18
 196 700 196 700 196 689 c 2,19,-1
 196 568 l 1,20,-1
 187 587 l 1,21,-1
 420 587 l 2,22,23
 431 587 431 587 436.5 582 c 128,-1,24
 442 577 442 577 442 568 c 0,25,26
 442 548 442 548 420 548 c 2,27,-1
 196 548 l 1,28,-1
 196 379 l 1,29,-1
 425 379 l 2,30,31
 535 379 535 379 594 332.5 c 128,-1,32
 653 286 653 286 653 191 c 256,33,34
 653 96 653 96 594 48 c 128,-1,35
 535 0 535 0 425 0 c 2,36,-1
 179 0 l 2,0,1
196 39 m 1,37,-1
 424 39 l 2,38,39
 516 39 516 39 562.5 76.5 c 128,-1,40
 609 114 609 114 609 190 c 0,41,42
 609 267 609 267 562.5 303.5 c 128,-1,43
 516 340 516 340 424 340 c 2,44,-1
 196 340 l 1,45,-1
 196 39 l 1,37,-1
EndSplineSet
EndChar

StartChar: uni046A
Encoding: 1130 1130 585
Width: 908
GlyphClass: 1
Flags: W
LayerCount: 2
Fore
SplineSet
454 -6 m 256,0,1
 444 -6 444 -6 438.5 0 c 128,-1,2
 433 6 433 6 433 16 c 2,3,-1
 433 339 l 1,4,-1
 340 339 l 2,5,6
 281 339 281 339 239.5 309.5 c 128,-1,7
 198 280 198 280 164 210 c 2,8,-1
 66 9 l 2,9,10
 62 1 62 1 56 -2 c 128,-1,11
 50 -5 50 -5 43.5 -4.5 c 128,-1,12
 37 -4 37 -4 32 -0.5 c 128,-1,13
 27 3 27 3 25 9 c 128,-1,14
 23 15 23 15 27 22 c 2,15,-1
 134 239 l 2,16,17
 154 279 154 279 181 310.5 c 128,-1,18
 208 342 208 342 249 360 c 128,-1,19
 290 378 290 378 351 378 c 2,20,-1
 423 378 l 1,21,-1
 416 364 l 1,22,-1
 156 666 l 2,23,24
 147 677 147 677 146.5 685.5 c 128,-1,25
 146 694 146 694 153.5 699.5 c 128,-1,26
 161 705 161 705 174 705 c 2,27,-1
 734 705 l 2,28,29
 748 705 748 705 755 699.5 c 128,-1,30
 762 694 762 694 761.5 685.5 c 128,-1,31
 761 677 761 677 752 666 c 2,32,-1
 492 364 l 1,33,-1
 485 378 l 1,34,-1
 557 378 l 2,35,36
 619 378 619 378 659.5 360 c 128,-1,37
 700 342 700 342 727 310.5 c 128,-1,38
 754 279 754 279 774 239 c 2,39,-1
 881 22 l 2,40,41
 885 15 885 15 883 9 c 128,-1,42
 881 3 881 3 876 -0.5 c 128,-1,43
 871 -4 871 -4 864.5 -4.5 c 128,-1,44
 858 -5 858 -5 852 -2 c 128,-1,45
 846 1 846 1 842 9 c 2,46,-1
 744 210 l 2,47,48
 710 280 710 280 668.5 309.5 c 128,-1,49
 627 339 627 339 568 339 c 2,50,-1
 475 339 l 1,51,-1
 475 16 l 2,52,53
 475 6 475 6 469.5 0 c 128,-1,54
 464 -6 464 -6 454 -6 c 256,0,1
453 382 m 1,55,-1
 455 382 l 1,56,-1
 720 694 l 1,57,-1
 720 667 l 1,58,-1
 188 667 l 1,59,-1
 188 694 l 1,60,-1
 453 382 l 1,55,-1
EndSplineSet
EndChar

StartChar: uni0474
Encoding: 1140 1140 587
Width: 719
GlyphClass: 1
Flags: W
LayerCount: 2
Fore
SplineSet
334 -6 m 256,0,1
 323 -6 323 -6 316 0 c 128,-1,2
 309 6 309 6 304 17 c 2,3,-1
 17 685 l 2,4,5
 14 694 14 694 15.5 699.5 c 128,-1,6
 17 705 17 705 22.5 708 c 128,-1,7
 28 711 28 711 35 711 c 0,8,9
 44 711 44 711 49 706.5 c 128,-1,10
 54 702 54 702 58 694 c 2,11,-1
 346 24 l 1,12,-1
 323 24 l 1,13,-1
 531 533 l 2,14,15
 558 597 558 597 585.5 636 c 128,-1,16
 613 675 613 675 648.5 693 c 128,-1,17
 684 711 684 711 735 713 c 0,18,19
 745 713 745 713 750 709.5 c 128,-1,20
 755 706 755 706 757 700.5 c 128,-1,21
 759 695 759 695 757 689.5 c 128,-1,22
 755 684 755 684 750.5 680.5 c 128,-1,23
 746 677 746 677 739 676 c 0,24,25
 700 674 700 674 671.5 659.5 c 128,-1,26
 643 645 643 645 621 614.5 c 128,-1,27
 599 584 599 584 577 532 c 2,28,-1
 363 17 l 2,29,30
 359 6 359 6 352 0 c 128,-1,31
 345 -6 345 -6 334 -6 c 256,0,1
EndSplineSet
EndChar

StartChar: uni0496
Encoding: 1174 1174 588
Width: 928
GlyphClass: 1
Flags: W
LayerCount: 2
Fore
SplineSet
947 -156 m 256,0,1
 937 -156 937 -156 932 -150 c 128,-1,2
 927 -144 927 -144 927 -134 c 2,3,-1
 927 19 l 1,4,-1
 946 0 l 1,5,-1
 883 0 l 2,6,7
 877 0 877 0 869.5 4.5 c 128,-1,8
 862 9 862 9 858 17 c 2,9,-1
 764 210 l 2,10,11
 730 280 730 280 688.5 309.5 c 128,-1,12
 647 339 647 339 588 339 c 2,13,-1
 485 339 l 1,14,-1
 485 16 l 2,15,16
 485 6 485 6 479.5 0 c 128,-1,17
 474 -6 474 -6 464 -6 c 256,18,19
 454 -6 454 -6 448.5 0 c 128,-1,20
 443 6 443 6 443 16 c 2,21,-1
 443 339 l 1,22,-1
 340 339 l 2,23,24
 279 339 279 339 237 308.5 c 128,-1,25
 195 278 195 278 162 210 c 2,26,-1
 64 9 l 2,27,28
 60 1 60 1 54 -2 c 128,-1,29
 48 -5 48 -5 41.5 -4.5 c 128,-1,30
 35 -4 35 -4 30 -0.5 c 128,-1,31
 25 3 25 3 23 9 c 128,-1,32
 21 15 21 15 25 22 c 2,33,-1
 132 239 l 2,34,35
 163 301 163 301 206 336.5 c 128,-1,36
 249 372 249 372 305 376 c 1,37,-1
 292 359 l 1,38,-1
 73 680 l 2,39,40
 68 687 68 687 69 693 c 128,-1,41
 70 699 70 699 74.5 703.5 c 128,-1,42
 79 708 79 708 85 709.5 c 128,-1,43
 91 711 91 711 97.5 708.5 c 128,-1,44
 104 706 104 706 109 699 c 2,45,-1
 338 363 l 1,46,-1
 317 378 l 1,47,-1
 443 378 l 1,48,-1
 443 689 l 2,49,50
 443 700 443 700 448.5 705.5 c 128,-1,51
 454 711 454 711 464 711 c 256,52,53
 474 711 474 711 479.5 705.5 c 128,-1,54
 485 700 485 700 485 689 c 2,55,-1
 485 378 l 1,56,-1
 613 378 l 1,57,-1
 590 363 l 1,58,-1
 819 699 l 2,59,60
 824 706 824 706 830.5 708.5 c 128,-1,61
 837 711 837 711 843 709.5 c 128,-1,62
 849 708 849 708 853.5 703.5 c 128,-1,63
 858 699 858 699 859 693 c 128,-1,64
 860 687 860 687 855 680 c 2,65,-1
 636 359 l 1,66,-1
 623 376 l 1,67,68
 661 373 661 373 692 356.5 c 128,-1,69
 723 340 723 340 748.5 310.5 c 128,-1,70
 774 281 774 281 794 239 c 2,71,-1
 901 22 l 1,72,-1
 874 39 l 1,73,-1
 942 39 l 2,74,75
 954 39 954 39 960.5 32.5 c 128,-1,76
 967 26 967 26 967 14 c 2,77,-1
 967 -134 l 2,78,79
 967 -144 967 -144 962 -150 c 128,-1,80
 957 -156 957 -156 947 -156 c 256,0,1
EndSplineSet
EndChar

StartChar: uni0498
Encoding: 1176 1176 589
Width: 645
GlyphClass: 2
Flags: W
AnchorPoint: "Anchor-2" 321 0 basechar 0
AnchorPoint: "Anchor-0" 320 705 basechar 0
LayerCount: 2
Fore
SplineSet
321 -156 m 256,0,1
 311 -156 311 -156 306 -150 c 128,-1,2
 301 -144 301 -144 301 -134 c 2,3,-1
 301 13 l 1,4,-1
 341 13 l 1,5,-1
 341 -134 l 2,6,7
 341 -144 341 -144 336 -150 c 128,-1,8
 331 -156 331 -156 321 -156 c 256,0,1
319 -8 m 0,9,10
 235 -8 235 -8 167 15 c 128,-1,11
 99 38 99 38 57 79 c 0,12,13
 51 85 51 85 50 91.5 c 128,-1,14
 49 98 49 98 51 104.5 c 128,-1,15
 53 111 53 111 58 114.5 c 128,-1,16
 63 118 63 118 69.5 118 c 128,-1,17
 76 118 76 118 83 112 c 0,18,19
 115 85 115 85 150.5 67.5 c 128,-1,20
 186 50 186 50 228 41.5 c 128,-1,21
 270 33 270 33 319 33 c 0,22,23
 392 33 392 33 438.5 50.5 c 128,-1,24
 485 68 485 68 507.5 102.5 c 128,-1,25
 530 137 530 137 530 188 c 0,26,27
 530 265 530 265 483.5 301 c 128,-1,28
 437 337 437 337 345 337 c 2,29,-1
 188 337 l 2,30,31
 178 337 178 337 172 342.5 c 128,-1,32
 166 348 166 348 166 357 c 256,33,34
 166 366 166 366 172 371 c 128,-1,35
 178 376 178 376 188 376 c 2,36,-1
 330 376 l 2,37,38
 420 376 420 376 467 413.5 c 128,-1,39
 514 451 514 451 514 521 c 0,40,41
 514 568 514 568 492 602 c 128,-1,42
 470 636 470 636 426.5 654 c 128,-1,43
 383 672 383 672 319 672 c 0,44,45
 258 672 258 672 203 654 c 128,-1,46
 148 636 148 636 101 597 c 0,47,48
 94 591 94 591 87 590.5 c 128,-1,49
 80 590 80 590 75 593.5 c 128,-1,50
 70 597 70 597 67.5 603.5 c 128,-1,51
 65 610 65 610 66.5 616.5 c 128,-1,52
 68 623 68 623 75 629 c 0,53,54
 123 672 123 672 187.5 692.5 c 128,-1,55
 252 713 252 713 319 713 c 0,56,57
 398 713 398 713 451 689.5 c 128,-1,58
 504 666 504 666 531 623 c 128,-1,59
 558 580 558 580 558 520 c 0,60,61
 558 453 558 453 518 409 c 128,-1,62
 478 365 478 365 410 351 c 1,63,-1
 410 365 l 1,64,65
 485 358 485 358 529.5 312.5 c 128,-1,66
 574 267 574 267 574 191 c 0,67,68
 574 128 574 128 546.5 83.5 c 128,-1,69
 519 39 519 39 462.5 15.5 c 128,-1,70
 406 -8 406 -8 319 -8 c 0,9,10
EndSplineSet
Substitution2: "'locl' Localized Forms in Cyrillic lookup 17 subtable" uni0498.loclCHU
Substitution2: "'locl' Localized Forms in Cyrillic lookup 16 subtable" uni0498.loclBSH
AlternateSubs2: "'aalt' Access All Alternates lookup 1 subtable" uni0498.loclBSH uni0498.loclCHU
EndChar

StartChar: uni049A
Encoding: 1178 1178 590
Width: 611
GlyphClass: 1
Flags: W
LayerCount: 2
Fore
SplineSet
629 -156 m 256,0,1
 619 -156 619 -156 614 -150 c 128,-1,2
 609 -144 609 -144 609 -134 c 2,3,-1
 609 19 l 1,4,-1
 628 0 l 1,5,-1
 566 0 l 2,6,7
 560 0 560 0 553 4 c 128,-1,8
 546 8 546 8 542 15 c 2,9,-1
 447 210 l 2,10,11
 413 280 413 280 371.5 309.5 c 128,-1,12
 330 339 330 339 271 339 c 2,13,-1
 138 339 l 1,14,-1
 138 16 l 2,15,16
 138 6 138 6 133 0 c 128,-1,17
 128 -6 128 -6 117 -6 c 0,18,19
 107 -6 107 -6 101.5 0 c 128,-1,20
 96 6 96 6 96 16 c 2,21,-1
 96 689 l 2,22,23
 96 700 96 700 101.5 705.5 c 128,-1,24
 107 711 107 711 117 711 c 256,25,26
 127 711 127 711 132.5 705.5 c 128,-1,27
 138 700 138 700 138 689 c 2,28,-1
 138 378 l 1,29,-1
 296 378 l 1,30,-1
 273 363 l 1,31,-1
 502 699 l 2,32,33
 507 706 507 706 513.5 708.5 c 128,-1,34
 520 711 520 711 526 709.5 c 128,-1,35
 532 708 532 708 536.5 703.5 c 128,-1,36
 541 699 541 699 542 693 c 128,-1,37
 543 687 543 687 538 680 c 2,38,-1
 319 359 l 1,39,-1
 306 376 l 1,40,41
 362 372 362 372 404 336.5 c 128,-1,42
 446 301 446 301 477 239 c 2,43,-1
 584 22 l 1,44,-1
 566 39 l 1,45,-1
 624 39 l 2,46,47
 636 39 636 39 642.5 32.5 c 128,-1,48
 649 26 649 26 649 14 c 2,49,-1
 649 -134 l 2,50,51
 649 -144 649 -144 644 -150 c 128,-1,52
 639 -156 639 -156 629 -156 c 256,0,1
EndSplineSet
EndChar

StartChar: uni049C
Encoding: 1180 1180 591
Width: 621
GlyphClass: 1
Flags: W
LayerCount: 2
Fore
SplineSet
117 -6 m 0,0,1
 107 -6 107 -6 101.5 0 c 128,-1,2
 96 6 96 6 96 16 c 2,3,-1
 96 689 l 2,4,5
 96 700 96 700 101.5 705.5 c 128,-1,6
 107 711 107 711 117 711 c 256,7,8
 127 711 127 711 132.5 705.5 c 128,-1,9
 138 700 138 700 138 689 c 2,10,-1
 138 378 l 1,11,-1
 220 378 l 1,12,-1
 220 535 l 2,13,14
 220 555 220 555 238 555 c 0,15,16
 246 555 246 555 251 550 c 128,-1,17
 256 545 256 545 256 535 c 2,18,-1
 256 378 l 1,19,-1
 306 378 l 1,20,-1
 283 363 l 1,21,-1
 513 699 l 2,22,23
 518 706 518 706 524.5 708.5 c 128,-1,24
 531 711 531 711 537.5 709.5 c 128,-1,25
 544 708 544 708 548 703.5 c 128,-1,26
 552 699 552 699 553 693 c 128,-1,27
 554 687 554 687 549 680 c 2,28,-1
 329 359 l 1,29,-1
 316 376 l 1,30,31
 354 373 354 373 385 356.5 c 128,-1,32
 416 340 416 340 441.5 310.5 c 128,-1,33
 467 281 467 281 487 239 c 2,34,-1
 594 22 l 2,35,36
 598 15 598 15 596 9 c 128,-1,37
 594 3 594 3 589 -0.5 c 128,-1,38
 584 -4 584 -4 577.5 -4.5 c 128,-1,39
 571 -5 571 -5 565 -2 c 128,-1,40
 559 1 559 1 555 9 c 2,41,-1
 457 210 l 2,42,43
 423 280 423 280 381.5 309.5 c 128,-1,44
 340 339 340 339 281 339 c 2,45,-1
 252 339 l 1,46,-1
 256 347 l 1,47,-1
 256 182 l 2,48,49
 256 162 256 162 238 162 c 256,50,51
 220 162 220 162 220 182 c 2,52,-1
 220 339 l 1,53,-1
 138 339 l 1,54,-1
 138 16 l 2,55,56
 138 6 138 6 133 0 c 128,-1,57
 128 -6 128 -6 117 -6 c 0,0,1
EndSplineSet
EndChar

StartChar: uni049E
Encoding: 1182 1182 592
Width: 632
GlyphClass: 1
Flags: W
LayerCount: 2
Fore
SplineSet
148 -6 m 0,0,1
 138 -6 138 -6 132.5 0 c 128,-1,2
 127 6 127 6 127 16 c 2,3,-1
 127 549 l 1,4,-1
 1 549 l 2,5,6
 -9 549 -9 549 -14 554 c 128,-1,7
 -19 559 -19 559 -19 568 c 256,8,9
 -19 577 -19 577 -14 582 c 128,-1,10
 -9 587 -9 587 1 587 c 2,11,-1
 136 587 l 1,12,-1
 127 568 l 1,13,-1
 127 689 l 2,14,15
 127 700 127 700 132.5 705.5 c 128,-1,16
 138 711 138 711 148 711 c 256,17,18
 158 711 158 711 163.5 705.5 c 128,-1,19
 169 700 169 700 169 689 c 2,20,-1
 169 568 l 1,21,-1
 160 587 l 1,22,-1
 295 587 l 2,23,24
 305 587 305 587 310 582 c 128,-1,25
 315 577 315 577 315 568 c 256,26,27
 315 559 315 559 310 554 c 128,-1,28
 305 549 305 549 295 549 c 2,29,-1
 169 549 l 1,30,-1
 169 378 l 1,31,-1
 317 378 l 1,32,-1
 294 363 l 1,33,-1
 524 699 l 2,34,35
 529 706 529 706 535.5 708.5 c 128,-1,36
 542 711 542 711 548.5 709.5 c 128,-1,37
 555 708 555 708 559 703.5 c 128,-1,38
 563 699 563 699 564 693 c 128,-1,39
 565 687 565 687 560 680 c 2,40,-1
 340 359 l 1,41,-1
 327 376 l 1,42,43
 365 373 365 373 396 356.5 c 128,-1,44
 427 340 427 340 452.5 310.5 c 128,-1,45
 478 281 478 281 498 239 c 2,46,-1
 605 22 l 2,47,48
 609 15 609 15 607 9 c 128,-1,49
 605 3 605 3 600 -0.5 c 128,-1,50
 595 -4 595 -4 588.5 -4.5 c 128,-1,51
 582 -5 582 -5 576 -2 c 128,-1,52
 570 1 570 1 566 9 c 2,53,-1
 468 210 l 2,54,55
 434 280 434 280 392.5 309.5 c 128,-1,56
 351 339 351 339 292 339 c 2,57,-1
 169 339 l 1,58,-1
 169 16 l 2,59,60
 169 6 169 6 164 0 c 128,-1,61
 159 -6 159 -6 148 -6 c 0,0,1
EndSplineSet
EndChar

StartChar: uni04A0
Encoding: 1184 1184 593
Width: 738
GlyphClass: 1
Flags: W
LayerCount: 2
Fore
SplineSet
244 -6 m 0,0,1
 234 -6 234 -6 228.5 0 c 128,-1,2
 223 6 223 6 223 16 c 2,3,-1
 223 667 l 1,4,-1
 19 667 l 2,5,6
 9 667 9 667 3 672 c 128,-1,7
 -3 677 -3 677 -3 686 c 256,8,9
 -3 695 -3 695 3 700 c 128,-1,10
 9 705 9 705 19 705 c 2,11,-1
 244 705 l 2,12,13
 254 705 254 705 259.5 699.5 c 128,-1,14
 265 694 265 694 265 683 c 2,15,-1
 265 378 l 1,16,-1
 423 378 l 1,17,-1
 400 363 l 1,18,-1
 629 699 l 2,19,20
 634 706 634 706 640.5 708.5 c 128,-1,21
 647 711 647 711 653 709.5 c 128,-1,22
 659 708 659 708 663.5 703.5 c 128,-1,23
 668 699 668 699 669 693 c 128,-1,24
 670 687 670 687 665 680 c 2,25,-1
 446 359 l 1,26,-1
 433 376 l 1,27,28
 489 372 489 372 531 336.5 c 128,-1,29
 573 301 573 301 604 239 c 2,30,-1
 711 22 l 2,31,32
 715 15 715 15 713 9 c 128,-1,33
 711 3 711 3 706 -0.5 c 128,-1,34
 701 -4 701 -4 694.5 -4.5 c 128,-1,35
 688 -5 688 -5 682 -2 c 128,-1,36
 676 1 676 1 672 9 c 2,37,-1
 574 210 l 2,38,39
 540 280 540 280 498.5 309.5 c 128,-1,40
 457 339 457 339 398 339 c 2,41,-1
 265 339 l 1,42,-1
 265 16 l 2,43,44
 265 6 265 6 260 0 c 128,-1,45
 255 -6 255 -6 244 -6 c 0,0,1
EndSplineSet
EndChar

StartChar: uni04A2
Encoding: 1186 1186 594
Width: 785
GlyphClass: 1
Flags: W
LayerCount: 2
Fore
SplineSet
735 -156 m 256,0,1
 725 -156 725 -156 720 -150 c 128,-1,2
 715 -144 715 -144 715 -134 c 2,3,-1
 715 0 l 1,4,-1
 634 0 l 2,5,6
 624 0 624 0 618.5 4.5 c 128,-1,7
 613 9 613 9 613 22 c 2,8,-1
 613 338 l 1,9,-1
 138 338 l 1,10,-1
 138 16 l 2,11,12
 138 6 138 6 133 0 c 128,-1,13
 128 -6 128 -6 117 -6 c 0,14,15
 107 -6 107 -6 101.5 0 c 128,-1,16
 96 6 96 6 96 16 c 2,17,-1
 96 689 l 2,18,19
 96 700 96 700 101.5 705.5 c 128,-1,20
 107 711 107 711 117 711 c 256,21,22
 127 711 127 711 132.5 705.5 c 128,-1,23
 138 700 138 700 138 689 c 2,24,-1
 138 377 l 1,25,-1
 613 377 l 1,26,-1
 613 689 l 2,27,28
 613 700 613 700 618.5 705.5 c 128,-1,29
 624 711 624 711 634 711 c 256,30,31
 644 711 644 711 649.5 705.5 c 128,-1,32
 655 700 655 700 655 689 c 2,33,-1
 655 20 l 1,34,-1
 636 39 l 1,35,-1
 730 39 l 2,36,37
 742 39 742 39 748.5 32.5 c 128,-1,38
 755 26 755 26 755 14 c 2,39,-1
 755 -134 l 2,40,41
 755 -144 755 -144 750 -150 c 128,-1,42
 745 -156 745 -156 735 -156 c 256,0,1
EndSplineSet
EndChar

StartChar: uni04A4
Encoding: 1188 1188 595
Width: 927
GlyphClass: 1
Flags: W
LayerCount: 2
Fore
SplineSet
117 -6 m 0,0,1
 107 -6 107 -6 101.5 0 c 128,-1,2
 96 6 96 6 96 16 c 2,3,-1
 96 689 l 2,4,5
 96 700 96 700 101.5 705.5 c 128,-1,6
 107 711 107 711 117 711 c 256,7,8
 127 711 127 711 132.5 705.5 c 128,-1,9
 138 700 138 700 138 689 c 2,10,-1
 138 377 l 1,11,-1
 613 377 l 1,12,-1
 613 683 l 2,13,14
 613 694 613 694 619 699.5 c 128,-1,15
 625 705 625 705 635 705 c 2,16,-1
 908 705 l 2,17,18
 919 705 919 705 924.5 700 c 128,-1,19
 930 695 930 695 930 686 c 0,20,21
 930 676 930 676 924.5 671 c 128,-1,22
 919 666 919 666 908 666 c 2,23,-1
 655 666 l 1,24,-1
 655 16 l 2,25,26
 655 6 655 6 649.5 0 c 128,-1,27
 644 -6 644 -6 634 -6 c 256,28,29
 624 -6 624 -6 618.5 0 c 128,-1,30
 613 6 613 6 613 16 c 2,31,-1
 613 338 l 1,32,-1
 138 338 l 1,33,-1
 138 16 l 2,34,35
 138 6 138 6 133 0 c 128,-1,36
 128 -6 128 -6 117 -6 c 0,0,1
EndSplineSet
EndChar

StartChar: uni0524
Encoding: 1316 1316 596
Width: 780
GlyphClass: 1
Flags: W
LayerCount: 2
Fore
SplineSet
730 -156 m 256,0,1
 720 -156 720 -156 715 -150 c 128,-1,2
 710 -144 710 -144 710 -134 c 2,3,-1
 710 0 l 1,4,-1
 629 0 l 2,5,6
 619 0 619 0 613.5 4.5 c 128,-1,7
 608 9 608 9 608 22 c 2,8,-1
 608 666 l 1,9,-1
 138 666 l 1,10,-1
 138 16 l 2,11,12
 138 6 138 6 133 0 c 128,-1,13
 128 -6 128 -6 117 -6 c 0,14,15
 107 -6 107 -6 101.5 0 c 128,-1,16
 96 6 96 6 96 16 c 2,17,-1
 96 680 l 2,18,19
 96 692 96 692 102.5 698.5 c 128,-1,20
 109 705 109 705 121 705 c 2,21,-1
 625 705 l 2,22,23
 637 705 637 705 643.5 698.5 c 128,-1,24
 650 692 650 692 650 680 c 2,25,-1
 650 20 l 1,26,-1
 631 39 l 1,27,-1
 725 39 l 2,28,29
 737 39 737 39 743.5 32.5 c 128,-1,30
 750 26 750 26 750 14 c 2,31,-1
 750 -134 l 2,32,33
 750 -144 750 -144 745 -150 c 128,-1,34
 740 -156 740 -156 730 -156 c 256,0,1
EndSplineSet
EndChar

StartChar: uni04A8
Encoding: 1192 1192 597
Width: 780
GlyphClass: 1
Flags: W
LayerCount: 2
Fore
SplineSet
375 -8 m 0,0,1
 280 -8 280 -8 211 36 c 128,-1,2
 142 80 142 80 104.5 160.5 c 128,-1,3
 67 241 67 241 67 352 c 0,4,5
 67 437 67 437 88 504 c 128,-1,6
 109 571 109 571 148.5 617.5 c 128,-1,7
 188 664 188 664 244.5 688.5 c 128,-1,8
 301 713 301 713 373 713 c 0,9,10
 385 713 385 713 398 712.5 c 128,-1,11
 411 712 411 712 421 710 c 0,12,13
 434 709 434 709 439 702 c 128,-1,14
 444 695 444 695 442 686 c 0,15,16
 441 680 441 680 437.5 675.5 c 128,-1,17
 434 671 434 671 428.5 669.5 c 128,-1,18
 423 668 423 668 415 669 c 0,19,20
 404 671 404 671 393.5 671.5 c 128,-1,21
 383 672 383 672 373 672 c 0,22,23
 291 672 291 672 232.5 634.5 c 128,-1,24
 174 597 174 597 143 525.5 c 128,-1,25
 112 454 112 454 112 353 c 0,26,27
 112 251 112 251 143 179.5 c 128,-1,28
 174 108 174 108 233 70.5 c 128,-1,29
 292 33 292 33 375 33 c 0,30,31
 436 33 436 33 486 54.5 c 128,-1,32
 536 76 536 76 572.5 115 c 128,-1,33
 609 154 609 154 629 208.5 c 128,-1,34
 649 263 649 263 649 329 c 0,35,36
 649 417 649 417 614 465.5 c 128,-1,37
 579 514 579 514 516 514 c 0,38,39
 474 514 474 514 444.5 492 c 128,-1,40
 415 470 415 470 399 429 c 128,-1,41
 383 388 383 388 383 329 c 0,42,43
 383 241 383 241 418 174.5 c 128,-1,44
 453 108 453 108 514.5 70.5 c 128,-1,45
 576 33 576 33 657 33 c 0,46,47
 690 33 690 33 716.5 38 c 128,-1,48
 743 43 743 43 765 53 c 0,49,50
 775 57 775 57 781.5 55.5 c 128,-1,51
 788 54 788 54 791.5 49.5 c 128,-1,52
 795 45 795 45 795.5 38.5 c 128,-1,53
 796 32 796 32 792.5 26 c 128,-1,54
 789 20 789 20 781 16 c 0,55,56
 756 3 756 3 725 -2.5 c 128,-1,57
 694 -8 694 -8 656 -8 c 0,58,59
 587 -8 587 -8 529 17 c 128,-1,60
 471 42 471 42 428.5 87 c 128,-1,61
 386 132 386 132 362.5 194 c 128,-1,62
 339 256 339 256 339 329 c 0,63,64
 339 400 339 400 360.5 450.5 c 128,-1,65
 382 501 382 501 421.5 528 c 128,-1,66
 461 555 461 555 516 555 c 256,67,68
 571 555 571 555 610.5 528 c 128,-1,69
 650 501 650 501 671.5 450.5 c 128,-1,70
 693 400 693 400 693 329 c 0,71,72
 693 256 693 256 669.5 194 c 128,-1,73
 646 132 646 132 603.5 87 c 128,-1,74
 561 42 561 42 502.5 17 c 128,-1,75
 444 -8 444 -8 375 -8 c 0,0,1
EndSplineSet
EndChar

StartChar: uni04AA
Encoding: 1194 1194 598
Width: 667
GlyphClass: 2
Flags: W
AnchorPoint: "Anchor-2" 376 0 basechar 0
AnchorPoint: "Anchor-0" 382 705 basechar 0
LayerCount: 2
Fore
SplineSet
376 -156 m 256,0,1
 366 -156 366 -156 361 -150 c 128,-1,2
 356 -144 356 -144 356 -134 c 2,3,-1
 356 13 l 1,4,-1
 396 13 l 1,5,-1
 396 -134 l 2,6,7
 396 -144 396 -144 391 -150 c 128,-1,8
 386 -156 386 -156 376 -156 c 256,0,1
381 -8 m 0,9,10
 282 -8 282 -8 212 35.5 c 128,-1,11
 142 79 142 79 104.5 160 c 128,-1,12
 67 241 67 241 67 353 c 0,13,14
 67 437 67 437 88 503.5 c 128,-1,15
 109 570 109 570 149.5 616.5 c 128,-1,16
 190 663 190 663 248.5 688 c 128,-1,17
 307 713 307 713 381 713 c 0,18,19
 449 713 449 713 507.5 692 c 128,-1,20
 566 671 566 671 607 631 c 0,21,22
 614 624 614 624 616 616.5 c 128,-1,23
 618 609 618 609 615.5 603 c 128,-1,24
 613 597 613 597 608 593.5 c 128,-1,25
 603 590 603 590 596 591 c 128,-1,26
 589 592 589 592 581 599 c 0,27,28
 541 636 541 636 491.5 654 c 128,-1,29
 442 672 442 672 380 672 c 0,30,31
 294 672 294 672 234 634.5 c 128,-1,32
 174 597 174 597 143 525.5 c 128,-1,33
 112 454 112 454 112 353 c 0,34,35
 112 251 112 251 143 179.5 c 128,-1,36
 174 108 174 108 234 70.5 c 128,-1,37
 294 33 294 33 380 33 c 0,38,39
 440 33 440 33 490 51.5 c 128,-1,40
 540 70 540 70 581 107 c 0,41,42
 589 114 589 114 596 114.5 c 128,-1,43
 603 115 603 115 608 111.5 c 128,-1,44
 613 108 613 108 615.5 102 c 128,-1,45
 618 96 618 96 617 89 c 128,-1,46
 616 82 616 82 609 76 c 0,47,48
 565 34 565 34 508 13 c 128,-1,49
 451 -8 451 -8 381 -8 c 0,9,10
EndSplineSet
Substitution2: "'locl' Localized Forms in Cyrillic lookup 17 subtable" uni04AA.loclCHU
Substitution2: "'locl' Localized Forms in Cyrillic lookup 16 subtable" uni04AA.loclBSH
AlternateSubs2: "'aalt' Access All Alternates lookup 1 subtable" uni04AA.loclBSH uni04AA.loclCHU
EndChar

StartChar: uni04AC
Encoding: 1196 1196 599
Width: 566
GlyphClass: 1
Flags: W
LayerCount: 2
Fore
SplineSet
384 -156 m 0,0,1
 374 -156 374 -156 369 -150 c 128,-1,2
 364 -144 364 -144 364 -134 c 2,3,-1
 364 0 l 1,4,-1
 287 0 l 2,5,6
 275 0 275 0 268.5 6.5 c 128,-1,7
 262 13 262 13 262 25 c 2,8,-1
 262 666 l 1,9,-1
 19 666 l 2,10,11
 9 666 9 666 3 671.5 c 128,-1,12
 -3 677 -3 677 -3 686 c 256,13,14
 -3 695 -3 695 3 700 c 128,-1,15
 9 705 9 705 19 705 c 2,16,-1
 557 705 l 2,17,18
 568 705 568 705 573.5 700 c 128,-1,19
 579 695 579 695 579 686 c 0,20,21
 579 676 579 676 573.5 671 c 128,-1,22
 568 666 568 666 557 666 c 2,23,-1
 304 666 l 1,24,-1
 304 20 l 1,25,-1
 285 39 l 1,26,-1
 379 39 l 2,27,28
 391 39 391 39 397.5 32.5 c 128,-1,29
 404 26 404 26 404 14 c 2,30,-1
 404 -134 l 2,31,32
 404 -156 404 -156 384 -156 c 0,0,1
EndSplineSet
EndChar

StartChar: uni04B2
Encoding: 1202 1202 602
Width: 631
GlyphClass: 1
Flags: W
LayerCount: 2
Fore
SplineSet
622 -156 m 256,0,1
 612 -156 612 -156 607 -150 c 128,-1,2
 602 -144 602 -144 602 -134 c 2,3,-1
 602 19 l 1,4,-1
 621 0 l 1,5,-1
 574 0 l 2,6,7
 568 0 568 0 560 2.5 c 128,-1,8
 552 5 552 5 547 12 c 2,9,-1
 305 342 l 1,10,-1
 326 342 l 1,11,-1
 81 8 l 2,12,13
 76 1 76 1 69.5 -2.5 c 128,-1,14
 63 -6 63 -6 57 -6 c 0,15,16
 48 -6 48 -6 42.5 -1.5 c 128,-1,17
 37 3 37 3 36.5 9.5 c 128,-1,18
 36 16 36 16 41 23 c 2,19,-1
 295 367 l 1,20,-1
 295 357 l 1,21,-1
 58 679 l 2,22,23
 52 688 52 688 52.5 695 c 128,-1,24
 53 702 53 702 58.5 706.5 c 128,-1,25
 64 711 64 711 71 711 c 0,26,27
 79 711 79 711 83.5 709.5 c 128,-1,28
 88 708 88 708 93 700 c 2,29,-1
 323 387 l 1,30,-1
 311 387 l 1,31,-1
 536 697 l 2,32,33
 541 705 541 705 546.5 708 c 128,-1,34
 552 711 552 711 560 711 c 256,35,36
 568 711 568 711 573 706.5 c 128,-1,37
 578 702 578 702 578.5 695 c 128,-1,38
 579 688 579 688 573 679 c 2,39,-1
 336 357 l 1,40,-1
 336 367 l 1,41,-1
 589 24 l 1,42,-1
 559 39 l 1,43,-1
 617 39 l 2,44,45
 629 39 629 39 635.5 32.5 c 128,-1,46
 642 26 642 26 642 14 c 2,47,-1
 642 -134 l 2,48,49
 642 -144 642 -144 637 -150 c 128,-1,50
 632 -156 632 -156 622 -156 c 256,0,1
EndSplineSet
EndChar

StartChar: uni04B4
Encoding: 1204 1204 603
Width: 900
GlyphClass: 1
Flags: W
LayerCount: 2
Fore
SplineSet
854 -155 m 0,0,1
 844 -155 844 -155 839 -149 c 128,-1,2
 834 -143 834 -143 834 -133 c 2,3,-1
 834 1 l 1,4,-1
 245 1 l 2,5,6
 233 1 233 1 226.5 7.5 c 128,-1,7
 220 14 220 14 220 26 c 2,8,-1
 220 667 l 1,9,-1
 16 667 l 2,10,11
 6 667 6 667 0 672.5 c 128,-1,12
 -6 678 -6 678 -6 687 c 256,13,14
 -6 696 -6 696 0 701 c 128,-1,15
 6 706 6 706 16 706 c 2,16,-1
 466 706 l 2,17,18
 477 706 477 706 482.5 701 c 128,-1,19
 488 696 488 696 488 687 c 0,20,21
 488 677 488 677 482.5 672 c 128,-1,22
 477 667 477 667 466 667 c 2,23,-1
 262 667 l 1,24,-1
 262 40 l 1,25,-1
 732 40 l 1,26,-1
 732 690 l 2,27,28
 732 701 732 701 737.5 706.5 c 128,-1,29
 743 712 743 712 753 712 c 256,30,31
 763 712 763 712 768.5 706.5 c 128,-1,32
 774 701 774 701 774 690 c 2,33,-1
 774 21 l 1,34,-1
 755 40 l 1,35,-1
 849 40 l 2,36,37
 861 40 861 40 867.5 33.5 c 128,-1,38
 874 27 874 27 874 15 c 2,39,-1
 874 -133 l 2,40,41
 874 -155 874 -155 854 -155 c 0,0,1
EndSplineSet
EndChar

StartChar: uni04B6
Encoding: 1206 1206 604
Width: 691
GlyphClass: 1
Flags: W
LayerCount: 2
Fore
SplineSet
519 318 m 1,0,1
 485 297 485 297 433 286.5 c 128,-1,2
 381 276 381 276 329 276 c 0,3,4
 242 276 242 276 182.5 308 c 128,-1,5
 123 340 123 340 92.5 403 c 128,-1,6
 62 466 62 466 62 559 c 2,7,-1
 62 689 l 2,8,9
 62 700 62 700 67.5 705.5 c 128,-1,10
 73 711 73 711 83 711 c 256,11,12
 93 711 93 711 98.5 705.5 c 128,-1,13
 104 700 104 700 104 689 c 2,14,-1
 104 565 l 2,15,16
 104 438 104 438 161 377.5 c 128,-1,17
 218 317 218 317 329 317 c 0,18,19
 381 317 381 317 429 327.5 c 128,-1,20
 477 338 477 338 519 364 c 1,21,-1
 519 689 l 2,22,23
 519 700 519 700 524.5 705.5 c 128,-1,24
 530 711 530 711 540 711 c 256,25,26
 550 711 550 711 555.5 705.5 c 128,-1,27
 561 700 561 700 561 689 c 2,28,-1
 561 20 l 1,29,-1
 542 39 l 1,30,-1
 636 39 l 2,31,32
 648 39 648 39 654.5 32.5 c 128,-1,33
 661 26 661 26 661 14 c 2,34,-1
 661 -134 l 2,35,36
 661 -144 661 -144 656 -150 c 128,-1,37
 651 -156 651 -156 641 -156 c 256,38,39
 631 -156 631 -156 626 -150 c 128,-1,40
 621 -144 621 -144 621 -134 c 2,41,-1
 621 0 l 1,42,-1
 540 0 l 2,43,44
 530 0 530 0 524.5 4.5 c 128,-1,45
 519 9 519 9 519 22 c 2,46,-1
 519 318 l 1,0,1
EndSplineSet
EndChar

StartChar: uni04B8
Encoding: 1208 1208 605
Width: 657
GlyphClass: 1
Flags: W
LayerCount: 2
Fore
SplineSet
540 -6 m 0,0,1
 530 -6 530 -6 524.5 0 c 128,-1,2
 519 6 519 6 519 16 c 2,3,-1
 519 318 l 1,4,5
 485 297 485 297 433 286.5 c 128,-1,6
 381 276 381 276 330 276 c 1,7,-1
 338 285 l 1,8,-1
 338 129 l 2,9,10
 338 109 338 109 320 109 c 0,11,12
 312 109 312 109 307 114 c 128,-1,13
 302 119 302 119 302 129 c 2,14,-1
 302 285 l 1,15,-1
 312 276 l 1,16,17
 231 281 231 281 175.5 312 c 128,-1,18
 120 343 120 343 91 404.5 c 128,-1,19
 62 466 62 466 62 559 c 2,20,-1
 62 689 l 2,21,22
 62 700 62 700 67.5 705.5 c 128,-1,23
 73 711 73 711 83 711 c 256,24,25
 93 711 93 711 98.5 705.5 c 128,-1,26
 104 700 104 700 104 689 c 2,27,-1
 104 565 l 2,28,29
 104 438 104 438 159 380 c 128,-1,30
 214 322 214 322 313 317 c 1,31,-1
 302 307 l 1,32,-1
 302 484 l 2,33,34
 302 504 302 504 320 504 c 0,35,36
 328 504 328 504 333 499 c 128,-1,37
 338 494 338 494 338 484 c 2,38,-1
 338 307 l 1,39,-1
 331 317 l 1,40,41
 381 317 381 317 429 327.5 c 128,-1,42
 477 338 477 338 519 364 c 1,43,-1
 519 689 l 2,44,45
 519 700 519 700 524.5 705.5 c 128,-1,46
 530 711 530 711 540 711 c 256,47,48
 550 711 550 711 555.5 705.5 c 128,-1,49
 561 700 561 700 561 689 c 2,50,-1
 561 16 l 2,51,52
 561 6 561 6 556 0 c 128,-1,53
 551 -6 551 -6 540 -6 c 0,0,1
EndSplineSet
EndChar

StartChar: uni04BA
Encoding: 1210 1210 606
Width: 657
GlyphClass: 2
Flags: W
LayerCount: 2
Fore
SplineSet
117 -6 m 256,0,1
 107 -6 107 -6 101.5 0 c 128,-1,2
 96 6 96 6 96 16 c 2,3,-1
 96 689 l 2,4,5
 96 700 96 700 101.5 705.5 c 128,-1,6
 107 711 107 711 117 711 c 256,7,8
 127 711 127 711 132.5 705.5 c 128,-1,9
 138 700 138 700 138 689 c 2,10,-1
 138 387 l 1,11,12
 173 408 173 408 224.5 418.5 c 128,-1,13
 276 429 276 429 328 429 c 0,14,15
 415 429 415 429 474.5 397 c 128,-1,16
 534 365 534 365 564.5 302.5 c 128,-1,17
 595 240 595 240 595 146 c 2,18,-1
 595 16 l 2,19,20
 595 6 595 6 589.5 0 c 128,-1,21
 584 -6 584 -6 574 -6 c 256,22,23
 564 -6 564 -6 558.5 0 c 128,-1,24
 553 6 553 6 553 16 c 2,25,-1
 553 140 l 2,26,27
 553 268 553 268 496 328 c 128,-1,28
 439 388 439 388 328 388 c 0,29,30
 276 388 276 388 228 377.5 c 128,-1,31
 180 367 180 367 138 341 c 1,32,-1
 138 16 l 2,33,34
 138 6 138 6 132.5 0 c 128,-1,35
 127 -6 127 -6 117 -6 c 256,0,1
EndSplineSet
EndChar

StartChar: uni0526
Encoding: 1318 1318 607
Width: 691
GlyphClass: 1
Flags: W
LayerCount: 2
Fore
SplineSet
553 140 m 2,0,1
 553 268 553 268 496 328 c 128,-1,2
 439 388 439 388 328 388 c 0,3,4
 276 388 276 388 228 377.5 c 128,-1,5
 180 367 180 367 138 341 c 1,6,-1
 138 16 l 2,7,8
 138 6 138 6 132.5 0 c 128,-1,9
 127 -6 127 -6 117 -6 c 256,10,11
 107 -6 107 -6 101.5 0 c 128,-1,12
 96 6 96 6 96 16 c 2,13,-1
 96 689 l 2,14,15
 96 700 96 700 101.5 705.5 c 128,-1,16
 107 711 107 711 117 711 c 256,17,18
 127 711 127 711 132.5 705.5 c 128,-1,19
 138 700 138 700 138 689 c 2,20,-1
 138 387 l 1,21,22
 173 408 173 408 224.5 418.5 c 128,-1,23
 276 429 276 429 328 429 c 0,24,25
 415 429 415 429 474.5 397 c 128,-1,26
 534 365 534 365 564.5 302.5 c 128,-1,27
 595 240 595 240 595 146 c 2,28,-1
 595 20 l 1,29,-1
 576 39 l 1,30,-1
 670 39 l 2,31,32
 682 39 682 39 688.5 32.5 c 128,-1,33
 695 26 695 26 695 14 c 2,34,-1
 695 -134 l 2,35,36
 695 -144 695 -144 690 -150 c 128,-1,37
 685 -156 685 -156 675 -156 c 256,38,39
 665 -156 665 -156 660 -150 c 128,-1,40
 655 -144 655 -144 655 -134 c 2,41,-1
 655 0 l 1,42,-1
 574 0 l 2,43,44
 564 0 564 0 558.5 4.5 c 128,-1,45
 553 9 553 9 553 22 c 2,46,-1
 553 140 l 2,0,1
EndSplineSet
EndChar

StartChar: uni04BC
Encoding: 1212 1212 608
Width: 888
GlyphClass: 2
Flags: W
AnchorPoint: "Anchor-3" 576 0 basechar 0
LayerCount: 2
Fore
SplineSet
553 -8 m 0,0,1
 443 -8 443 -8 365.5 34.5 c 128,-1,2
 288 77 288 77 247 156 c 128,-1,3
 206 235 206 235 204 344 c 1,4,-1
 213 329 l 1,5,-1
 187 329 l 2,6,7
 134 329 134 329 97.5 346 c 128,-1,8
 61 363 61 363 43 397.5 c 128,-1,9
 25 432 25 432 25 483 c 2,10,-1
 25 524 l 2,11,12
 25 548 25 548 46 548 c 0,13,14
 56 548 56 548 61.5 541.5 c 128,-1,15
 67 535 67 535 67 524 c 0,16,17
 67 514 67 514 67 505 c 128,-1,18
 67 496 67 496 67 486 c 0,19,20
 67 424 67 424 96 396 c 128,-1,21
 125 368 125 368 186 368 c 2,22,-1
 213 368 l 1,23,-1
 204 352 l 1,24,25
 204 436 204 436 225.5 503 c 128,-1,26
 247 570 247 570 287.5 617 c 128,-1,27
 328 664 328 664 386.5 688.5 c 128,-1,28
 445 713 445 713 518 713 c 0,29,30
 578 713 578 713 626.5 697 c 128,-1,31
 675 681 675 681 711.5 650 c 128,-1,32
 748 619 748 619 772 575 c 128,-1,33
 796 531 796 531 808.5 475.5 c 128,-1,34
 821 420 821 420 821 355 c 0,35,36
 821 346 821 346 818 340.5 c 128,-1,37
 815 335 815 335 809 332 c 128,-1,38
 803 329 803 329 794 329 c 2,39,-1
 238 329 l 1,40,-1
 249 344 l 1,41,42
 251 245 251 245 285.5 175.5 c 128,-1,43
 320 106 320 106 387.5 69.5 c 128,-1,44
 455 33 455 33 554 33 c 0,45,46
 613 33 613 33 663 49.5 c 128,-1,47
 713 66 713 66 760 103 c 0,48,49
 768 110 768 110 774.5 110.5 c 128,-1,50
 781 111 781 111 786 107 c 128,-1,51
 791 103 791 103 793 97 c 128,-1,52
 795 91 795 91 793 84 c 128,-1,53
 791 77 791 77 785 71 c 0,54,55
 738 32 738 32 679.5 12 c 128,-1,56
 621 -8 621 -8 553 -8 c 0,0,1
519 672 m 0,57,58
 433 672 433 672 372.5 634 c 128,-1,59
 312 596 312 596 280.5 524.5 c 128,-1,60
 249 453 249 453 249 352 c 1,61,-1
 238 368 l 1,62,-1
 789 368 l 1,63,-1
 778 352 l 1,64,65
 778 456 778 456 748.5 527 c 128,-1,66
 719 598 719 598 661.5 635 c 128,-1,67
 604 672 604 672 519 672 c 0,57,58
EndSplineSet
EndChar

StartChar: uni04C3
Encoding: 1219 1219 612
Width: 641
GlyphClass: 1
Flags: W
LayerCount: 2
Fore
SplineSet
392 -188 m 0,0,1
 365 -188 365 -188 339.5 -183.5 c 128,-1,2
 314 -179 314 -179 294 -172 c 0,3,4
 287 -169 287 -169 283 -163.5 c 128,-1,5
 279 -158 279 -158 279.5 -152 c 128,-1,6
 280 -146 280 -146 283 -141.5 c 128,-1,7
 286 -137 286 -137 292.5 -135 c 128,-1,8
 299 -133 299 -133 308 -136 c 0,9,10
 328 -143 328 -143 348 -146 c 128,-1,11
 368 -149 368 -149 391 -149 c 0,12,13
 462 -149 462 -149 499.5 -101.5 c 128,-1,14
 537 -54 537 -54 537 42 c 2,15,-1
 537 90 l 2,16,17
 537 174 537 174 513 229.5 c 128,-1,18
 489 285 489 285 436.5 312 c 128,-1,19
 384 339 384 339 297 339 c 2,20,-1
 138 339 l 1,21,-1
 138 16 l 2,22,23
 138 6 138 6 133 0 c 128,-1,24
 128 -6 128 -6 117 -6 c 0,25,26
 107 -6 107 -6 101.5 0 c 128,-1,27
 96 6 96 6 96 16 c 2,28,-1
 96 689 l 2,29,30
 96 700 96 700 101.5 705.5 c 128,-1,31
 107 711 107 711 117 711 c 256,32,33
 127 711 127 711 132.5 705.5 c 128,-1,34
 138 700 138 700 138 689 c 2,35,-1
 138 378 l 1,36,-1
 296 378 l 1,37,-1
 273 363 l 1,38,-1
 503 699 l 2,39,40
 508 706 508 706 514.5 708.5 c 128,-1,41
 521 711 521 711 527.5 709.5 c 128,-1,42
 534 708 534 708 538 703.5 c 128,-1,43
 542 699 542 699 543 693 c 128,-1,44
 544 687 544 687 539 680 c 2,45,-1
 319 359 l 1,46,-1
 315 377 l 1,47,48
 404 377 404 377 462.5 346 c 128,-1,49
 521 315 521 315 550 252.5 c 128,-1,50
 579 190 579 190 579 96 c 2,51,-1
 579 43 l 2,52,53
 579 -32 579 -32 557.5 -83.5 c 128,-1,54
 536 -135 536 -135 494 -161.5 c 128,-1,55
 452 -188 452 -188 392 -188 c 0,0,1
EndSplineSet
EndChar

StartChar: uni04C5
Encoding: 1221 1221 613
Width: 741
GlyphClass: 1
Flags: W
LayerCount: 2
Fore
SplineSet
682 -140 m 2,0,1
 679 -148 679 -148 674 -151.5 c 128,-1,2
 669 -155 669 -155 663.5 -155 c 128,-1,3
 658 -155 658 -155 653.5 -151.5 c 128,-1,4
 649 -148 649 -148 647 -142.5 c 128,-1,5
 645 -137 645 -137 648 -129 c 2,6,-1
 697 18 l 1,7,-1
 710 0 l 1,8,-1
 614 0 l 2,9,10
 604 0 604 0 598.5 6 c 128,-1,11
 593 12 593 12 593 22 c 2,12,-1
 593 666 l 1,13,-1
 235 666 l 1,14,-1
 235 485 l 2,15,16
 235 374 235 374 223.5 292.5 c 128,-1,17
 212 211 212 211 189.5 154 c 128,-1,18
 167 97 167 97 133.5 59.5 c 128,-1,19
 100 22 100 22 55 -3 c 0,20,21
 45 -9 45 -9 37 -7 c 128,-1,22
 29 -5 29 -5 25 4 c 0,23,24
 21 14 21 14 24 21 c 128,-1,25
 27 28 27 28 37 34 c 0,26,27
 73 54 73 54 102 85.5 c 128,-1,28
 131 117 131 117 152 168 c 128,-1,29
 173 219 173 219 184 298.5 c 128,-1,30
 195 378 195 378 195 495 c 2,31,-1
 195 680 l 2,32,33
 195 692 195 692 201.5 698.5 c 128,-1,34
 208 705 208 705 220 705 c 2,35,-1
 610 705 l 2,36,37
 622 705 622 705 628.5 698.5 c 128,-1,38
 635 692 635 692 635 680 c 2,39,-1
 635 20 l 1,40,-1
 616 39 l 1,41,-1
 710 39 l 2,42,43
 725 39 725 39 731.5 32.5 c 128,-1,44
 738 26 738 26 733 12 c 2,45,-1
 682 -140 l 2,0,1
EndSplineSet
EndChar

StartChar: uni04C7
Encoding: 1223 1223 614
Width: 751
GlyphClass: 1
Flags: W
LayerCount: 2
Fore
SplineSet
489 -192 m 0,0,1
 478 -192 478 -192 472 -186.5 c 128,-1,2
 466 -181 466 -181 465.5 -173.5 c 128,-1,3
 465 -166 465 -166 470 -160 c 128,-1,4
 475 -154 475 -154 486 -154 c 0,5,6
 550 -152 550 -152 581.5 -121.5 c 128,-1,7
 613 -91 613 -91 613 -22 c 2,8,-1
 613 338 l 1,9,-1
 138 338 l 1,10,-1
 138 16 l 2,11,12
 138 6 138 6 133 0 c 128,-1,13
 128 -6 128 -6 117 -6 c 0,14,15
 107 -6 107 -6 101.5 0 c 128,-1,16
 96 6 96 6 96 16 c 2,17,-1
 96 689 l 2,18,19
 96 700 96 700 101.5 705.5 c 128,-1,20
 107 711 107 711 117 711 c 256,21,22
 127 711 127 711 132.5 705.5 c 128,-1,23
 138 700 138 700 138 689 c 2,24,-1
 138 377 l 1,25,-1
 613 377 l 1,26,-1
 613 689 l 2,27,28
 613 700 613 700 618.5 705.5 c 128,-1,29
 624 711 624 711 634 711 c 256,30,31
 644 711 644 711 649.5 705.5 c 128,-1,32
 655 700 655 700 655 689 c 2,33,-1
 655 -21 l 2,34,35
 655 -79 655 -79 634.5 -117 c 128,-1,36
 614 -155 614 -155 577 -173.5 c 128,-1,37
 540 -192 540 -192 489 -192 c 0,0,1
EndSplineSet
EndChar

StartChar: uni04C9
Encoding: 1225 1225 615
Width: 761
GlyphClass: 1
Flags: W
LayerCount: 2
Fore
SplineSet
702 -140 m 2,0,1
 699 -148 699 -148 694 -151.5 c 128,-1,2
 689 -155 689 -155 683.5 -155 c 128,-1,3
 678 -155 678 -155 673.5 -151.5 c 128,-1,4
 669 -148 669 -148 667 -142.5 c 128,-1,5
 665 -137 665 -137 668 -129 c 2,6,-1
 717 18 l 1,7,-1
 730 0 l 1,8,-1
 634 0 l 2,9,10
 624 0 624 0 618.5 6 c 128,-1,11
 613 12 613 12 613 22 c 2,12,-1
 613 338 l 1,13,-1
 138 338 l 1,14,-1
 138 16 l 2,15,16
 138 6 138 6 133 0 c 128,-1,17
 128 -6 128 -6 117 -6 c 0,18,19
 107 -6 107 -6 101.5 0 c 128,-1,20
 96 6 96 6 96 16 c 2,21,-1
 96 689 l 2,22,23
 96 700 96 700 101.5 705.5 c 128,-1,24
 107 711 107 711 117 711 c 256,25,26
 127 711 127 711 132.5 705.5 c 128,-1,27
 138 700 138 700 138 689 c 2,28,-1
 138 377 l 1,29,-1
 613 377 l 1,30,-1
 613 689 l 2,31,32
 613 700 613 700 618.5 705.5 c 128,-1,33
 624 711 624 711 634 711 c 256,34,35
 644 711 644 711 649.5 705.5 c 128,-1,36
 655 700 655 700 655 689 c 2,37,-1
 655 20 l 1,38,-1
 636 39 l 1,39,-1
 730 39 l 2,40,41
 745 39 745 39 751.5 32.5 c 128,-1,42
 758 26 758 26 753 12 c 2,43,-1
 702 -140 l 2,0,1
EndSplineSet
EndChar

StartChar: uni04CB
Encoding: 1227 1227 616
Width: 657
GlyphClass: 1
Flags: W
LayerCount: 2
Fore
SplineSet
439 -156 m 256,0,1
 429 -156 429 -156 424 -150 c 128,-1,2
 419 -144 419 -144 419 -134 c 2,3,-1
 419 14 l 2,4,5
 419 26 419 26 425.5 32.5 c 128,-1,6
 432 39 432 39 444 39 c 2,7,-1
 538 39 l 1,8,-1
 519 20 l 1,9,-1
 519 318 l 1,10,11
 485 297 485 297 433 286.5 c 128,-1,12
 381 276 381 276 329 276 c 0,13,14
 242 276 242 276 182.5 308 c 128,-1,15
 123 340 123 340 92.5 403 c 128,-1,16
 62 466 62 466 62 559 c 2,17,-1
 62 689 l 2,18,19
 62 700 62 700 67.5 705.5 c 128,-1,20
 73 711 73 711 83 711 c 256,21,22
 93 711 93 711 98.5 705.5 c 128,-1,23
 104 700 104 700 104 689 c 2,24,-1
 104 565 l 2,25,26
 104 438 104 438 161 377.5 c 128,-1,27
 218 317 218 317 329 317 c 0,28,29
 381 317 381 317 429 327.5 c 128,-1,30
 477 338 477 338 519 364 c 1,31,-1
 519 689 l 2,32,33
 519 700 519 700 524.5 705.5 c 128,-1,34
 530 711 530 711 540 711 c 256,35,36
 550 711 550 711 555.5 705.5 c 128,-1,37
 561 700 561 700 561 689 c 2,38,-1
 561 22 l 2,39,40
 561 9 561 9 555.5 4.5 c 128,-1,41
 550 0 550 0 540 0 c 2,42,-1
 459 0 l 1,43,-1
 459 -134 l 2,44,45
 459 -144 459 -144 454 -150 c 128,-1,46
 449 -156 449 -156 439 -156 c 256,0,1
EndSplineSet
EndChar

StartChar: uni04CD
Encoding: 1229 1229 617
Width: 854
GlyphClass: 1
Flags: W
LayerCount: 2
Fore
SplineSet
793 -140 m 2,0,1
 790 -148 790 -148 785 -151.5 c 128,-1,2
 780 -155 780 -155 774.5 -155 c 128,-1,3
 769 -155 769 -155 764.5 -151.5 c 128,-1,4
 760 -148 760 -148 758 -142.5 c 128,-1,5
 756 -137 756 -137 759 -129 c 2,6,-1
 808 18 l 1,7,-1
 821 0 l 1,8,-1
 728 0 l 2,9,10
 718 0 718 0 712.5 6 c 128,-1,11
 707 12 707 12 707 22 c 2,12,-1
 707 665 l 1,13,-1
 731 665 l 1,14,-1
 446 120 l 2,15,16
 442 112 442 112 437.5 108 c 128,-1,17
 433 104 433 104 424 104 c 256,18,19
 415 104 415 104 410 108.5 c 128,-1,20
 405 113 405 113 401 120 c 2,21,-1
 112 666 l 1,22,-1
 137 666 l 1,23,-1
 137 16 l 2,24,25
 137 6 137 6 132 0 c 128,-1,26
 127 -6 127 -6 118 -6 c 256,27,28
 109 -6 109 -6 103.5 0 c 128,-1,29
 98 6 98 6 98 16 c 2,30,-1
 98 689 l 2,31,32
 98 700 98 700 103 705.5 c 128,-1,33
 108 711 108 711 116 711 c 0,34,35
 125 711 125 711 130 707 c 128,-1,36
 135 703 135 703 139 695 c 2,37,-1
 437 127 l 1,38,-1
 409 127 l 1,39,-1
 705 695 l 2,40,41
 710 703 710 703 714.5 707 c 128,-1,42
 719 711 719 711 728 711 c 0,43,44
 736 711 736 711 741 705.5 c 128,-1,45
 746 700 746 700 746 689 c 2,46,-1
 746 20 l 1,47,-1
 727 39 l 1,48,-1
 821 39 l 2,49,50
 836 39 836 39 842.5 32.5 c 128,-1,51
 849 26 849 26 844 12 c 2,52,-1
 793 -140 l 2,0,1
EndSplineSet
EndChar

StartChar: uni04E0
Encoding: 1248 1248 626
Width: 645
GlyphClass: 1
Flags: W
LayerCount: 2
Fore
SplineSet
319 -8 m 0,0,1
 235 -8 235 -8 167 14.5 c 128,-1,2
 99 37 99 37 57 79 c 0,3,4
 51 85 51 85 50 91.5 c 128,-1,5
 49 98 49 98 51 104.5 c 128,-1,6
 53 111 53 111 58 114.5 c 128,-1,7
 63 118 63 118 69.5 118 c 128,-1,8
 76 118 76 118 83 112 c 0,9,10
 132 72 132 72 188.5 52.5 c 128,-1,11
 245 33 245 33 319 33 c 0,12,13
 392 33 392 33 438.5 50.5 c 128,-1,14
 485 68 485 68 507.5 102.5 c 128,-1,15
 530 137 530 137 530 188 c 256,16,17
 530 239 530 239 508.5 272 c 128,-1,18
 487 305 487 305 442 321 c 128,-1,19
 397 337 397 337 325 337 c 2,20,-1
 247 337 l 2,21,22
 239 337 239 337 234 340.5 c 128,-1,23
 229 344 229 344 227 350 c 128,-1,24
 225 356 225 356 227 363 c 128,-1,25
 229 370 229 370 235 377 c 2,26,-1
 504 686 l 1,27,-1
 504 666 l 1,28,-1
 80 666 l 2,29,30
 69 666 69 666 63 671.5 c 128,-1,31
 57 677 57 677 57 686 c 256,32,33
 57 695 57 695 63 700 c 128,-1,34
 69 705 69 705 80 705 c 2,35,-1
 534 705 l 2,36,37
 541 705 541 705 545.5 702 c 128,-1,38
 550 699 550 699 551.5 694 c 128,-1,39
 553 689 553 689 550.5 682 c 128,-1,40
 548 675 548 675 541 667 c 2,41,-1
 275 361 l 1,42,-1
 275 376 l 1,43,-1
 333 376 l 2,44,45
 408 376 408 376 462 356.5 c 128,-1,46
 516 337 516 337 545 296.5 c 128,-1,47
 574 256 574 256 574 191 c 0,48,49
 574 128 574 128 546.5 83.5 c 128,-1,50
 519 39 519 39 462.5 15.5 c 128,-1,51
 406 -8 406 -8 319 -8 c 0,0,1
EndSplineSet
EndChar

StartChar: uni04E8
Encoding: 1256 1256 630
Width: 751
GlyphClass: 2
Flags: W
AnchorPoint: "Anchor-5" 376 353 basechar 0
AnchorPoint: "Anchor-3" 430 0 basechar 0
AnchorPoint: "Anchor-2" 375 0 basechar 0
AnchorPoint: "Anchor-1" 448 705 basechar 0
AnchorPoint: "Anchor-0" 376 705 basechar 0
LayerCount: 2
Fore
SplineSet
92 339 m 1,0,-1
 92 377 l 1,1,-1
 667 377 l 1,2,-1
 667 339 l 1,3,-1
 92 339 l 1,0,-1
375 -8 m 0,4,5
 280 -8 280 -8 211 36 c 128,-1,6
 142 80 142 80 104.5 161 c 128,-1,7
 67 242 67 242 67 353 c 0,8,9
 67 437 67 437 88 503.5 c 128,-1,10
 109 570 109 570 149 616.5 c 128,-1,11
 189 663 189 663 246 688 c 128,-1,12
 303 713 303 713 375 713 c 0,13,14
 471 713 471 713 540.5 669.5 c 128,-1,15
 610 626 610 626 647 545.5 c 128,-1,16
 684 465 684 465 684 354 c 0,17,18
 684 270 684 270 662.5 203 c 128,-1,19
 641 136 641 136 601 89 c 128,-1,20
 561 42 561 42 504 17 c 128,-1,21
 447 -8 447 -8 375 -8 c 0,4,5
375 33 m 0,22,23
 459 33 459 33 518 70.5 c 128,-1,24
 577 108 577 108 608 179.5 c 128,-1,25
 639 251 639 251 639 353 c 0,26,27
 639 505 639 505 570.5 588.5 c 128,-1,28
 502 672 502 672 375 672 c 0,29,30
 292 672 292 672 233 634.5 c 128,-1,31
 174 597 174 597 143 525.5 c 128,-1,32
 112 454 112 454 112 353 c 0,33,34
 112 202 112 202 181 117.5 c 128,-1,35
 250 33 250 33 375 33 c 0,22,23
EndSplineSet
EndChar

StartChar: uni04FA
Encoding: 1274 1274 638
Width: 558
GlyphClass: 1
Flags: W
LayerCount: 2
Fore
SplineSet
111 -179 m 2,0,1
 100 -180 100 -180 93.5 -175 c 128,-1,2
 87 -170 87 -170 86 -162 c 256,3,4
 85 -154 85 -154 90.5 -147.5 c 128,-1,5
 96 -141 96 -141 112 -140 c 2,6,-1
 124 -139 l 2,7,8
 184 -134 184 -134 207 -101 c 128,-1,9
 230 -68 230 -68 230 0 c 1,10,-1
 152 0 l 2,11,12
 140 0 140 0 133.5 6.5 c 128,-1,13
 127 13 127 13 127 25 c 2,14,-1
 127 338 l 1,15,-1
 49 338 l 2,16,17
 39 338 39 338 33 343 c 128,-1,18
 27 348 27 348 27 357 c 256,19,20
 27 366 27 366 33 371 c 128,-1,21
 39 376 39 376 49 376 c 2,22,-1
 127 376 l 1,23,-1
 127 683 l 2,24,25
 127 694 127 694 133 699.5 c 128,-1,26
 139 705 139 705 149 705 c 2,27,-1
 529 705 l 2,28,29
 540 705 540 705 545.5 700 c 128,-1,30
 551 695 551 695 551 685 c 0,31,32
 551 676 551 676 545.5 671 c 128,-1,33
 540 666 540 666 529 666 c 2,34,-1
 169 666 l 1,35,-1
 169 376 l 1,36,-1
 337 376 l 2,37,38
 348 376 348 376 353.5 371 c 128,-1,39
 359 366 359 366 359 357 c 256,40,41
 359 348 359 348 353.5 343 c 128,-1,42
 348 338 348 338 337 338 c 2,43,-1
 169 338 l 1,44,-1
 169 20 l 1,45,-1
 150 39 l 1,46,-1
 244 39 l 2,47,48
 256 39 256 39 262.5 32.5 c 128,-1,49
 269 26 269 26 269 14 c 2,50,-1
 269 0 l 2,51,52
 269 -58 269 -58 253.5 -96.5 c 128,-1,53
 238 -135 238 -135 206 -155 c 128,-1,54
 174 -175 174 -175 126 -178 c 2,55,-1
 111 -179 l 2,0,1
EndSplineSet
EndChar

StartChar: uni04FC
Encoding: 1276 1276 639
Width: 631
GlyphClass: 1
Flags: W
LayerCount: 2
Fore
SplineSet
428 -180 m 0,0,1
 417 -182 417 -182 409.5 -178 c 128,-1,2
 402 -174 402 -174 400 -166 c 0,3,4
 399 -158 399 -158 403.5 -152 c 128,-1,5
 408 -146 408 -146 421 -144 c 0,6,7
 481 -133 481 -133 507 -105 c 128,-1,8
 533 -77 533 -77 533 -24 c 0,9,10
 533 2 533 2 514 42.5 c 128,-1,11
 495 83 495 83 460 131 c 2,12,-1
 305 342 l 1,13,-1
 326 342 l 1,14,-1
 81 8 l 2,15,16
 76 1 76 1 69.5 -2.5 c 128,-1,17
 63 -6 63 -6 57 -6 c 0,18,19
 48 -6 48 -6 42.5 -1.5 c 128,-1,20
 37 3 37 3 36.5 9.5 c 128,-1,21
 36 16 36 16 41 23 c 2,22,-1
 295 367 l 1,23,-1
 295 357 l 1,24,-1
 58 679 l 2,25,26
 52 688 52 688 52.5 695 c 128,-1,27
 53 702 53 702 58.5 706.5 c 128,-1,28
 64 711 64 711 71 711 c 0,29,30
 79 711 79 711 84.5 708 c 128,-1,31
 90 705 90 705 95 697 c 2,32,-1
 323 387 l 1,33,-1
 311 387 l 1,34,-1
 536 697 l 2,35,36
 541 705 541 705 546.5 708 c 128,-1,37
 552 711 552 711 560 711 c 256,38,39
 568 711 568 711 573 706.5 c 128,-1,40
 578 702 578 702 578.5 695 c 128,-1,41
 579 688 579 688 573 679 c 2,42,-1
 336 357 l 1,43,-1
 336 367 l 1,44,-1
 502 141 l 2,45,46
 540 90 540 90 556.5 49 c 128,-1,47
 573 8 573 8 573 -24 c 0,48,49
 573 -91 573 -91 537.5 -129 c 128,-1,50
 502 -167 502 -167 428 -180 c 0,0,1
EndSplineSet
EndChar

StartChar: uni0510
Encoding: 1296 1296 641
Width: 645
GlyphClass: 1
Flags: W
LayerCount: 2
Fore
SplineSet
326 -8 m 0,0,1
 239 -8 239 -8 182.5 15.5 c 128,-1,2
 126 39 126 39 98.5 83.5 c 128,-1,3
 71 128 71 128 71 191 c 0,4,5
 71 242 71 242 91 279 c 128,-1,6
 111 316 111 316 148 338 c 128,-1,7
 185 360 185 360 235 365 c 1,8,-1
 235 351 l 1,9,10
 168 365 168 365 127.5 409 c 128,-1,11
 87 453 87 453 87 520 c 0,12,13
 87 580 87 580 114 623 c 128,-1,14
 141 666 141 666 194.5 689.5 c 128,-1,15
 248 713 248 713 326 713 c 0,16,17
 371 713 371 713 414.5 703.5 c 128,-1,18
 458 694 458 694 498 675.5 c 128,-1,19
 538 657 538 657 570 629 c 0,20,21
 577 623 577 623 578.5 616.5 c 128,-1,22
 580 610 580 610 577.5 603.5 c 128,-1,23
 575 597 575 597 570 593.5 c 128,-1,24
 565 590 565 590 558.5 590.5 c 128,-1,25
 552 591 552 591 544 597 c 0,26,27
 498 636 498 636 442.5 654 c 128,-1,28
 387 672 387 672 326 672 c 0,29,30
 230 672 230 672 180.5 632 c 128,-1,31
 131 592 131 592 131 521 c 0,32,33
 131 451 131 451 178 413.5 c 128,-1,34
 225 376 225 376 315 376 c 2,35,-1
 457 376 l 2,36,37
 468 376 468 376 473.5 371 c 128,-1,38
 479 366 479 366 479 357 c 256,39,40
 479 348 479 348 473.5 342.5 c 128,-1,41
 468 337 468 337 457 337 c 2,42,-1
 300 337 l 2,43,44
 208 337 208 337 161.5 301 c 128,-1,45
 115 265 115 265 115 188 c 0,46,47
 115 112 115 112 166 72.5 c 128,-1,48
 217 33 217 33 326 33 c 0,49,50
 400 33 400 33 456.5 52.5 c 128,-1,51
 513 72 513 72 562 112 c 0,52,53
 569 118 569 118 575.5 118 c 128,-1,54
 582 118 582 118 587 114.5 c 128,-1,55
 592 111 592 111 594 104.5 c 128,-1,56
 596 98 596 98 595 91.5 c 128,-1,57
 594 85 594 85 588 79 c 0,58,59
 546 37 546 37 478 14.5 c 128,-1,60
 410 -8 410 -8 326 -8 c 0,0,1
EndSplineSet
EndChar

